<svg width="300" height="774" viewBox="0 0 300 774" fill="none" xmlns="http://www.w3.org/2000/svg">
<rect y="0.305664" width="300" height="773" rx="16" fill="#FFFCEA"/>
<path d="M265.224 171.068C261.813 171.068 260.529 154.461 263.941 154.196C245.491 156.159 226.548 159.177 213.67 157.131C209.149 162.706 205.461 168.908 202.72 175.542C200.98 169.297 200.347 162.796 200.85 156.333C198.4 156.134 171.667 138.408 160.411 131.825C157.971 133.475 155.891 135.604 154.299 138.083C152.706 140.562 151.635 143.338 151.149 146.244L190.599 170.244L193.705 165.77C192.979 167.556 192.573 169.457 192.505 171.384C192.391 175.26 193.645 180.93 198.318 190.884C202.878 192.252 210.318 190.143 215.988 186.866C215.731 183.303 217.47 178.943 218.781 175.296C217.774 174.559 216.717 173.892 215.617 173.301C232.336 174.402 248.068 173.156 265.224 171.068Z" fill="#F2A83B"/>
<path d="M126.237 197.258C117.572 196.579 108.878 196.342 100.189 196.545C100.732 194.699 101.056 192.795 101.158 190.874C94.0334 192.726 87.1364 192.783 77.9609 191.474V191.36C73.6979 194.18 69.9764 204.179 72.6494 211.529L65.2499 227.156L44.1614 213.701C37.8059 217.662 34.6139 222.735 32.2769 230.516L58.8659 248.726C60.6493 249.95 62.672 250.783 64.8006 251.169C66.9292 251.555 69.1155 251.485 71.2154 250.965C73.3152 250.446 75.2812 249.488 76.984 248.153C78.6867 246.819 80.0876 245.14 81.0944 243.225L89.5874 227.067L78.8684 218.88C80.4402 219.798 82.1283 220.5 83.8874 220.968C92.6369 223.391 105.432 222.422 114.037 221.367C111.506 231.435 109.528 241.634 108.111 251.918C113.537 255.568 120.154 257.006 126.606 255.936C131.426 242.427 135.499 228.663 138.805 214.706C139.549 211.712 139.29 208.557 138.068 205.724C136.846 202.891 134.729 200.538 132.04 199.025C130.257 198.021 128.277 197.418 126.237 197.258Z" fill="#F2A83B"/>
<path d="M251.032 108.854C250.71 108.527 250.297 108.304 249.847 108.214C249.397 108.124 248.93 108.171 248.506 108.348C248.225 108.465 247.969 108.637 247.755 108.854L247.155 109.454L246.555 108.854C246.116 108.439 245.533 108.212 244.929 108.221C244.326 108.229 243.749 108.473 243.322 108.9C242.896 109.327 242.652 109.904 242.644 110.507C242.635 111.111 242.863 111.694 243.277 112.133L247.177 116.009L251.025 112.133C251.352 111.81 251.575 111.398 251.666 110.948C251.757 110.498 251.712 110.031 251.536 109.607C251.42 109.325 251.248 109.069 251.032 108.854Z" fill="#F2A83B"/>
<path d="M87.8491 275.571L83.8876 274.973L82.1206 271.41L80.3536 274.973L76.3936 275.571L79.2721 278.336L78.5881 282.269L82.1206 280.416L85.6546 282.269L84.9706 278.336L87.8491 275.571Z" fill="#F2A83B"/>
<path d="M206.888 150.656L203.888 153.506C204.165 152.715 204.338 151.89 204.401 151.055C205.242 151.014 206.076 150.881 206.888 150.656Z" fill="#EF853B"/>
<path d="M219.371 173.49C219.171 174.06 218.972 174.659 218.744 175.29C217.737 174.553 216.68 173.886 215.58 173.295C216.863 173.348 218.117 173.433 219.371 173.49Z" fill="#EF853B"/>
<path d="M242.568 126.182C237.9 122.306 225.242 133.193 225.242 133.193C227.577 121.679 210.479 131.543 204.722 137.154C207.686 134.789 210.051 139.917 209.795 142.824C209.795 143.51 210.165 143.652 211.22 142.911C213.414 141.315 214.982 145.106 210.849 146.871C210.572 147.171 210.368 147.531 210.249 147.921C209.492 150.072 209.442 152.409 210.107 154.59C229.287 150.663 247.214 130.029 242.568 126.182Z" fill="#EF853B"/>
<path d="M209.624 213.615L207.344 215.582L205.349 207.117L209.624 213.615Z" fill="#EF853B"/>
<path d="M147.012 80.9822C144.728 80.9822 142.494 81.6596 140.595 82.9287C138.696 84.1979 137.215 86.0017 136.341 88.1122C135.467 90.2227 135.238 92.545 135.684 94.7855C136.13 97.026 137.23 99.084 138.845 100.699C140.46 102.315 142.518 103.415 144.759 103.86C146.999 104.306 149.321 104.077 151.432 103.203C153.542 102.329 155.346 100.848 156.615 98.949C157.885 97.0496 158.562 94.8166 158.562 92.5322C158.566 90.2466 157.89 88.0115 156.622 86.1104C155.353 84.2094 153.548 82.7283 151.435 81.8552C150.033 81.276 148.53 80.9793 147.012 80.9822ZM147.297 99.5642C147.297 99.6398 147.267 99.7123 147.213 99.7657C147.16 99.8192 147.088 99.8492 147.012 99.8492C146.974 99.8514 146.936 99.8455 146.9 99.8319C146.865 99.8184 146.832 99.7975 146.806 99.7706C146.779 99.7436 146.758 99.7113 146.744 99.6758C146.731 99.6402 146.725 99.6022 146.727 99.5642V90.6152C146.727 90.5397 146.757 90.4675 146.811 90.4141C146.864 90.3607 146.936 90.3306 147.012 90.3302C147.05 90.328 147.088 90.3339 147.124 90.3475C147.159 90.361 147.191 90.3819 147.218 90.4088C147.245 90.4358 147.266 90.468 147.28 90.5036C147.293 90.5392 147.299 90.5772 147.297 90.6152V99.5642ZM146.214 86.2847C146.223 86.0753 146.312 85.8775 146.464 85.7325C146.615 85.5875 146.817 85.5066 147.026 85.5066C147.236 85.5066 147.437 85.5875 147.589 85.7325C147.74 85.8775 147.829 86.0753 147.838 86.2847C147.829 86.4941 147.74 86.6919 147.589 86.8369C147.437 86.9819 147.236 87.0628 147.026 87.0628C146.817 87.0628 146.615 86.9819 146.464 86.8369C146.312 86.6919 146.223 86.4941 146.214 86.2847Z" fill="#EF853B"/>
<path d="M78.7007 218.774L89.5877 227.067L92.1242 222.279C87.4396 222.159 82.8459 220.959 78.7007 218.774Z" fill="#EF853B"/>
<path d="M88.1055 155.963L84.6855 153.656C85.668 153.774 86.6595 153.812 87.6495 153.77C87.7275 154.514 87.8805 155.249 88.1055 155.963Z" fill="#EF853B"/>
<path d="M193.665 165.767C192.939 167.553 192.533 169.454 192.465 171.381L190.556 170.213L193.665 165.767Z" fill="#EF853B"/>
<path d="M102.697 165.966C102.952 167.208 103.132 168.465 103.239 169.728C103.78 169.472 104.379 169.158 104.977 168.845L102.697 165.966Z" fill="#EF853B"/>
<path d="M110.476 254.255C109.822 256.136 108.994 258.017 108.426 259.668C108.868 261.565 109.558 263.395 110.476 265.112C113.355 270.441 116.233 280.901 118.513 283.523C119.767 279.789 121.107 270.414 121.99 265.14C117.542 262.217 113.644 258.532 110.476 254.255Z" fill="#EF853B"/>
<path d="M34.614 211.449C32.6698 211.364 30.7231 211.546 28.8285 211.991C22.9005 213.359 12.0435 213.359 8.93701 214.869C12.186 217.092 20.877 220.883 25.722 223.106C29.7271 219.573 34.3309 216.784 39.3165 214.869C37.635 213.729 36.039 212.447 34.614 211.449Z" fill="#EF853B"/>
<path d="M85.2553 137.756C84.3148 136.217 82.2553 136.302 82.4623 137.471C81.1813 136.331 78.9583 136.871 79.2133 138.183C77.6758 136.929 75.8803 137.927 76.2493 139.124C74.9113 138.098 73.4578 139.124 73.9138 140.349C72.0043 139.523 70.4083 140.949 72.6598 143.199C73.6288 144.168 77.8453 147.302 80.2108 151.263C80.3561 150.693 80.3426 150.095 80.1718 149.532C80.0009 148.969 79.6793 148.464 79.2418 148.071C76.9048 146.304 78.5008 144.197 79.9828 145.649C81.2938 146.931 80.8678 145.049 79.9258 143.369C80.1208 143.537 80.3552 143.654 80.6073 143.708C80.8594 143.763 81.1211 143.752 81.3682 143.679C81.6153 143.605 81.8399 143.47 82.0212 143.287C82.2024 143.103 82.3345 142.877 82.4053 142.629C82.5922 142.77 82.8076 142.869 83.0365 142.919C83.2655 142.968 83.5024 142.967 83.7309 142.915C83.9594 142.864 84.1739 142.763 84.3594 142.62C84.545 142.477 84.6971 142.296 84.8053 142.088C85.8553 142.827 87.2848 142.373 87.3418 141.261C86.7088 140.175 85.9963 138.978 85.2553 137.756Z" fill="#EF853B"/>
<path d="M77.8502 175.826L75.7712 178.505C75.4862 177.395 75.2012 176.31 74.8877 175.257C75.8522 175.428 77.8502 175.826 77.8502 175.826Z" fill="#EF853B"/>
<path d="M48.7768 168.788C48.767 169.038 48.6607 169.275 48.4802 169.448C48.2997 169.622 48.059 169.719 47.8086 169.719C47.5582 169.719 47.3175 169.622 47.137 169.448C46.9565 169.275 46.8502 169.038 46.8403 168.788C46.8502 168.537 46.9565 168.301 47.137 168.127C47.3175 167.954 47.5582 167.857 47.8086 167.857C48.059 167.857 48.2997 167.954 48.4802 168.127C48.6607 168.301 48.767 168.537 48.7768 168.788Z" fill="#EF853B"/>
<path d="M61.773 160.238C61.773 160.495 61.6709 160.741 61.4891 160.923C61.3074 161.105 61.061 161.207 60.804 161.207C60.547 161.207 60.3005 161.105 60.1188 160.923C59.9371 160.741 59.835 160.495 59.835 160.238C59.835 159.981 59.9371 159.734 60.1188 159.552C60.3005 159.371 60.547 159.269 60.804 159.269C61.061 159.269 61.3074 159.371 61.4891 159.552C61.6709 159.734 61.773 159.981 61.773 160.238Z" fill="#EF853B"/>
<path d="M74.2276 169.757C74.2276 170.014 74.1254 170.261 73.9435 170.442C73.7617 170.624 73.515 170.726 73.2578 170.726C73.0006 170.726 72.754 170.624 72.5721 170.442C72.3903 170.261 72.2881 170.014 72.2881 169.757C72.2881 169.5 72.3903 169.253 72.5721 169.071C72.754 168.889 73.0006 168.787 73.2578 168.787C73.515 168.787 73.7617 168.889 73.9435 169.071C74.1254 169.253 74.2276 169.5 74.2276 169.757Z" fill="#EF853B"/>
<path d="M91.212 172.464C91.212 172.721 91.1098 172.968 90.9279 173.15C90.7461 173.332 90.4994 173.434 90.2422 173.434C89.985 173.434 89.7384 173.332 89.5565 173.15C89.3746 172.968 89.2725 172.721 89.2725 172.464C89.2725 172.207 89.3746 171.96 89.5565 171.779C89.7384 171.597 89.985 171.495 90.2422 171.495C90.4994 171.495 90.7461 171.597 90.9279 171.779C91.1098 171.96 91.212 172.207 91.212 172.464Z" fill="#EF853B"/>
<path d="M100.05 157.644C100.05 157.901 99.9477 158.148 99.7658 158.33C99.584 158.512 99.3373 158.614 99.0801 158.614C98.8229 158.614 98.5763 158.512 98.3944 158.33C98.2125 158.148 98.1104 157.901 98.1104 157.644C98.1104 157.387 98.2125 157.14 98.3944 156.958C98.5763 156.777 98.8229 156.674 99.0801 156.674C99.3373 156.674 99.584 156.777 99.7658 156.958C99.9477 157.14 100.05 157.387 100.05 157.644Z" fill="#EF853B"/>
<path d="M116.576 157.445C116.576 157.702 116.474 157.948 116.292 158.13C116.11 158.312 115.864 158.414 115.607 158.414C115.35 158.414 115.103 158.312 114.922 158.13C114.74 157.948 114.638 157.702 114.638 157.445C114.638 157.188 114.74 156.941 114.922 156.76C115.103 156.578 115.35 156.476 115.607 156.476C115.864 156.476 116.11 156.578 116.292 156.76C116.474 156.941 116.576 157.188 116.576 157.445Z" fill="#EF853B"/>
<path d="M122.162 144.308C122.162 144.565 122.06 144.811 121.878 144.993C121.696 145.175 121.45 145.277 121.193 145.277C120.936 145.277 120.689 145.175 120.507 144.993C120.326 144.811 120.224 144.565 120.224 144.308C120.224 144.051 120.326 143.804 120.507 143.623C120.689 143.441 120.936 143.339 121.193 143.339C121.45 143.339 121.696 143.441 121.878 143.623C122.06 143.804 122.162 144.051 122.162 144.308Z" fill="#EF853B"/>
<path d="M84.0586 185.772C84.0586 186.029 83.9565 186.276 83.7748 186.457C83.5931 186.639 83.3466 186.741 83.0896 186.741C82.8326 186.741 82.5861 186.639 82.4044 186.457C82.2227 186.276 82.1206 186.029 82.1206 185.772C82.1206 185.515 82.2227 185.269 82.4044 185.087C82.5861 184.905 82.8326 184.803 83.0896 184.803C83.3466 184.803 83.5931 184.905 83.7748 185.087C83.9565 185.269 84.0586 185.515 84.0586 185.772Z" fill="#EF853B"/>
<path d="M99.0782 184.803C99.0782 185.06 98.976 185.307 98.7941 185.489C98.6123 185.671 98.3656 185.773 98.1084 185.773C97.8512 185.773 97.6046 185.671 97.4227 185.489C97.2408 185.307 97.1387 185.06 97.1387 184.803C97.1387 184.546 97.2408 184.299 97.4227 184.118C97.6046 183.936 97.8512 183.833 98.1084 183.833C98.3656 183.833 98.6123 183.936 98.7941 184.118C98.976 184.299 99.0782 184.546 99.0782 184.803Z" fill="#EF853B"/>
<path d="M265.708 155.849C264.711 155.906 262.944 155.991 262.545 156.02C263.286 153.656 264.6 153.626 265.708 155.849Z" fill="#EF853B"/>
<path d="M266.621 169.529C265.908 171.467 264.74 171.552 263.742 169.757C264.569 169.706 265.566 169.614 266.621 169.529Z" fill="#EF853B"/>
<path d="M161.775 137.156C161.78 137.286 161.759 137.417 161.713 137.539C161.666 137.661 161.596 137.772 161.505 137.867C161.415 137.961 161.306 138.036 161.186 138.087C161.065 138.138 160.936 138.164 160.805 138.164C160.675 138.164 160.545 138.138 160.425 138.087C160.305 138.036 160.196 137.961 160.106 137.867C160.015 137.772 159.945 137.661 159.898 137.539C159.852 137.417 159.831 137.286 159.836 137.156C159.846 136.905 159.952 136.668 160.133 136.494C160.314 136.32 160.555 136.223 160.805 136.223C161.056 136.223 161.297 136.32 161.478 136.494C161.659 136.668 161.765 136.905 161.775 137.156Z" fill="#EF853B"/>
<path d="M259.04 159.582C259.04 159.839 258.938 160.085 258.756 160.267C258.574 160.448 258.328 160.55 258.071 160.55C257.814 160.55 257.568 160.448 257.387 160.267C257.205 160.085 257.103 159.839 257.103 159.582C257.103 159.325 257.205 159.079 257.387 158.897C257.568 158.716 257.814 158.614 258.071 158.614C258.328 158.614 258.574 158.716 258.756 158.897C258.938 159.079 259.04 159.325 259.04 159.582Z" fill="#EF853B"/>
<path d="M236.269 223.476C236.261 221.838 236.166 220.202 235.984 218.574L244.221 210.936L236.269 223.476Z" fill="#EF853B"/>
<path d="M156.132 262.235C144.999 263.625 133.695 262.425 123.102 258.729" stroke="#E8612A" stroke-width="0.5" stroke-linecap="round" stroke-linejoin="round"/>
<path d="M213.215 219.056C206.346 235.142 193.869 248.186 178.104 255.762" stroke="#E8612A" stroke-width="0.5" stroke-linecap="round" stroke-linejoin="round"/>
<path d="M217.774 177.963C218.406 181.368 218.776 184.818 218.886 188.28" stroke="#E8612A" stroke-width="0.5" stroke-linecap="round" stroke-linejoin="round"/>
<path d="M158.27 119.826C174.903 122.441 190.086 130.825 201.159 143.51" stroke="#E8612A" stroke-width="0.5" stroke-linecap="round" stroke-linejoin="round"/>
<path d="M140.97 119.199C144.214 118.939 147.471 118.891 150.72 119.057C151.29 119.087 151.889 119.114 152.459 119.171" stroke="#E8612A" stroke-width="0.5" stroke-linecap="round" stroke-linejoin="round"/>
<path d="M90.1289 146.814C100.741 133.114 115.94 123.703 132.934 120.311" stroke="#E8612A" stroke-width="0.5" stroke-linecap="round" stroke-linejoin="round"/>
<path d="M75.1681 194.408C75.0517 191.996 75.0612 189.58 75.1966 187.169C75.3331 184.601 75.6001 182.043 75.9946 179.502" stroke="#E8612A" stroke-width="0.5" stroke-linecap="round" stroke-linejoin="round"/>
<path d="M108.253 251.49C100.003 246.2 92.9154 239.287 87.4214 231.171" stroke="#E8612A" stroke-width="0.5" stroke-linecap="round" stroke-linejoin="round"/>
<path d="M204.408 151.032C205.237 151.007 206.06 150.883 206.859 150.662L203.895 153.483" stroke="#E8612A" stroke-width="0.5" stroke-linecap="round" stroke-linejoin="round"/>
<path d="M278.676 158.756L284.29 156.191C287.851 154.566 287.89 152.834 283.635 154.196C283.377 154.278 277.051 156.159 276.054 156.305C275.284 156.417 273.954 156.531 273.804 156.02C273.232 154.07 275.604 148.802 273.946 148.268C272.865 147.921 271.017 151.32 269.842 153.768C269.02 155.481 267.592 155.763 265.71 155.849" stroke="#E8612A" stroke-width="0.5" stroke-linecap="round" stroke-linejoin="round"/>
<path d="M277.65 158.87C277.65 158.87 286.2 157.82 286.77 157.73C291.213 157.083 290.902 158.76 287.112 159.81C283.492 160.812 279.132 162.06 279.132 162.06" stroke="#E8612A" stroke-width="0.5" stroke-linecap="round" stroke-linejoin="round"/>
<path d="M277.65 162.033C280.455 162.117 283.261 162.041 286.057 161.805C290.53 161.456 290.046 162.945 286.257 163.886C283.919 164.525 281.538 164.991 279.132 165.282" stroke="#E8612A" stroke-width="0.5" stroke-linecap="round" stroke-linejoin="round"/>
<path d="M266.621 169.529C266.621 169.529 272.805 169.124 274.002 169.016C276.309 168.806 278.679 168.438 280.985 168.132C281.929 168.005 282.869 167.855 283.806 167.682C287.799 166.932 288.393 165.45 283.863 165.573C281.432 165.631 279.002 165.401 276.624 164.889" stroke="#E8612A" stroke-width="0.5" stroke-linecap="round" stroke-linejoin="round"/>
<path d="M277.479 157.502C277.912 161.052 277.139 164.644 275.285 167.702" stroke="#E8612A" stroke-width="0.5" stroke-linecap="round" stroke-linejoin="round"/>
<path d="M274.116 157.445C273.448 159.214 272.418 160.824 271.094 162.174C269.769 163.523 268.177 164.582 266.421 165.282" stroke="#E8612A" stroke-width="0.5" stroke-linecap="round" stroke-linejoin="round"/>
<path d="M219.389 173.502C219.189 174.072 218.99 174.671 218.762 175.302C217.28 174.305 216.023 173.66 215.598 173.307C216.881 173.36 218.135 173.445 219.389 173.502Z" stroke="#E8612A" stroke-width="0.5" stroke-linecap="round" stroke-linejoin="round"/>
<path d="M190.559 170.241L193.665 165.767C192.858 167.53 192.438 169.445 192.435 171.384" stroke="#E8612A" stroke-width="0.5" stroke-linecap="round" stroke-linejoin="round"/>
<path d="M200.85 156.333C201.88 156.333 203.212 155.448 203.899 153.483C204.176 152.692 204.348 151.868 204.412 151.032C201.733 151.061 198.292 149.682 202.189 140.916C203.028 139.032 204.655 136.151 206.677 136.592C208.644 137.022 209.994 140.504 209.827 142.742C209.76 143.703 210.427 143.468 211.218 142.905C213.426 141.327 214.98 145.098 210.847 146.865C210.573 147.167 210.367 147.525 210.247 147.915C209.181 152.415 209.143 156.122 213.667 157.149" stroke="#E8612A" stroke-width="0.5" stroke-linecap="round" stroke-linejoin="round"/>
<path d="M204.75 137.156C210.507 131.541 227.607 121.68 225.27 133.194C225.27 133.194 237.921 122.309 242.596 126.183C247.246 130.032 229.344 150.663 210.165 154.596" stroke="#E8612A" stroke-width="0.5" stroke-linecap="round" stroke-linejoin="round"/>
<path d="M265.224 171.068C261.85 171.068 260.527 154.461 263.941 154.196C245.641 156.146 226.663 159.198 213.67 157.131C209.149 162.706 205.461 168.908 202.72 175.542C200.98 169.297 200.347 162.796 200.85 156.333C198.4 156.134 171.667 138.408 160.411 131.825C157.971 133.475 155.891 135.604 154.299 138.083C152.706 140.562 151.635 143.338 151.149 146.244L192.439 171.384C192.429 171.845 192.439 172.328 192.465 172.844C192.676 176.666 194.139 182.109 198.256 190.874C203.349 192.393 211.242 189.596 215.983 186.855C215.683 182.69 218.11 177.435 219.393 173.505C234.724 174.206 249.366 172.991 265.224 171.068Z" stroke="#E8612A" stroke-width="0.5" stroke-linecap="round" stroke-linejoin="round"/>
<path d="M198.281 190.874L173.658 217.235C169.211 221.985 165.967 227.731 164.198 233.993L154.992 266.166C157.533 268.41 160.579 270.005 163.87 270.815C167.162 271.625 170.601 271.625 173.892 270.816L183.342 236.583C211.307 212.106 206.516 216.29 209.618 213.614L224.865 236.84C225.761 238.201 226.942 239.352 228.325 240.213C229.709 241.075 231.263 241.626 232.88 241.83C234.497 242.034 236.139 241.885 237.692 241.392C239.246 240.9 240.674 240.076 241.878 238.977L270.69 212.673C269.933 209.407 268.417 206.365 266.264 203.793C264.112 201.222 261.384 199.194 258.302 197.874L235.979 218.574C235.979 218.574 232.131 193.182 215.945 186.855" stroke="#E8612A" stroke-width="0.5" stroke-linecap="round" stroke-linejoin="round"/>
<path d="M207.344 215.582L205.349 207.117L209.624 213.615" stroke="#E8612A" stroke-width="0.5" stroke-linecap="round" stroke-linejoin="round"/>
<path d="M156.788 267.534C155.664 273.579 153.946 279.498 151.658 285.204C149.487 290.103 147.786 294.491 148.409 295.236C150.59 297.845 158.009 286.577 163.514 283.694C164.825 283.043 165.997 282.143 166.964 281.043C168.897 278.76 167.817 276.113 170.069 271.353" stroke="#E8612A" stroke-width="0.5" stroke-linecap="round" stroke-linejoin="round"/>
<path d="M269.528 209.169C274.246 205.152 279.195 201.413 284.348 197.97C288.821 195.005 292.611 192.213 292.497 191.273C292.094 187.91 279.732 193.359 273.575 192.84C272.111 192.687 270.631 192.813 269.214 193.211C266.364 194.072 265.994 196.773 261.519 199.595" stroke="#E8612A" stroke-width="0.5" stroke-linecap="round" stroke-linejoin="round"/>
<path d="M150.546 128.576C150.546 122.276 155.445 110.531 157.357 109.568C157.434 109.533 157.52 109.53 157.599 109.558C157.677 109.587 157.741 109.645 157.777 109.721C157.801 109.77 157.812 109.826 157.807 109.881C157.152 116.61 152.787 128.103 158.871 132.944" stroke="#E8612A" stroke-width="0.5" stroke-linecap="round" stroke-linejoin="round"/>
<path d="M151.885 143.367C149.691 141.885 146.595 139.317 146.698 136.812C146.985 129.888 146.941 126.638 146.955 123.902C146.965 121.878 148.557 121.82 149.634 125.327C150.579 128.403 151.572 132.737 151.572 132.737" stroke="#E8612A" stroke-width="0.5" stroke-linecap="round" stroke-linejoin="round"/>
<path d="M156.474 117.86C157.074 116.862 157.724 115.835 157.985 115.41C159.89 112.311 160.655 113.07 160.493 113.643C159.858 115.884 158.327 119.256 157.814 121.337C157.049 124.398 155.747 128.672 158.174 132.308" stroke="#E8612A" stroke-width="0.5" stroke-linecap="round" stroke-linejoin="round"/>
<path d="M127.377 219.206C127.377 219.206 121.706 220.431 114.039 221.372" stroke="#E8612A" stroke-width="0.5" stroke-linecap="round" stroke-linejoin="round"/>
<path d="M75.0825 194.55C75.8229 193.316 76.8008 192.241 77.9595 191.387V191.501C87.1365 192.812 94.0335 192.755 101.159 190.901C101.057 192.822 100.732 194.726 100.19 196.572C108.878 196.373 117.572 196.611 126.237 197.285C128.275 197.442 130.254 198.042 132.036 199.043C133.817 200.045 135.359 201.423 136.553 203.082C137.746 204.741 138.564 206.641 138.948 208.648C139.332 210.656 139.273 212.723 138.776 214.706C135.475 228.666 131.403 242.433 126.579 255.944C120.127 257.013 113.509 255.576 108.083 251.925C109.501 241.641 111.48 231.443 114.011 221.375C105.405 222.425 92.6115 223.389 83.8605 220.976C78.675 219.546 74.448 216.561 72.6105 211.485C70.512 205.725 72.402 198.738 75.0825 194.55Z" stroke="#E8612A" stroke-width="0.5" stroke-linecap="round" stroke-linejoin="round"/>
<path d="M100.218 196.602C98.793 196.631 97.3965 196.688 96 196.745" stroke="#E8612A" stroke-width="0.5" stroke-linecap="round" stroke-linejoin="round"/>
<path d="M92.0999 222.278L81.0899 243.225C79.5727 246.111 77.1744 248.437 74.2437 249.866C71.3131 251.294 68.0031 251.75 64.7954 251.168C62.6671 250.782 60.6447 249.95 58.8614 248.726L32.2769 230.516C34.6169 222.726 37.8134 217.65 44.1839 213.687L65.2214 227.156L72.6314 211.481" stroke="#E8612A" stroke-width="0.5" stroke-linecap="round" stroke-linejoin="round"/>
<path d="M78.729 218.774L89.5875 227.067" stroke="#E8612A" stroke-width="0.5" stroke-linecap="round" stroke-linejoin="round"/>
<path d="M88.1055 155.963L84.6855 153.626C85.6705 153.736 86.6629 153.765 87.6525 153.711" stroke="#E8612A" stroke-width="0.5" stroke-linecap="round" stroke-linejoin="round"/>
<path d="M94.4894 156.675C93.9764 156.989 93.4634 157.275 92.9504 157.587C92.3933 158.025 91.704 158.261 90.9954 158.255C90.2869 158.25 89.6011 158.005 89.0504 157.559C88.1768 156.464 87.6872 155.112 87.6569 153.711C92.2409 153.443 92.5214 150.36 87.3404 141.23C87.286 141.495 87.1622 141.742 86.9817 141.944C86.8012 142.146 86.5703 142.297 86.3126 142.381C86.0548 142.465 85.7795 142.479 85.5145 142.422C85.2495 142.365 85.0043 142.239 84.8039 142.056C84.7015 142.27 84.5521 142.457 84.367 142.604C84.1818 142.752 83.9658 142.855 83.7349 142.908C83.5041 142.96 83.2644 142.959 83.0339 142.905C82.8034 142.851 82.5881 142.746 82.4039 142.598C82.333 142.846 82.2009 143.072 82.0196 143.255C81.8384 143.438 81.614 143.573 81.367 143.647C81.12 143.721 80.8584 143.731 80.6063 143.677C80.3542 143.623 80.1197 143.507 79.9244 143.339C80.8934 145.019 81.2924 146.9 79.9814 145.617C78.4994 144.165 76.9034 146.301 79.2419 148.041C79.6796 148.434 80.0014 148.939 80.1722 149.501C80.343 150.064 80.3564 150.662 80.2109 151.232C81.563 153.204 82.1034 155.621 81.7199 157.982C81.4634 159.182 79.7534 160.119 77.6699 159.578C80.1554 164.043 85.2704 168.158 90.2444 166.4C95.7179 164.472 94.4894 156.675 94.4894 156.675Z" stroke="#E8612A" stroke-width="0.5" stroke-linecap="round" stroke-linejoin="round"/>
<path d="M129.9 133.256C136.939 127.932 137.217 116.676 137.217 108.605C137.217 108.348 137.586 108.005 137.785 108.155C139.566 109.313 141.934 121.314 141.364 127.629" stroke="#E8612A" stroke-width="0.5" stroke-linecap="round" stroke-linejoin="round"/>
<path d="M137.978 142.826C139.997 142.012 141.67 140.521 142.709 138.608C144.879 133.778 145.638 128.433 144.9 123.189C144.513 120.912 143.331 121.109 142.307 124.557C141.393 127.635 139.97 131.768 139.97 131.768" stroke="#E8612A" stroke-width="0.5" stroke-linecap="round" stroke-linejoin="round"/>
<path d="M129.782 133.181C131.744 130.781 133.59 126.521 133.505 124.272C133.274 121.751 132.836 119.254 132.194 116.805C132.065 116.205 132.813 115.407 134.987 119.505" stroke="#E8612A" stroke-width="0.5" stroke-linecap="round" stroke-linejoin="round"/>
<path d="M103.239 169.728C103.132 168.465 102.951 167.208 102.697 165.966L104.944 168.806" stroke="#E8612A" stroke-width="0.5" stroke-linecap="round" stroke-linejoin="round"/>
<path d="M101.187 190.902H101.216C102.441 183.663 103.781 176.339 103.239 169.728C114.62 163.758 129.084 152.186 138.039 144.308C139.055 143.292 135.498 138.795 134.52 137.642C133.517 136.458 129.593 132.101 128.208 132.794C117.747 141.787 106.468 149.782 94.5181 156.675" stroke="#E8612A" stroke-width="0.5" stroke-linecap="round" stroke-linejoin="round"/>
<path d="M123.7 256.307C122.966 259.216 122.404 262.166 122.019 265.142C117.559 262.221 113.659 258.524 110.505 254.226C110.619 253.977 110.715 253.721 110.79 253.457" stroke="#E8612A" stroke-width="0.5" stroke-linecap="round" stroke-linejoin="round"/>
<path d="M110.476 265.106C109.558 263.389 108.868 261.559 108.426 259.662C107.941 260.808 107.686 262.039 107.676 263.283C108.034 265.057 108.659 266.767 109.528 268.355C112.464 273.827 115.399 285.284 117.508 285.141C117.822 285.113 118.164 284.514 118.506 283.517C116.262 280.901 113.383 270.441 110.476 265.106Z" stroke="#E8612A" stroke-width="0.5" stroke-linecap="round" stroke-linejoin="round"/>
<path d="M110.476 254.255C109.822 256.136 108.994 258.017 108.426 259.668C108.868 261.565 109.558 263.395 110.476 265.112C113.355 270.441 116.233 280.901 118.513 283.523C119.767 279.789 121.107 270.414 121.99 265.14C117.542 262.217 113.644 258.532 110.476 254.255Z" stroke="#E8612A" stroke-width="0.5" stroke-linecap="round" stroke-linejoin="round"/>
<path d="M33.5027 226.896C30.9879 225.477 28.3896 224.211 25.7222 223.106C29.7162 219.58 34.3112 216.799 39.2882 214.898C40.0577 215.411 40.1717 215.61 40.9127 216.038" stroke="#E8612A" stroke-width="0.5" stroke-linecap="round" stroke-linejoin="round"/>
<path d="M31.3365 209.796C29.5297 209.661 27.7127 209.806 25.95 210.225C19.908 211.62 8.05353 211.392 7.65003 213.473C7.59303 213.786 8.07753 214.271 8.93253 214.869C12.039 213.359 22.896 213.359 28.8525 212.019C30.7469 211.573 32.6939 211.391 34.638 211.479C33.6628 210.701 32.5396 210.128 31.3365 209.796Z" stroke="#E8612A" stroke-width="0.5" stroke-linecap="round" stroke-linejoin="round"/>
<path d="M34.614 211.449C32.6698 211.364 30.7231 211.546 28.8285 211.991C22.9005 213.359 12.0435 213.359 8.93701 214.869C12.186 217.092 20.877 220.883 25.722 223.106C29.7271 219.573 34.3309 216.784 39.3165 214.869C37.635 213.729 36.039 212.447 34.614 211.449Z" stroke="#E8612A" stroke-width="0.5" stroke-linecap="round" stroke-linejoin="round"/>
<path d="M16.5182 170.669C15.2248 171.098 13.9247 171.506 12.6182 171.894C9.99471 172.686 9.02721 172.208 11.6492 170.412C14.1283 168.729 16.8637 167.458 19.7492 166.65" stroke="#E8612A" stroke-width="0.5" stroke-linecap="round" stroke-linejoin="round"/>
<path d="M22.3592 163.344C21.5678 164.117 20.8515 164.963 20.2202 165.872C19.0871 167.569 18.3208 169.485 17.9702 171.495" stroke="#E8612A" stroke-width="0.5" stroke-linecap="round" stroke-linejoin="round"/>
<path d="M15.5205 168.218C6.03002 171.552 4.83902 169.997 12.7845 166.365C15.8502 165.053 19.0417 164.057 22.3095 163.392" stroke="#E8612A" stroke-width="0.5" stroke-linecap="round" stroke-linejoin="round"/>
<path d="M34.107 170.724C30.1365 170.502 21.6645 171.983 15.5205 174.024C12.8415 174.908 11.409 174.324 14.3805 172.086C15.6325 171.15 16.974 170.341 18.3855 169.67" stroke="#E8612A" stroke-width="0.5" stroke-linecap="round" stroke-linejoin="round"/>
<path d="M17.6568 164.541C14.4663 165.282 7.19425 165.555 18.5118 161.891C20.2788 161.319 22.4118 160.841 24.4113 160.409C24.5242 159.666 24.3942 158.906 24.0408 158.243C22.8408 156.233 23.2458 155.417 25.2093 156.618C27.7013 158.314 30.6601 159.191 33.6738 159.126" stroke="#E8612A" stroke-width="0.5" stroke-linecap="round" stroke-linejoin="round"/>
<path d="M24.4109 160.406C24.3985 161.158 24.5415 161.905 24.8309 162.6C25.1204 163.294 25.5501 163.922 26.0931 164.443C26.6362 164.963 27.2809 165.367 27.9869 165.627C28.693 165.887 29.4452 165.999 30.1964 165.956" stroke="#E8612A" stroke-width="0.5" stroke-linecap="round" stroke-linejoin="round"/>
<path d="M87.3362 141.258C87.2792 142.37 85.8542 142.826 84.7997 142.085C84.6918 142.293 84.5397 142.474 84.3542 142.618C84.1686 142.761 83.9541 142.861 83.7255 142.913C83.497 142.965 83.2599 142.966 83.0309 142.916C82.8019 142.867 82.5865 142.768 82.3997 142.626C82.3283 142.874 82.1958 143.099 82.0145 143.282C81.8332 143.465 81.6088 143.6 81.3619 143.673C81.1151 143.747 80.8537 143.757 80.6018 143.703C80.3499 143.65 80.1155 143.534 79.9202 143.366C80.8607 145.047 81.2882 146.93 79.9772 145.646C78.4952 144.194 76.9052 146.295 79.2362 148.068C79.6745 148.461 79.9966 148.966 80.1674 149.529C80.3383 150.091 80.3514 150.69 80.2052 151.26C77.8412 147.3 73.6232 144.165 72.6542 143.196C70.4042 140.946 71.9987 139.52 73.9082 140.346C73.4582 139.121 74.9057 138.096 76.2437 139.121C75.8732 137.921 77.6702 136.926 79.2077 138.18C78.9512 136.869 81.1742 136.328 82.4567 137.468C82.2572 136.299 84.3137 136.211 85.2497 137.753C85.9997 138.975 87.3362 141.258 87.3362 141.258Z" stroke="#E8612A" stroke-width="0.5" stroke-linecap="round" stroke-linejoin="round"/>
<path d="M75.7667 178.505L77.8502 175.826C76.8257 175.628 75.8567 175.427 74.8877 175.257" stroke="#E8612A" stroke-width="0.5" stroke-linecap="round" stroke-linejoin="round"/>
<path d="M77.6762 159.582C77.3057 159.44 59.3762 154.766 34.1867 157.182C32.8206 162.283 32.977 167.673 34.6367 172.686C48.1058 171.591 61.6626 172.457 74.8832 175.256C76.4888 180.505 77.5203 185.913 77.9597 191.385" stroke="#E8612A" stroke-width="0.5" stroke-linecap="round" stroke-linejoin="round"/>
<path d="M60.0344 126.923C60.1011 127.695 59.9375 128.47 59.5641 129.149C59.1907 129.828 58.6243 130.381 57.9366 130.738C57.2489 131.096 56.4706 131.241 55.7002 131.156C54.9299 131.071 54.2019 130.76 53.6085 130.262C53.015 129.763 52.5827 129.1 52.3661 128.356C52.1495 127.611 52.1584 126.82 52.3917 126.081C52.6249 125.342 53.0721 124.688 53.6766 124.203C54.2811 123.718 55.0158 123.423 55.7879 123.356C56.8234 123.269 57.8512 123.595 58.6468 124.263C59.4425 124.932 59.9413 125.888 60.0344 126.923Z" stroke="#E8612A" stroke-width="0.5" stroke-linecap="round" stroke-linejoin="round"/>
<path d="M216.264 262.805H203.923" stroke="#E8612A" stroke-width="0.5" stroke-linecap="round" stroke-linejoin="round"/>
<path d="M210.095 268.988V256.62" stroke="#E8612A" stroke-width="0.5" stroke-linecap="round" stroke-linejoin="round"/>
<path d="M43.1999 156.59C41.8049 161.793 42.0659 167.3 43.9409 172.35" stroke="#E8612A" stroke-width="0.5" stroke-linecap="round" stroke-linejoin="round"/>
<path d="M122.85 137.297C127.134 140.161 130.621 144.066 132.986 148.644" stroke="#E8612A" stroke-width="0.5" stroke-linecap="round" stroke-linejoin="round"/>
<path d="M265.708 155.849C264.711 155.906 262.944 155.991 262.545 156.02C263.286 153.656 264.6 153.626 265.708 155.849Z" stroke="#E8612A" stroke-width="0.5" stroke-linecap="round" stroke-linejoin="round"/>
<path d="M266.621 169.529C265.908 171.467 264.74 171.552 263.742 169.757C264.569 169.706 265.566 169.614 266.621 169.529Z" stroke="#E8612A" stroke-width="0.5" stroke-linecap="round" stroke-linejoin="round"/>
<path d="M211.79 188.906C223.332 197.006 226.49 207.005 231.339 224.756C231.509 225.375 231.835 225.941 232.285 226.399C232.735 226.857 233.295 227.192 233.912 227.373C234.528 227.553 235.18 227.572 235.806 227.429C236.432 227.286 237.012 226.985 237.489 226.556L264.6 201.989" stroke="#E8612A" stroke-width="0.5" stroke-linecap="round" stroke-linejoin="round"/>
<path d="M166.962 271.325L176.793 233.651L205.69 208.542" stroke="#E8612A" stroke-width="0.5" stroke-linecap="round" stroke-linejoin="round"/>
<path d="M93.2639 195.434C92.1727 197.28 90.7011 198.873 88.9468 200.106C87.1925 201.339 85.1958 202.185 83.0894 202.587" stroke="#E8612A" stroke-width="0.5" stroke-linecap="round" stroke-linejoin="round"/>
<path d="M109.65 242.199C112.535 244.28 115.821 245.738 119.3 246.479C122.779 247.221 126.374 247.23 129.856 246.506" stroke="#E8612A" stroke-width="0.5" stroke-linecap="round" stroke-linejoin="round"/>
<path d="M51.855 218.606C46.2705 222.368 42.705 228.467 40.542 236.156" stroke="#E8612A" stroke-width="0.5" stroke-linecap="round" stroke-linejoin="round"/>
<path d="M244.221 210.936L236.271 223.476C236.262 221.838 236.167 220.202 235.986 218.574" stroke="#E8612A" stroke-width="0.5" stroke-linecap="round" stroke-linejoin="round"/>
<path d="M129.909 133.256C133.992 130.178 134.987 125.606 135.129 121.446C134.837 118.537 134.342 115.652 133.647 112.812C133.557 112.242 134.36 111.558 135.984 114.836L136.925 116.882" stroke="#E8612A" stroke-width="0.5" stroke-linecap="round" stroke-linejoin="round"/>
<path d="M147.012 80.9822C144.728 80.9822 142.494 81.6596 140.595 82.9287C138.696 84.1979 137.215 86.0017 136.341 88.1122C135.467 90.2227 135.238 92.545 135.684 94.7855C136.13 97.026 137.23 99.084 138.845 100.699C140.46 102.315 142.518 103.415 144.759 103.86C146.999 104.306 149.321 104.077 151.432 103.203C153.542 102.329 155.346 100.848 156.615 98.949C157.885 97.0496 158.562 94.8166 158.562 92.5322C158.566 90.2466 157.89 88.0115 156.622 86.1104C155.353 84.2094 153.548 82.7283 151.435 81.8552C150.033 81.276 148.53 80.9793 147.012 80.9822Z" stroke="#E8612A" stroke-width="0.5" stroke-linejoin="round"/>
<path d="M145.887 86.2592C145.887 86.5575 146.006 86.8437 146.217 87.0546C146.428 87.2656 146.714 87.3842 147.012 87.3842C147.311 87.3842 147.597 87.2656 147.808 87.0546C148.019 86.8437 148.137 86.5575 148.137 86.2592C148.137 85.9608 148.019 85.6746 147.808 85.4637C147.597 85.2527 147.311 85.1342 147.012 85.1342C146.714 85.1342 146.428 85.2527 146.217 85.4637C146.006 85.6746 145.887 85.9608 145.887 86.2592Z" stroke="#E8612A" stroke-width="0.5" stroke-linejoin="round"/>
<path d="M147.562 90.4307C147.562 90.2815 147.503 90.1384 147.398 90.0329C147.292 89.9274 147.149 89.8682 147 89.8682C146.851 89.8682 146.708 89.9274 146.602 90.0329C146.497 90.1384 146.438 90.2815 146.438 90.4307H147.562ZM146.438 99.7127C146.438 99.8618 146.497 100.005 146.602 100.11C146.708 100.216 146.851 100.275 147 100.275C147.149 100.275 147.292 100.216 147.398 100.11C147.503 100.005 147.562 99.8618 147.562 99.7127H146.438ZM146.438 90.4307V99.7127H147.562V90.4307H146.438Z" fill="#E8612A"/>
</svg>
