<svg width="300" height="789" viewBox="0 0 300 789" fill="none" xmlns="http://www.w3.org/2000/svg">
<rect y="0.305664" width="300" height="788" rx="16" fill="#FFFCEA"/>
<path d="M142.79 179.589C133.413 184.377 120.104 202.161 120.104 202.161L103.887 183.006C96.6967 185.285 90.592 190.123 86.7305 196.603L108.533 221.313C110.902 223.992 114.149 225.74 117.69 226.241C121.232 226.742 124.836 225.965 127.856 224.049L155.306 206.578L141.113 220.087L136.382 283.813C143.655 286.569 151.704 286.457 158.897 283.5L165.138 186.087C160.26 188.994 147.834 184.806 142.79 179.589Z" fill="#F2A83B"/>
<path d="M159.861 167.818C158.69 167.818 157.566 168.284 156.738 169.112C155.909 169.94 155.444 171.064 155.444 172.236C155.444 173.407 155.909 174.531 156.738 175.359C157.566 176.188 158.69 176.653 159.861 176.653C161.033 176.653 162.157 176.188 162.985 175.359C163.813 174.531 164.279 173.407 164.279 172.236C164.279 171.064 163.813 169.94 162.985 169.112C162.157 168.284 161.033 167.818 159.861 167.818Z" fill="#F2A83B"/>
<path d="M195.486 267.739C195.485 271.38 196.758 274.908 199.085 277.708C201.412 280.509 204.646 282.407 208.226 283.072V317.187H213.954V283.072C217.533 282.404 220.765 280.505 223.092 277.705C225.418 274.905 226.692 271.38 226.694 267.739H195.486ZM211.076 278.626C210.69 278.626 210.309 278.55 209.953 278.402C209.596 278.255 209.273 278.038 209 277.766C208.728 277.493 208.512 277.17 208.364 276.813C208.217 276.457 208.141 276.075 208.141 275.69C208.141 275.304 208.217 274.923 208.365 274.567C208.512 274.21 208.729 273.887 209.001 273.614C209.274 273.342 209.598 273.126 209.954 272.978C210.31 272.831 210.692 272.755 211.077 272.755C211.856 272.755 212.602 273.065 213.153 273.615C213.703 274.166 214.012 274.913 214.012 275.691C214.012 276.47 213.702 277.217 213.152 277.767C212.601 278.317 211.854 278.626 211.076 278.626Z" fill="#F2A83B"/>
<path d="M93.2568 317.106C93.4018 315.309 93.9892 313.576 94.9668 312.061C98.8398 306.276 101.807 301.411 101.807 287.409H81.8853C81.8853 300.459 84.3798 305.109 88.5828 311.805C89.6487 313.384 90.2959 315.208 90.4637 317.106C90.3498 321.694 89.8638 323.319 85.3053 324.915H98.4153C93.8838 323.314 93.3138 321.69 93.2568 317.106ZM88.2978 302.314L89.5518 298.153L86.0748 295.531L90.4353 295.446L91.8603 291.342L93.2853 295.446L97.6458 295.531L94.1688 298.153L95.4228 302.314L91.8603 299.835L88.2978 302.314Z" fill="#F2A83B"/>
<path d="M155.273 206.578L141.08 220.087L141.422 215.385L155.273 206.578Z" fill="#EF853B"/>
<path d="M156.9 307.611C155.169 300.094 154.725 292.339 155.586 284.674C150.686 286.029 145.526 286.144 140.57 285.01C140.908 288.582 140.49 292.184 139.344 295.584C141.339 297.882 145.389 298.947 146.213 307.639C146.333 308.851 146.898 309.975 147.797 310.796C148.697 311.617 149.868 312.076 151.086 312.085H166.334C165.167 310.715 163.722 309.608 162.096 308.837C160.47 308.066 158.699 307.648 156.9 307.611Z" fill="#EF853B"/>
<path d="M91.8 172.635C80.6565 170.782 63.414 169.956 56.916 172.635C63.0905 177.003 69.7473 180.647 76.755 183.493C79.4115 184.213 81.843 185.593 83.823 187.506L89.0385 193.377C92.2332 189.189 96.4817 185.924 101.351 183.915L91.8 172.635Z" fill="#EF853B"/>
<path d="M156.327 143.479L158.493 145.959C158.567 145.39 158.717 144.835 158.943 144.309C158.047 144.117 157.171 143.839 156.327 143.479Z" fill="#EF853B"/>
<path d="M147.6 126.18C139.854 134.388 152.08 141.541 153 142.056C152.968 139.733 152.749 137.417 152.344 135.13C149.209 134.08 150.663 130.371 152.772 131.83C153.438 132.361 154.132 132.676 154.254 131.83C155.137 126.472 159.213 125.047 161.778 130.006C158.293 122.959 153.639 120.429 147.6 126.18Z" fill="#EF853B"/>
<path d="M148.262 116.29C147.356 115.541 146.251 115.072 145.083 114.943C143.915 114.813 142.734 115.028 141.686 115.561C140.639 116.094 139.77 116.921 139.186 117.942C138.603 118.962 138.331 120.131 138.403 121.304C138.475 122.477 138.889 123.604 139.594 124.545C140.298 125.486 141.262 126.2 142.367 126.6C143.473 127 144.671 127.068 145.814 126.796C146.958 126.524 147.997 125.923 148.803 125.068C149.854 123.814 150.384 122.204 150.283 120.571C150.183 118.938 149.459 117.406 148.262 116.29Z" fill="#EF853B"/>
<path d="M123.666 157.9C123.409 160.465 123.922 162.55 125.176 162.973C126.658 163.458 128.34 162.147 129.879 160.066C127.785 159.411 125.713 158.689 123.666 157.9Z" fill="#EF853B"/>
<path d="M142.533 168.616L140.795 171.039C140.423 169.936 140.023 168.843 139.595 167.761C140.624 168.046 141.621 168.331 142.533 168.616Z" fill="#EF853B"/>
<path d="M161.771 64.4487V99.0762C184.656 107.398 207.542 90.7542 230.427 99.0762V64.4487C207.542 56.1267 184.65 72.7707 161.771 64.4487Z" fill="#EF853B"/>
<path d="M230.427 128.089V150.889" stroke="#E8612A" stroke-width="0.5" stroke-linecap="round" stroke-linejoin="round"/>
<path d="M230.427 58.8057V111.759" stroke="#E8612A" stroke-width="0.5" stroke-linecap="round" stroke-linejoin="round"/>
<path d="M163.652 147.897L159.861 167.818L146.238 148.381" stroke="#E8612A" stroke-width="0.5" stroke-linecap="round" stroke-linejoin="round"/>
<path d="M142.789 179.589C133.413 184.377 120.103 202.161 120.103 202.161L103.887 183.006C96.6962 185.285 90.5915 190.123 86.73 196.603L108.48 221.313C110.85 223.99 114.096 225.737 117.636 226.238C121.177 226.739 124.78 225.963 127.8 224.049L141.423 215.385L136.35 283.813C143.639 286.546 151.691 286.423 158.893 283.471L165.135 186.087" stroke="#E8612A" stroke-width="0.5" stroke-linecap="round" stroke-linejoin="round"/>
<path d="M155.273 206.578L141.08 220.087L141.422 215.385L155.273 206.578Z" stroke="#E8612A" stroke-width="0.5" stroke-linecap="round" stroke-linejoin="round"/>
<path d="M168.183 315.091C167.742 313.993 167.115 312.978 166.331 312.091H151.112C149.896 312.077 148.727 311.616 147.828 310.796C146.93 309.977 146.364 308.855 146.238 307.645C146.045 304.501 144.947 301.479 143.075 298.945C142.389 298.12 140.339 296.665 139.37 295.582C137.973 300.456 139.106 300.148 140.624 301.966C142.503 304.483 143.603 307.495 143.787 310.63C143.897 311.842 144.454 312.971 145.349 313.795C146.245 314.619 147.415 315.081 148.632 315.09L168.183 315.091Z" stroke="#E8612A" stroke-width="0.5" stroke-linecap="round" stroke-linejoin="round"/>
<path d="M155.583 284.674C154.727 292.33 155.171 300.075 156.897 307.582C158.692 307.616 160.458 308.032 162.08 308.801C163.701 309.57 165.141 310.675 166.302 312.043H151.083C149.866 312.039 148.694 311.583 147.794 310.764C146.893 309.946 146.329 308.822 146.21 307.611C146.034 304.463 144.934 301.436 143.046 298.911C142.343 298.075 140.282 296.631 139.341 295.548C139.484 295.063 139.626 294.55 139.826 293.952C140.573 291.043 140.826 288.03 140.576 285.037" stroke="#E8612A" stroke-width="0.5" stroke-linecap="round" stroke-linejoin="round"/>
<path d="M101.351 183.921L91.8 172.635C80.6565 170.782 63.414 169.956 56.916 172.635C63.093 176.999 69.7493 180.643 76.755 183.493C79.413 184.212 81.8445 185.593 83.823 187.506L89.0385 193.377" stroke="#E8612A" stroke-width="0.5" stroke-linecap="round" stroke-linejoin="round"/>
<path d="M56.919 172.635C55.6753 171.76 54.4587 170.848 53.271 169.899C59.571 166.878 77.895 167.476 89.2095 169.557L91.8 172.635" stroke="#E8612A" stroke-width="0.5" stroke-linecap="round" stroke-linejoin="round"/>
<path d="M158.493 145.956L156.3 143.479C157.158 143.832 158.045 144.109 158.951 144.306" stroke="#E8612A" stroke-width="0.5" stroke-linecap="round" stroke-linejoin="round"/>
<path d="M76.2419 131.106C76.1849 131.191 73.6919 129.346 70.6844 127.056C67.3154 124.506 67.6334 122.868 72.0239 125.203C74.1898 126.492 76.5615 127.398 79.0349 127.882" stroke="#E8612A" stroke-width="0.5" stroke-linecap="round" stroke-linejoin="round"/>
<path d="M80.7737 125.581C80.7737 125.581 73.2737 120.252 72.7937 119.881C69.2882 117.202 68.2412 118.393 70.9127 121.392C73.3697 124.15 76.6982 127.32 76.6982 127.32" stroke="#E8612A" stroke-width="0.5" stroke-linecap="round" stroke-linejoin="round"/>
<path d="M132.273 144.847C113.805 138.321 93.9675 128.947 93.8265 128.887C92.301 128.238 90.7485 126.294 91.0335 124.837C91.5195 122.358 92.6025 118.818 91.347 118.567C89.439 118.188 88.2975 123.526 86.502 124.752C85.875 125.179 84.081 123.867 83.4525 123.27C82.4025 122.269 78.837 118.908 78.4935 118.567C75.3435 115.446 74.2935 116.835 76.584 119.821C77.7758 121.318 78.7724 122.96 79.5495 124.708" stroke="#E8612A" stroke-width="0.5" stroke-linecap="round" stroke-linejoin="round"/>
<path d="M82.1129 124.156C79.7355 126.329 78.1929 129.265 77.7524 132.456" stroke="#E8612A" stroke-width="0.5" stroke-linecap="round" stroke-linejoin="round"/>
<path d="M83.5095 126.606C82.5405 130.168 83.1675 133.104 86.1885 134.928" stroke="#E8612A" stroke-width="0.5" stroke-linecap="round" stroke-linejoin="round"/>
<path d="M171.974 161.377C172.196 163.03 172.253 164.701 172.145 166.365" stroke="#E8612A" stroke-width="0.5" stroke-linecap="round" stroke-linejoin="round"/>
<path d="M152.964 142.083C145.754 138.033 141.831 131.688 148.803 125.04C154.902 119.824 159.491 125.296 161.771 129.999" stroke="#E8612A" stroke-width="0.5" stroke-linecap="round" stroke-linejoin="round"/>
<path d="M148.262 116.29C147.356 115.541 146.251 115.072 145.083 114.943C143.915 114.813 142.734 115.028 141.686 115.561C140.639 116.094 139.77 116.921 139.186 117.942C138.603 118.962 138.331 120.131 138.403 121.304C138.475 122.477 138.889 123.604 139.594 124.545C140.298 125.486 141.262 126.2 142.367 126.6C143.473 127 144.671 127.068 145.814 126.796C146.958 126.524 147.997 125.923 148.803 125.068C149.854 123.814 150.384 122.204 150.283 120.571C150.183 118.938 149.459 117.406 148.262 116.29Z" stroke="#E8612A" stroke-width="0.5" stroke-linecap="round" stroke-linejoin="round"/>
<path d="M125.233 163.002C123.976 162.573 123.408 160.452 123.668 157.885" stroke="#E8612A" stroke-width="0.5" stroke-linecap="round" stroke-linejoin="round"/>
<path d="M129.879 160.066C114.252 155.083 88.4073 142.206 78.6363 136.525C76.5828 135.325 74.4978 134.197 72.4233 133.048C71.5767 132.582 70.7405 132.098 69.9153 131.595C66.4008 129.444 66.5808 128.089 70.9983 129.771C72.6666 130.395 74.3954 130.844 76.1568 131.11H76.1853C76.7703 131.209 77.3598 131.266 77.9523 131.281" stroke="#E8612A" stroke-width="0.5" stroke-linecap="round" stroke-linejoin="round"/>
<path d="M228.375 123.529C225.555 123.289 225.497 119.877 228.233 119.91C230.256 119.935 231.71 120.024 233.306 120.109C236.013 120.259 235.956 123.859 233.733 123.928C231.942 123.885 230.153 123.751 228.375 123.529Z" stroke="#E8612A" stroke-width="0.5" stroke-linecap="round" stroke-linejoin="round"/>
<path d="M230.484 112.101C231.482 112.072 232.194 112.087 233.163 112.072C235.728 112.035 235.814 115.672 233.705 115.863C232.613 115.936 231.519 115.936 230.427 115.863" stroke="#E8612A" stroke-width="0.5" stroke-linecap="round" stroke-linejoin="round"/>
<path d="M227.691 127.405C224.984 127.095 224.984 123.786 227.634 123.9C229.601 123.985 230.996 124.111 232.536 124.242C235.128 124.461 235.016 127.947 232.878 127.947C231.567 127.947 230.199 127.693 227.691 127.405Z" stroke="#E8612A" stroke-width="0.5" stroke-linecap="round" stroke-linejoin="round"/>
<path d="M230.4 115.956C231.45 115.984 232.338 116.068 233.364 116.098C236.1 116.179 236.157 119.832 233.877 119.974C232.509 120.06 231.056 119.856 228.434 119.718C228.14 119.722 227.85 119.656 227.587 119.525C227.325 119.393 227.098 119.2 226.926 118.962C226.753 118.724 226.641 118.449 226.599 118.158C226.556 117.868 226.584 117.571 226.68 117.294C226.811 116.922 227.057 116.604 227.384 116.383" stroke="#E8612A" stroke-width="0.5" stroke-linecap="round" stroke-linejoin="round"/>
<path d="M177.702 140.287C198.792 129.315 223.701 109.87 227.064 110.106C231.026 110.383 230.673 110.556 230.313 117.345C230.225 118.995 227.349 119.169 226.836 113.895C227.264 117.945 225.411 120.706 222.675 121.59" stroke="#E8612A" stroke-width="0.5" stroke-linecap="round" stroke-linejoin="round"/>
<path d="M232.365 127.918C228.774 128.26 224.214 128.203 218.258 132.568C208.097 140.026 197.505 146.878 186.537 153.088" stroke="#E8612A" stroke-width="0.5" stroke-linecap="round" stroke-linejoin="round"/>
<path d="M139.65 167.781C140.676 168.094 141.626 168.331 142.566 168.588L140.823 171.006" stroke="#E8612A" stroke-width="0.5" stroke-linecap="round" stroke-linejoin="round"/>
<path d="M139.65 167.781C141.127 171.6 142.184 175.569 142.8 179.617C147.845 184.833 160.271 188.994 165.15 186.087C168.057 176.487 171.705 173.233 172.161 166.365C177.633 163.6 183.59 160.323 187.038 157.188C187.038 150.861 183.191 143.388 177.719 140.287C173.169 143.063 168.479 145.603 163.668 147.897C161.958 148.639 161.217 148.866 160.368 148.552C157.49 150.006 153.414 149.635 149.766 148.467C149.204 148.641 148.611 148.69 148.028 148.609C142.671 147.885 137.401 146.624 132.296 144.847C137.055 146.725 130.409 164.29 125.256 162.997C129.997 164.76 134.798 166.355 139.65 167.781Z" stroke="#E8612A" stroke-width="0.5" stroke-linecap="round" stroke-linejoin="round"/>
<path d="M160.35 148.552C159.821 148.35 159.362 147.996 159.033 147.535C158.703 147.073 158.517 146.525 158.498 145.959C158.573 145.392 158.724 144.837 158.948 144.309C164.939 145.242 164.403 136.183 161.769 130.002C159.204 125.043 155.07 126.459 154.245 131.826C154.115 132.675 153.345 132.34 152.735 131.854C150.626 130.401 149.172 134.104 152.307 135.154C152.717 137.44 152.936 139.758 152.963 142.08C152.948 144.987 152.478 147.63 149.742 148.464" stroke="#E8612A" stroke-width="0.5" stroke-linecap="round" stroke-linejoin="round"/>
<path d="M122.469 343.806V315.135H180.381V343.806" stroke="#E8612A" stroke-width="0.5" stroke-linecap="round" stroke-linejoin="round"/>
<path d="M64.5571 343.806V329.47H122.469V343.806" stroke="#E8612A" stroke-width="0.5" stroke-linecap="round" stroke-linejoin="round"/>
<path d="M180.381 343.806V322.716H238.322V343.806" stroke="#E8612A" stroke-width="0.5" stroke-linecap="round" stroke-linejoin="round"/>
<path d="M161.771 64.4487V99.0762C184.656 107.398 207.542 90.7542 230.427 99.0762V64.4487C207.542 56.1267 184.65 72.7707 161.771 64.4487Z" stroke="#E8612A" stroke-width="0.5" stroke-linecap="round" stroke-linejoin="round"/>
<path d="M222.105 317.187V322.716H200.018V317.187H222.105Z" stroke="#E8612A" stroke-width="0.5" stroke-linecap="round" stroke-linejoin="round"/>
<path d="M195.486 267.739C195.494 271.378 196.771 274.9 199.096 277.699C201.421 280.498 204.65 282.398 208.226 283.072V317.187H213.954V283.072C217.535 282.409 220.771 280.512 223.098 277.711C225.426 274.909 226.698 271.381 226.694 267.739H195.486Z" stroke="#E8612A" stroke-width="0.5" stroke-linecap="round" stroke-linejoin="round"/>
<path d="M199.79 278.484C196.868 278.598 193.97 277.913 191.408 276.502C188.847 275.09 186.719 273.007 185.255 270.475H195.75" stroke="#E8612A" stroke-width="0.5" stroke-linecap="round" stroke-linejoin="round"/>
<path d="M222.476 278.484C225.398 278.598 228.296 277.913 230.857 276.502C233.419 275.09 235.546 273.007 237.011 270.475H226.551" stroke="#E8612A" stroke-width="0.5" stroke-linecap="round" stroke-linejoin="round"/>
<path d="M209.936 195.235C209.937 196.227 209.643 197.198 209.092 198.023C208.541 198.848 207.757 199.491 206.84 199.87C205.846 200.282 204.745 200.363 203.702 200.102C202.658 199.841 201.726 199.251 201.043 198.419C200.36 197.587 199.963 196.558 199.91 195.483C199.857 194.408 200.151 193.345 200.749 192.45C201.346 191.555 202.216 190.876 203.229 190.514C204.242 190.151 205.345 190.124 206.375 190.436C207.405 190.748 208.307 191.383 208.948 192.247C209.589 193.112 209.936 194.159 209.936 195.235Z" stroke="#E8612A" stroke-width="0.5" stroke-linecap="round" stroke-linejoin="round"/>
<path d="M214.028 275.694C214.027 276.128 213.931 276.557 213.745 276.949C213.559 277.342 213.288 277.688 212.953 277.964C212.617 278.24 212.224 278.437 211.803 278.543C211.382 278.649 210.942 278.66 210.516 278.575C209.947 278.461 209.424 278.181 209.013 277.77C208.603 277.359 208.323 276.836 208.209 276.267C208.095 275.697 208.152 275.106 208.375 274.569C208.597 274.033 208.974 273.574 209.457 273.252C210.022 272.874 210.7 272.703 211.377 272.77C212.053 272.837 212.685 273.136 213.165 273.618C213.716 274.168 214.026 274.915 214.028 275.694Z" stroke="#E8612A" stroke-width="0.5" stroke-linecap="round" stroke-linejoin="round"/>
<path d="M115.158 94.6017V104.833" stroke="#E8612A" stroke-width="0.5" stroke-linecap="round" stroke-linejoin="round"/>
<path d="M120.275 99.7182H110.015" stroke="#E8612A" stroke-width="0.5" stroke-linecap="round" stroke-linejoin="round"/>
<path d="M92.1737 245.167L88.6396 253.047H95.0807L91.5466 260.928" stroke="#E8612A" stroke-width="0.5" stroke-linecap="round" stroke-linejoin="round"/>
<path d="M98.25 185.406L115.515 205.78C118.593 209.542 121.015 209.4 123.751 205.809C128.851 199.111 138.173 187.398 145.952 182.154" stroke="#E8612A" stroke-width="0.5" stroke-linecap="round" stroke-linejoin="round"/>
<path d="M95.9072 186.856L114.974 208.83C115.593 209.548 116.367 210.118 117.238 210.495C118.108 210.873 119.052 211.05 120 211.012C120.948 210.973 121.875 210.721 122.712 210.274C123.549 209.827 124.275 209.197 124.835 208.431C130.359 200.875 139.911 188.766 147.977 183.351" stroke="#E8612A" stroke-width="0.5" stroke-linecap="round" stroke-linejoin="round"/>
<path d="M148.803 210.825L143.445 285.523" stroke="#E8612A" stroke-width="0.5" stroke-linecap="round" stroke-linejoin="round"/>
<path d="M99.0991 329.356H84.6211L85.3051 324.91H98.4151L99.0991 329.356Z" stroke="#E8612A" stroke-width="0.5" stroke-linecap="round" stroke-linejoin="round"/>
<path d="M85.9892 307.668C82.2557 307.668 73.6772 303.037 73.6772 290.782H81.9707" stroke="#E8612A" stroke-width="0.5" stroke-linecap="round" stroke-linejoin="round"/>
<path d="M94.1687 298.149L95.4227 302.31L91.8602 299.83L88.2977 302.31L89.5517 298.149L86.0747 295.527L90.4352 295.413L91.8602 291.309L93.2852 295.413L97.6457 295.527L94.1687 298.149Z" stroke="#E8612A" stroke-width="0.5" stroke-linecap="round" stroke-linejoin="round"/>
<path d="M98.4151 324.906C93.8836 323.31 93.2851 321.685 93.2566 317.097C93.3979 315.299 93.9856 313.565 94.9666 312.052C99.0301 305.92 101.807 301.072 101.807 287.4H81.9136C81.9136 300.45 84.4081 305.1 88.6111 311.796C89.6798 313.373 90.3273 315.198 90.4921 317.097C90.3961 321.685 89.8921 323.31 85.3336 324.906H98.4151Z" stroke="#E8612A" stroke-width="0.5" stroke-linecap="round" stroke-linejoin="round"/>
<path d="M97.8452 307.668C101.607 307.668 110.015 303.018 110.015 290.767H101.75" stroke="#E8612A" stroke-width="0.5" stroke-linecap="round" stroke-linejoin="round"/>
<path d="M260.694 343.806H39.3062" stroke="#E8612A" stroke-width="0.5" stroke-linecap="round" stroke-linejoin="round"/>
<path d="M159.861 167.818C158.69 167.818 157.566 168.284 156.738 169.112C155.909 169.94 155.444 171.064 155.444 172.236C155.444 173.407 155.909 174.531 156.738 175.359C157.566 176.188 158.69 176.653 159.861 176.653C161.033 176.653 162.157 176.188 162.985 175.359C163.813 174.531 164.279 173.407 164.279 172.236C164.279 171.064 163.813 169.94 162.985 169.112C162.157 168.284 161.033 167.818 159.861 167.818Z" stroke="#E8612A" stroke-width="0.5"/>
</svg>
