<svg width="300" height="780" viewBox="0 0 300 780" fill="none" xmlns="http://www.w3.org/2000/svg">
<rect y="0.305664" width="300" height="779" rx="16" fill="#FFFCEA"/>
<path d="M174.918 191.225L160.218 187.719L96.4813 121.88C86.6264 126.797 78.5049 134.602 73.1998 144.254L100.02 173.382L69.1813 166.032C63.0823 175.494 60.4603 185.442 61.8313 195.987L140.04 216.822C146.587 223.922 149.731 227.94 155.971 231.522C162.384 235.199 172.818 239.282 184.36 236.261C185.808 236.064 179.592 204.656 174.918 191.225Z" fill="#F2A83B"/>
<path d="M212.055 85.4551L203.989 68.5546C203.121 66.7284 201.731 65.2006 199.994 64.1642C198.258 63.1278 196.253 62.6293 194.233 62.7316C192.892 62.8005 191.578 63.1328 190.365 63.7096L182.043 67.6696L198.886 103.041L207.21 99.0796C208.424 98.5049 209.514 97.6964 210.415 96.7003C211.317 95.7042 212.013 94.5401 212.464 93.2746C212.915 92.0086 213.111 90.6659 213.04 89.324C212.97 87.982 212.635 86.6672 212.055 85.4551ZM201.88 87.5926C201.88 87.6676 201.85 87.7411 201.796 87.7936C201.77 87.8201 201.739 87.8411 201.704 87.8555C201.67 87.8698 201.633 87.8772 201.595 87.8772C201.558 87.8772 201.521 87.8698 201.487 87.8555C201.452 87.8411 201.421 87.8201 201.394 87.7936C201.368 87.7673 201.347 87.736 201.332 87.7015C201.318 87.667 201.311 87.63 201.31 87.5926V81.2056L197.064 83.0866C197.021 83.1022 196.974 83.1076 196.929 83.1025C196.883 83.0973 196.839 83.0818 196.801 83.057C196.762 83.0322 196.729 82.9988 196.706 82.9595C196.682 82.9202 196.667 82.8759 196.663 82.8301V76.0216C196.663 75.9841 196.671 75.947 196.685 75.9123C196.699 75.8776 196.72 75.8461 196.746 75.8196C196.773 75.7931 196.805 75.7722 196.839 75.7579C196.874 75.7437 196.911 75.7364 196.948 75.7366C197.023 75.7366 197.097 75.7666 197.149 75.8206C197.176 75.8469 197.197 75.8782 197.212 75.9127C197.226 75.9472 197.233 75.9842 197.233 76.0216V82.4056L201.481 80.5246C201.523 80.5076 201.569 80.5013 201.613 80.5062C201.658 80.5112 201.701 80.5273 201.738 80.5531C201.778 80.5771 201.813 80.6101 201.837 80.6491C201.862 80.6887 201.877 80.7341 201.88 80.7811V87.5926Z" fill="#F2A83B"/>
<path d="M235.084 162.296C235.251 162.986 235.269 163.706 235.141 164.405C237.112 163.528 238.908 162.301 240.442 160.785C238.703 161.442 236.911 161.947 235.084 162.296Z" fill="#EF853B"/>
<path d="M178.908 187.064C175.687 179.255 169.074 166.086 163.288 167.597C159.498 168.594 157.845 175.805 158.415 185.897L160.182 187.721L174.889 191.226C174.338 189.422 173.572 187.69 172.609 186.068C174.6 186.437 176.85 186.75 178.908 187.064Z" fill="#EF853B"/>
<path d="M71.0014 95.2306C68.5504 99.5926 67.5814 115.268 65.0734 123.704C64.1006 126.81 63.4699 130.013 63.1924 133.256C64.5389 135.477 66.2545 137.453 68.2654 139.098C70.8766 132.603 74.6423 126.634 79.3804 121.481C76.4674 113.982 77.1409 105.464 71.0014 95.2306Z" fill="#EF853B"/>
<path d="M55.8962 173.582C49.2677 168.665 45.6587 161.406 34.8047 155.855C35.0612 160.842 42.6137 174.636 44.9792 183.101C45.8034 186.244 46.9793 189.285 48.4847 192.165C50.8105 193.323 53.3171 194.075 55.8962 194.388C54.6512 187.508 54.6512 180.461 55.8962 173.582Z" fill="#EF853B"/>
<path d="M211.913 162.239C211.029 170.561 215.447 172.242 219.893 165.26C217.099 164.648 214.41 163.63 211.913 162.239Z" fill="#EF853B"/>
<path d="M217.698 148.329C219.123 149.013 221.46 149.583 222.03 149.184L222.885 147.104C221.517 145.451 219.437 146.456 217.698 148.329Z" fill="#EF853B"/>
<path d="M246.15 143.342C244.898 138.704 241.448 133.167 233.525 126.299C231.74 133.108 230.36 140.017 229.392 146.99C233.138 146.059 236.989 145.618 240.849 145.679C241.191 144.938 241.91 145.724 242.816 148.329C242.846 148.415 242.93 148.643 243.015 148.929C243.199 148.868 243.393 148.849 243.585 148.872C243.484 147.586 243.351 146.304 243.186 145.025C242.346 138.297 244.31 137.363 246.093 144.113C246.206 144.54 246.435 145.709 246.693 147.134C246.667 145.852 246.484 144.579 246.15 143.342Z" fill="#EF853B"/>
<path d="M242.323 191.795L240.898 201.57C240.898 201.57 245.145 196.155 246.627 193.62L242.323 191.795Z" fill="#EF853B"/>
<path d="M92.976 263.504L122.39 269.232L94.8285 244.694L65.415 238.964L92.976 263.504Z" fill="#EF853B"/>
<path d="M122.333 269.232L149.75 251.249L117.6 247.344L106.17 254.84L122.333 269.232Z" fill="#EF853B"/>
<path d="M92.976 263.504L122.39 269.232L94.8285 244.694L65.415 238.964L92.976 263.504Z" stroke="#E8612A" stroke-width="0.5" stroke-linejoin="round"/>
<path d="M122.332 269.232L149.749 251.249L117.6 247.344L106.17 254.84L122.332 269.232Z" stroke="#E8612A" stroke-width="0.5" stroke-linejoin="round"/>
<path d="M117.687 143.769C128.359 139.486 139.916 137.878 151.352 139.086C162.788 140.293 173.755 144.278 183.297 150.695" stroke="#E8612A" stroke-width="0.5" stroke-linecap="round" stroke-linejoin="round"/>
<path d="M85.5376 169.934C87.1068 167.595 88.8096 165.35 90.6376 163.208" stroke="#E8612A" stroke-width="0.5" stroke-linecap="round" stroke-linejoin="round"/>
<path d="M74.3641 199.323C73.9293 202.525 73.7103 205.753 73.7086 208.985C73.6855 220.586 76.5484 232.01 82.0396 242.229" stroke="#E8612A" stroke-width="0.5" stroke-linecap="round" stroke-linejoin="round"/>
<path d="M212.597 224.4C210.01 235.91 204.569 246.585 196.775 255.44C188.98 264.296 179.083 271.048 167.994 275.075C157.049 279.047 145.288 280.239 133.769 278.544C122.249 276.848 111.331 272.318 101.994 265.361" stroke="#E8612A" stroke-width="0.5" stroke-linecap="round" stroke-linejoin="round"/>
<path d="M213.508 75.1096C217.869 72.3736 223.684 71.0026 228.643 72.7726C236.853 75.7036 240.994 85.5436 238.96 93.7201C237.06 101.361 231.01 108.002 226.903 114.527C219.981 125.531 217.153 133.709 221.232 146.277" stroke="#E8612A" stroke-width="0.5" stroke-linecap="round" stroke-linejoin="round"/>
<path d="M206.668 74.1406L210.174 81.4651L212.653 80.2651C213.325 79.9388 213.842 79.3617 214.093 78.6581C214.343 77.9544 214.307 77.1805 213.993 76.5031L212.943 74.2801C212.616 73.6084 212.039 73.0918 211.336 72.8413C210.632 72.5908 209.858 72.6264 209.181 72.9406L206.668 74.1406Z" stroke="#E8612A" stroke-width="0.5" stroke-linecap="round" stroke-linejoin="round"/>
<path d="M198.915 103.041L182.072 67.6696L165.369 75.6226L182.214 110.993L198.915 103.041Z" stroke="#E8612A" stroke-width="0.5" stroke-linecap="round" stroke-linejoin="round"/>
<path d="M212.083 85.4551L204.018 68.5261C202.853 66.0773 200.764 64.1912 198.209 63.2827C195.654 62.3741 192.843 62.5174 190.393 63.6811L182.071 67.6696L198.915 103.041L207.238 99.0796C208.451 98.5037 209.539 97.6942 210.438 96.6977C211.338 95.7011 212.033 94.5368 212.482 93.2716C212.933 92.0065 213.13 90.6649 213.061 89.3236C212.993 87.9824 212.66 86.6678 212.083 85.4551Z" stroke="#E8612A" stroke-width="0.5" stroke-linecap="round" stroke-linejoin="round"/>
<path d="M197.484 76.0396C197.484 75.8904 197.425 75.7473 197.319 75.6418C197.214 75.5363 197.071 75.4771 196.921 75.4771C196.772 75.4771 196.629 75.5363 196.524 75.6418C196.418 75.7473 196.359 75.8904 196.359 76.0396H197.484ZM196.921 82.6966H196.359C196.359 82.7888 196.381 82.8796 196.424 82.9611C196.468 83.0426 196.53 83.1121 196.607 83.1636C196.683 83.2151 196.771 83.2469 196.863 83.2562C196.955 83.2655 197.048 83.2521 197.133 83.2171L196.921 82.6966ZM201.562 80.8216H202.125C202.125 80.7296 202.102 80.6392 202.059 80.5581C202.015 80.477 201.953 80.4077 201.877 80.3563C201.801 80.3048 201.713 80.2728 201.622 80.2629C201.53 80.253 201.438 80.2656 201.352 80.2996L201.562 80.8216ZM201 87.6181C201 87.7672 201.059 87.9103 201.165 88.0158C201.27 88.1213 201.413 88.1806 201.562 88.1806C201.712 88.1806 201.855 88.1213 201.96 88.0158C202.066 87.9103 202.125 87.7672 202.125 87.6181H201ZM196.359 76.0396V82.6966H197.484V76.0396H196.359ZM197.133 83.2171L201.772 81.3421L201.352 80.2996L196.711 82.1746L197.133 83.2171ZM201 80.8216V87.6181H202.125V80.8216H201Z" fill="#E8612A"/>
<path d="M182.214 110.993L165.369 75.6226L148.668 83.5741L165.511 118.944L182.214 110.993Z" stroke="#E8612A" stroke-width="0.5" stroke-linecap="round" stroke-linejoin="round"/>
<path d="M136.012 100.932C135.436 99.7193 135.104 98.4048 135.035 97.0637C134.967 95.7226 135.163 94.3811 135.613 93.1159C136.063 91.8507 136.758 90.6866 137.658 89.69C138.558 88.6934 139.646 87.8838 140.859 87.3076L148.668 83.5741L165.511 118.944L157.702 122.678C156.49 123.254 155.175 123.586 153.834 123.655C152.494 123.723 151.152 123.527 149.887 123.077C148.622 122.627 147.458 121.932 146.461 121.033C145.465 120.133 144.655 119.045 144.079 117.833L136.012 100.932Z" stroke="#E8612A" stroke-width="0.5" stroke-linecap="round" stroke-linejoin="round"/>
<path d="M140.033 216.819L61.8002 195.984C60.4322 185.439 63.0542 175.491 69.1502 166.029L100.017 173.379" stroke="#E8612A" stroke-width="0.5" stroke-linecap="round" stroke-linejoin="round"/>
<path d="M174.889 191.225L160.21 187.719" stroke="#E8612A" stroke-width="0.5" stroke-linecap="round" stroke-linejoin="round"/>
<path d="M182.955 225.825C178.019 226.761 172.92 226.317 168.219 224.543C162.119 222.352 156.669 218.66 152.373 213.806L80.4917 134.006" stroke="#E8612A" stroke-width="0.5" stroke-linecap="round" stroke-linejoin="round"/>
<path d="M61.8809 184.698L125.496 201.057" stroke="#E8612A" stroke-width="0.5" stroke-linecap="round" stroke-linejoin="round"/>
<path d="M229.385 147.075C227.502 162.096 231.066 164.519 240.414 160.785" stroke="#E8612A" stroke-width="0.5" stroke-linecap="round" stroke-linejoin="round"/>
<path d="M171.75 199.661L96.4622 121.89C86.6157 126.807 78.5013 134.608 73.2002 144.254L146.763 224.144C149.423 227.063 152.519 229.553 155.94 231.525C162.366 235.212 172.805 239.285 184.358 236.264" stroke="#E8612A" stroke-width="0.5" stroke-linecap="round" stroke-linejoin="round"/>
<path d="M226.163 165.345C236.082 170.445 235.227 162.809 235.227 162.809L235.167 162.278" stroke="#E8612A" stroke-width="0.5" stroke-linecap="round" stroke-linejoin="round"/>
<path d="M234.714 165.545C233.289 172.1 206.013 189.059 165.911 167.882" stroke="#E8612A" stroke-width="0.5" stroke-linecap="round" stroke-linejoin="round"/>
<path d="M158.415 185.895C157.845 175.805 159.497 168.591 163.289 167.595C169.073 166.079 175.688 179.252 178.908 187.062C176.999 186.663 174.662 186.321 172.608 186.065" stroke="#E8612A" stroke-width="0.5" stroke-linecap="round" stroke-linejoin="round"/>
<path d="M71.0008 95.2306C70.2313 93.9196 69.5758 93.1755 69.0913 93.2355C66.0673 93.6135 65.3038 110.766 62.7358 119.372C61.7981 122.282 61.2316 125.299 61.0498 128.351C61.4244 130.114 62.1531 131.782 63.1918 133.256C63.4494 130.011 64.0806 126.807 65.0728 123.707C67.5793 115.268 68.5498 99.5926 71.0008 95.2306Z" stroke="#E8612A" stroke-width="0.5" stroke-linecap="round" stroke-linejoin="round"/>
<path d="M79.3799 121.481C77.4419 116.493 77.1659 111.903 75.9029 107.174C74.7792 103.002 73.1321 98.9889 71.0009 95.2306C68.5499 99.5926 67.5659 115.263 65.0729 123.704C64.0979 126.809 63.4671 130.012 63.1919 133.256C64.5384 135.477 66.254 137.453 68.2649 139.098C70.8757 132.603 74.6415 126.634 79.3799 121.481Z" stroke="#E8612A" stroke-width="0.5" stroke-linecap="round" stroke-linejoin="round"/>
<path d="M68.2651 139.095L73.1956 144.254" stroke="#E8612A" stroke-width="0.5" stroke-linecap="round" stroke-linejoin="round"/>
<path d="M79.3799 121.481L85.9079 128.807" stroke="#E8612A" stroke-width="0.5" stroke-linecap="round" stroke-linejoin="round"/>
<path d="M34.8001 155.855C33.4606 155.169 32.4916 154.886 32.1211 155.199C29.7871 157.169 38.2501 172.05 40.6996 180.678C41.4706 183.636 42.6 186.489 44.0626 189.173C45.3141 190.47 46.8173 191.498 48.4801 192.194C46.9743 189.314 45.7984 186.273 44.9746 183.129C42.6286 174.632 35.0611 160.842 34.8001 155.855Z" stroke="#E8612A" stroke-width="0.5" stroke-linecap="round" stroke-linejoin="round"/>
<path d="M55.8962 173.582C51.5927 170.39 48.8822 166.659 45.3212 163.35C42.1441 160.419 38.6109 157.899 34.8047 155.85C35.0612 160.838 42.6047 174.635 44.9792 183.096C45.8022 186.24 46.9781 189.281 48.4847 192.161C50.8105 193.318 53.3171 194.07 55.8962 194.384C54.6516 187.505 54.6516 180.46 55.8962 173.582Z" stroke="#E8612A" stroke-width="0.5" stroke-linecap="round" stroke-linejoin="round"/>
<path d="M55.9243 194.388L61.7953 195.984" stroke="#E8612A" stroke-width="0.5" stroke-linecap="round" stroke-linejoin="round"/>
<path d="M55.896 173.582L64.1325 175.947" stroke="#E8612A" stroke-width="0.5" stroke-linecap="round" stroke-linejoin="round"/>
<path d="M255.348 228.276C256.187 230.091 256.469 232.114 256.159 234.09C255.849 236.066 254.961 237.905 253.606 239.376C252.592 240.475 251.348 241.335 249.962 241.895C248.576 242.455 247.083 242.701 245.59 242.615C244.098 242.53 242.643 242.114 241.33 241.398C240.017 240.683 238.88 239.685 237.999 238.478C236.92 236.997 236.263 235.252 236.099 233.428C235.935 231.604 236.269 229.769 237.065 228.12C237.862 226.471 239.092 225.069 240.623 224.064C242.154 223.059 243.93 222.489 245.76 222.414C247.758 222.334 249.736 222.848 251.442 223.892C253.149 224.935 254.508 226.461 255.348 228.276Z" stroke="#E8612A" stroke-width="0.5" stroke-linecap="round" stroke-linejoin="round"/>
<path d="M243.292 226.281L246.171 232.523L252.298 229.701" stroke="#E8612A" stroke-width="0.5" stroke-linecap="round" stroke-linejoin="round"/>
<path d="M222.885 147.104C222.622 146.781 222.278 146.535 221.887 146.391C219.337 145.463 215.446 149.954 213.252 156.339C211.057 162.725 211.374 168.612 213.964 169.506C215.677 170.097 217.926 168.338 219.921 165.26" stroke="#E8612A" stroke-width="0.5" stroke-linecap="round" stroke-linejoin="round"/>
<path d="M221.888 146.391C214.595 144.69 207.394 142.617 200.313 140.178C192.162 137.355 178.536 141.632 185.121 157.251C188.342 164.889 197.661 173.639 205.13 178.17" stroke="#E8612A" stroke-width="0.5" stroke-linecap="round" stroke-linejoin="round"/>
<path d="M213.965 169.506L193.728 159.275" stroke="#E8612A" stroke-width="0.5" stroke-linecap="round" stroke-linejoin="round"/>
<path d="M231.094 161.384C230.499 162.152 229.881 162.902 229.242 163.634C226.468 166.758 219.208 166.227 211.884 162.266" stroke="#E8612A" stroke-width="0.5" stroke-linecap="round" stroke-linejoin="round"/>
<path d="M221.973 149.127C221.403 149.555 219.123 148.985 217.698 148.329" stroke="#E8612A" stroke-width="0.5" stroke-linecap="round" stroke-linejoin="round"/>
<path d="M226.875 145.394C226.903 145.08 226.96 142.994 226.989 142.715C227.131 137.699 225.978 138.558 224.196 143.712C222.683 147.802 220.951 151.808 219.009 155.712" stroke="#E8612A" stroke-width="0.5" stroke-linecap="round" stroke-linejoin="round"/>
<path d="M231.408 135.333C230.923 133.566 229.501 135.05 228.33 139.551C227.364 143.258 226.618 146.451 225.877 148.871" stroke="#E8612A" stroke-width="0.5" stroke-linecap="round" stroke-linejoin="round"/>
<path d="M229.271 148.13C227.638 148.168 226.048 148.661 224.681 149.555" stroke="#E8612A" stroke-width="0.5" stroke-linecap="round" stroke-linejoin="round"/>
<path d="M270.511 196.106L250.411 185.589C252.007 176.838 257.052 168.146 264.211 163.785C264.211 163.785 280.683 174.504 289.207 183.081C297.625 191.55 290.857 209.495 270.595 204.371C263.91 202.67 255.048 197.442 246.627 193.608C229.39 221.208 197.266 231.731 187.227 235.38C186.262 235.73 185.302 236.022 184.35 236.271C186.031 236.043 177.138 192.572 172.606 186.074C183.835 188.297 218.236 192.458 241.095 168.974" stroke="#E8612A" stroke-width="0.5" stroke-linecap="round" stroke-linejoin="round"/>
<path d="M252.526 156.339C252.526 156.339 254.293 151.919 256.576 151.089C259.027 150.204 254.719 158.244 254.952 162.719C255.036 164.315 260.169 166.908 260.169 166.908" stroke="#E8612A" stroke-width="0.5" stroke-linecap="round" stroke-linejoin="round"/>
<path d="M249.506 144.881C249.306 142.344 249.723 134.16 251.643 142.088C252.009 144.218 252.246 146.37 252.356 148.529C252.763 152.122 252.696 155.753 252.156 159.329" stroke="#E8612A" stroke-width="0.5" stroke-linecap="round" stroke-linejoin="round"/>
<path d="M243.75 151.065C243.636 150.752 242.952 148.815 242.867 148.529C241.157 143.826 240.38 145.052 240.644 150.495C240.866 155.085 240.395 161.783 240.302 163.578C239.957 170.277 242.952 172.214 252.129 179.196" stroke="#E8612A" stroke-width="0.5" stroke-linecap="round" stroke-linejoin="round"/>
<path d="M247.511 152.718C247.14 149.498 246.365 145.218 246.114 144.282C244.328 137.54 242.355 138.497 243.207 145.194C243.693 149.013 243.749 151.892 243.977 154.43" stroke="#E8612A" stroke-width="0.5" stroke-linecap="round" stroke-linejoin="round"/>
<path d="M246.171 144.482C246.143 131.432 248.721 136.928 249.42 144.197C249.738 147.474 250.104 149.897 250.161 151.835" stroke="#E8612A" stroke-width="0.5" stroke-linecap="round" stroke-linejoin="round"/>
<path d="M246.174 143.465C244.974 138.794 241.509 133.227 233.517 126.299C231.732 133.109 230.352 140.018 229.384 146.99C233.131 146.059 236.982 145.618 240.841 145.679" stroke="#E8612A" stroke-width="0.5" stroke-linecap="round" stroke-linejoin="round"/>
<path d="M228.558 171.956C230.297 173.552 231.978 174.956 237.08 172.725" stroke="#E8612A" stroke-width="0.5" stroke-linecap="round" stroke-linejoin="round"/>
<path d="M240.443 160.785C239.274 162.495 235.142 164.405 235.142 164.405" stroke="#E8612A" stroke-width="0.5" stroke-linecap="round" stroke-linejoin="round"/>
<path d="M282.624 120.939C282.368 122.393 274.587 122.139 265.239 120.369C255.891 118.599 248.537 116.009 248.793 114.555C249.05 113.102 256.83 113.355 266.18 115.125C275.529 116.895 282.881 119.486 282.624 120.939Z" stroke="#E8612A" stroke-width="0.5" stroke-linecap="round" stroke-linejoin="round"/>
<path d="M274.444 132.996C273.219 133.737 268.306 127.53 263.472 119.087C258.637 110.643 255.719 103.212 256.944 102.471C258.17 101.73 263.073 107.943 267.918 116.379C272.763 124.815 275.67 132.255 274.444 132.996Z" stroke="#E8612A" stroke-width="0.5" stroke-linecap="round" stroke-linejoin="round"/>
<path d="M7.5 222.291L22.293 235.059L26.1975 208.353" stroke="#E8612A" stroke-width="0.5" stroke-linecap="round" stroke-linejoin="round"/>
<path d="M106.97 81.6646C106.957 82.0746 106.863 82.4781 106.694 82.8519C106.525 83.2257 106.284 83.5626 105.985 83.8434C105.686 84.1241 105.335 84.3432 104.951 84.4881C104.567 84.633 104.158 84.7008 103.748 84.6878C103.338 84.6748 102.935 84.5812 102.561 84.4123C102.187 84.2434 101.85 84.0025 101.57 83.7034C101.289 83.4042 101.07 83.0527 100.925 82.669C100.78 82.2852 100.712 81.8766 100.725 81.4666C100.751 80.6385 101.106 79.8548 101.71 79.2878C102.314 78.7209 103.118 78.4171 103.946 78.4433C104.775 78.4696 105.558 78.8237 106.125 79.4278C106.692 80.0319 106.996 80.8365 106.97 81.6646Z" stroke="#E8612A" stroke-width="0.5" stroke-linecap="round" stroke-linejoin="round"/>
<path d="M159.413 300.87L171.612 313.923" stroke="#E8612A" stroke-width="0.5" stroke-linecap="round" stroke-linejoin="round"/>
<path d="M172.039 301.298L158.985 313.496" stroke="#E8612A" stroke-width="0.5" stroke-linecap="round" stroke-linejoin="round"/>
<path d="M246.628 193.601C245.21 192.951 243.775 192.339 242.323 191.766L240.898 201.57" stroke="#E8612A" stroke-width="0.5" stroke-linecap="round" stroke-linejoin="round"/>
</svg>
