<svg width="17" height="25" viewBox="0 0 17 25" fill="none" xmlns="http://www.w3.org/2000/svg">
<path fill-rule="evenodd" clip-rule="evenodd" d="M8.755 0.978516C7.12232 0.978516 5.5263 1.46266 4.16877 2.36973C2.81124 3.27681 1.75318 4.56606 1.12838 6.07446C0.503577 7.58287 0.3401 9.24267 0.658621 10.844C0.977142 12.4453 1.76335 13.9162 2.91784 15.0707C4.07232 16.2252 5.54322 17.0114 7.14453 17.3299C8.74585 17.6484 10.4057 17.4849 11.9141 16.8601C13.4225 16.2353 14.7117 15.1773 15.6188 13.8197C16.5259 12.4622 17.01 10.8662 17.01 9.23352C17.01 8.14945 16.7965 7.07601 16.3816 6.07446C15.9668 5.07292 15.3587 4.1629 14.5922 3.39635C13.8256 2.6298 12.9156 2.02174 11.9141 1.60689C10.9125 1.19204 9.83907 0.978516 8.755 0.978516ZM8.755 15.0113C7.61227 15.0113 6.49519 14.6724 5.54504 14.0376C4.59489 13.4027 3.85434 12.5003 3.41703 11.4446C2.97973 10.3888 2.86531 9.22711 3.08824 8.10633C3.31118 6.98555 3.86146 5.95605 4.6695 5.14801C5.47753 4.33997 6.50704 3.78969 7.62782 3.56676C8.74859 3.34382 9.91031 3.45824 10.9661 3.89555C12.0218 4.33285 12.9242 5.0734 13.5591 6.02355C14.1939 6.97371 14.5328 8.09078 14.5328 9.23352C14.5328 10.7659 13.9241 12.2355 12.8405 13.319C11.757 14.4026 10.2874 15.0113 8.755 15.0113Z" fill="#2D2C2B"/>
<path fill-rule="evenodd" clip-rule="evenodd" d="M12.8786 18.2324V24.0896L8.75475 22.4358L4.63086 24.0896V18.2324C5.92434 18.8271 7.33113 19.135 8.75475 19.135C10.1784 19.135 11.5852 18.8271 12.8786 18.2324Z" fill="#2D2C2B"/>
<path d="M8.75475 13.3576C11.0323 13.3576 12.8786 11.5113 12.8786 9.23375C12.8786 6.95619 11.0323 5.10986 8.75475 5.10986C6.47719 5.10986 4.63086 6.95619 4.63086 9.23375C4.63086 11.5113 6.47719 13.3576 8.75475 13.3576Z" fill="#2D2C2B"/>
</svg>
