<svg width="17" height="25" viewBox="0 0 17 25" fill="none" xmlns="http://www.w3.org/2000/svg">
<path fill-rule="evenodd" clip-rule="evenodd" d="M8.755 0.979004C7.12232 0.979004 5.5263 1.46315 4.16877 2.37022C2.81124 3.27729 1.75318 4.56655 1.12838 6.07495C0.503577 7.58336 0.3401 9.24316 0.658621 10.8445C0.977142 12.4458 1.76335 13.9167 2.91784 15.0712C4.07232 16.2257 5.54322 17.0119 7.14453 17.3304C8.74585 17.6489 10.4057 17.4854 11.9141 16.8606C13.4225 16.2358 14.7117 15.1778 15.6188 13.8202C16.5259 12.4627 17.01 10.8667 17.01 9.234C17.01 8.14994 16.7965 7.0765 16.3816 6.07495C15.9668 5.07341 15.3587 4.16339 14.5922 3.39684C13.8256 2.63029 12.9156 2.02223 11.9141 1.60738C10.9125 1.19253 9.83907 0.979004 8.755 0.979004ZM8.755 15.0118C7.61227 15.0118 6.49519 14.6729 5.54504 14.0381C4.59489 13.4032 3.85434 12.5008 3.41703 11.4451C2.97973 10.3893 2.86531 9.22759 3.08824 8.10682C3.31118 6.98604 3.86146 5.95653 4.6695 5.1485C5.47753 4.34046 6.50704 3.79018 7.62782 3.56724C8.74859 3.34431 9.91031 3.45873 10.9661 3.89603C12.0218 4.33334 12.9242 5.07389 13.5591 6.02404C14.1939 6.97419 14.5328 8.09127 14.5328 9.234C14.5328 10.7664 13.9241 12.236 12.8405 13.3195C11.757 14.4031 10.2874 15.0118 8.755 15.0118Z" fill="#2D2C2B"/>
<path fill-rule="evenodd" clip-rule="evenodd" d="M12.8786 18.2329V24.0901L8.75475 22.4362L4.63086 24.0901V18.2329C5.92434 18.8276 7.33113 19.1354 8.75475 19.1354C10.1784 19.1354 11.5852 18.8276 12.8786 18.2329Z" fill="#2D2C2B"/>
<path d="M8.75475 13.3581C11.0323 13.3581 12.8786 11.5118 12.8786 9.23424C12.8786 6.95668 11.0323 5.11035 8.75475 5.11035C6.47719 5.11035 4.63086 6.95668 4.63086 9.23424C4.63086 11.5118 6.47719 13.3581 8.75475 13.3581Z" fill="#2D2C2B"/>
</svg>
