<svg width="300px" height="864px" viewBox="0 0 300 864" fill="none" xmlns="http://www.w3.org/2000/svg">
<rect y="0.305664" width="300" height="863" rx="16" fill="#FFFCEA"/>
<path d="M202.896 179.499C190.134 181.416 177.489 184.042 165.019 187.365L164.944 185.753L133.47 190.244C129.07 195.185 127.056 208.041 132.991 216.534L128.739 238.238L97.1038 227.408C89.8933 234.789 87.5038 242.655 86.9863 253.001L131.874 269.987C133.997 270.793 136.266 271.14 138.533 271.006C140.8 270.873 143.013 270.261 145.026 269.211C147.04 268.161 148.808 266.697 150.216 264.915C151.623 263.133 152.637 261.074 153.192 258.872L161.058 227.921L146.802 224.306C160.29 226.094 181.089 218.811 191.809 214.61C191.182 225.354 190.669 239.747 189.786 255.65C197.659 258.637 206.25 259.184 214.438 257.217C216.889 238.008 219.312 216.348 220.11 194.967C220.194 192.76 219.791 190.562 218.931 188.528C218.07 186.494 216.772 184.674 215.129 183.198C213.486 181.721 211.539 180.625 209.424 179.986C207.31 179.346 205.081 179.18 202.896 179.499Z" fill="#F2A83B"/>
<path d="M238.436 139.542L238.835 144.074L243.537 141.452L238.436 139.542Z" fill="#F2A83B"/>
<path d="M228.432 133.899C224.442 124.149 218.4 113.208 213.697 103.575C211.177 98.6102 208.978 93.4887 207.114 88.2422C205.33 83.0382 204.005 77.6884 203.152 72.2537C203.126 72.0236 203.055 71.801 202.942 71.5988C202.829 71.3966 202.678 71.219 202.495 71.0762C202.219 70.8629 201.886 70.7376 201.538 70.7167C201.189 70.6959 200.843 70.7803 200.544 70.9592C200.245 71.1392 200.007 71.4055 199.863 71.723C199.718 72.0405 199.672 72.3944 199.732 72.7382C200.259 75.5642 200.934 78.3632 201.756 81.1172C204.19 89.2895 207.567 97.1513 211.816 104.544C216.916 114.006 223.359 124.665 227.716 134.213C227.747 134.284 227.798 134.344 227.864 134.386C227.929 134.427 228.005 134.449 228.082 134.447C228.159 134.445 228.235 134.421 228.298 134.377C228.361 134.332 228.41 134.27 228.438 134.198C228.456 134.15 228.466 134.099 228.465 134.048C228.463 133.997 228.452 133.946 228.432 133.899Z" fill="#EF853B"/>
<path d="M133.47 190.244L130.107 176.421C125.623 181.353 123.194 187.812 123.315 194.476C123.437 201.141 126.101 207.506 130.762 212.271C127.741 204.123 129.936 194.205 133.47 190.244Z" fill="#EF853B"/>
<path d="M174.026 185.114C171.005 185.826 168.012 186.596 165.026 187.394C164.798 182.72 164.627 175.965 164.541 172.694C168.904 175.76 172.216 180.097 174.026 185.114Z" fill="#EF853B"/>
<path d="M147.52 143.447L143.673 140.198C144.72 140.433 145.792 140.528 146.865 140.483C146.988 141.489 147.207 142.482 147.52 143.447Z" fill="#EF853B"/>
<path d="M133.071 174.284L131.589 182.52L129.651 174.54L133.071 174.284Z" fill="#EF853B"/>
<path d="M144.613 223.931L161.086 227.921L162.198 223.503C156.355 224.529 150 225.099 144.613 223.931Z" fill="#EF853B"/>
<path d="M175.052 164.85L164.393 166.76L164.307 163.112L175.052 164.85Z" fill="#EF853B"/>
<path d="M230.94 152.168C230.028 162.599 227.092 175.823 224.926 186.282C223.786 191.754 222.504 197.853 221.677 203.411C220.791 209.314 220.887 215.323 221.962 221.195C222.005 221.385 222.087 221.565 222.203 221.722C222.318 221.88 222.465 222.012 222.634 222.11C222.803 222.207 222.991 222.27 223.184 222.293C223.378 222.316 223.575 222.3 223.762 222.245C224.135 222.139 224.451 221.891 224.643 221.554C224.834 221.218 224.887 220.819 224.788 220.445C223.621 214.937 223.371 209.275 224.047 203.687C224.703 198.137 225.786 192.087 226.755 186.615C228.6 176.051 231.139 162.806 231.738 152.225C231.735 152.125 231.695 152.03 231.626 151.958C231.557 151.886 231.464 151.842 231.365 151.835C231.265 151.828 231.167 151.858 231.088 151.919C231.01 151.981 230.957 152.069 230.94 152.168Z" fill="#EF853B"/>
<path d="M150.257 129.14C149.91 128.354 149.529 127.584 149.117 126.831C142.908 115.116 138.401 125.121 139.113 130.023C139.142 130.907 138.683 131.169 137.204 130.251C134.147 128.354 132.42 133.382 138.03 135.524C138.297 135.708 138.506 135.965 138.63 136.265C139.713 139.628 139.998 141.815 139.428 143.903C138.978 139.403 134.046 136.319 130.365 130.853C126.24 124.722 136.515 113.952 141.936 113.582C147.357 113.211 147.635 120.333 150.257 129.14Z" fill="#EF853B"/>
<path d="M210.164 258.017C204.742 258.735 199.231 258.378 193.947 256.967C193.605 259.446 193.292 261.755 193.121 264.291C199.001 270.731 206.282 281.159 218.6 290.511C215.718 275.69 210.558 265.716 210.164 258.017Z" fill="#EF853B"/>
<path d="M87.0722 228.633C78.8222 232.356 66.8687 235.859 53.7842 244.907C59.5382 246.117 82.9382 246 87.5567 246.959C88.2463 241.399 90.3134 236.099 93.5702 231.54C91.3187 230.486 89.4377 229.602 87.0722 228.633Z" fill="#EF853B"/>
<path d="M76.2421 126.746L62.3626 116.229L53.9551 91.0066L67.7776 101.324L76.2421 126.746Z" fill="#EF853B"/>
<path d="M48.027 105.656L21.4365 104.915L7.5 94.5691L34.29 95.4241L48.027 105.656Z" fill="#EF853B"/>
<path d="M125.918 160.575C125.938 160.762 125.92 160.951 125.867 161.131C125.813 161.311 125.724 161.478 125.605 161.624C125.486 161.769 125.339 161.889 125.173 161.977C125.007 162.065 124.825 162.119 124.638 162.136C124.451 162.153 124.262 162.133 124.083 162.076C123.904 162.019 123.738 161.928 123.595 161.806C123.451 161.685 123.334 161.536 123.248 161.369C123.163 161.202 123.112 161.019 123.098 160.832C123.07 160.461 123.189 160.094 123.429 159.811C123.669 159.527 124.011 159.349 124.381 159.316C124.752 159.282 125.12 159.395 125.408 159.631C125.695 159.866 125.878 160.206 125.918 160.575Z" fill="#EF853B"/>
<path d="M211.218 142.079C211.242 142.268 211.228 142.459 211.176 142.643C211.125 142.826 211.037 142.997 210.917 143.146C210.798 143.294 210.65 143.417 210.482 143.507C210.314 143.597 210.13 143.653 209.94 143.67C209.751 143.687 209.559 143.666 209.378 143.608C209.197 143.549 209.029 143.455 208.885 143.33C208.741 143.206 208.623 143.053 208.539 142.882C208.456 142.711 208.407 142.525 208.397 142.335C208.377 141.969 208.5 141.609 208.74 141.331C208.98 141.053 209.318 140.88 209.684 140.846C210.049 140.813 210.413 140.923 210.7 141.153C210.986 141.383 211.172 141.715 211.218 142.079Z" fill="#EF853B"/>
<path d="M253.655 246.417V259.128L240.887 263.46L268.389 270.158L253.655 246.417Z" fill="#EF853B"/>
<path d="M149.516 148.634C154.959 162.456 155.729 173.172 156.128 187.08" stroke="#E8612A" stroke-width="0.5" stroke-linecap="round" stroke-linejoin="round"/>
<path d="M203.523 139.884C206.645 145.755 207.954 152.421 207.285 159.036" stroke="#E8612A" stroke-width="0.5" stroke-linecap="round" stroke-linejoin="round"/>
<path d="M62.9038 234.732C53.0087 213.702 51.11 189.787 57.5627 167.458C64.0154 145.13 78.3778 125.915 97.9659 113.404C117.554 100.894 141.027 95.9436 163.999 99.4795C186.971 103.015 207.869 114.795 222.789 132.617" stroke="#E8612A" stroke-width="0.5" stroke-linecap="round" stroke-linejoin="round"/>
<path d="M213.982 140.255C215.464 139.827 216.927 138.662 218.371 135.21C219.289 133.019 219.682 132.992 223.558 132.56C228.118 132.051 227.724 132.335 228.745 140.112C228.996 142.023 225.745 142.82 224.071 136.92C225.411 141.452 223.872 144.957 220.908 146.52" stroke="#E8612A" stroke-width="0.5" stroke-linecap="round" stroke-linejoin="round"/>
<path d="M130.763 212.306C126.101 207.541 123.436 201.176 123.314 194.511C123.193 187.846 125.623 181.387 130.107 176.456" stroke="#E8612A" stroke-width="0.5" stroke-linecap="round" stroke-linejoin="round"/>
<path d="M164.535 172.688C168.879 175.778 172.188 180.109 174.026 185.114" stroke="#E8612A" stroke-width="0.5" stroke-linecap="round" stroke-linejoin="round"/>
<path d="M197.624 276.656C180.82 286.433 161.437 290.862 142.055 289.354C122.672 287.845 104.208 280.471 89.1197 268.211C81.3942 261.935 74.6952 254.493 69.2642 246.152" stroke="#E8612A" stroke-width="0.5" stroke-linecap="round" stroke-linejoin="round"/>
<path d="M234.9 151.028C244.458 170.088 247.383 191.793 243.211 212.703C239.04 233.614 228.01 252.535 211.869 266.468" stroke="#E8612A" stroke-width="0.5" stroke-linecap="round" stroke-linejoin="round"/>
<path d="M98.9548 228.035C94.0172 220.683 90.7356 212.347 89.3371 203.603C87.9385 194.859 88.4564 185.915 90.8548 177.39" stroke="#E8612A" stroke-width="0.5" stroke-linecap="round" stroke-linejoin="round"/>
<path d="M190.641 238.836C180.759 247.932 168.14 253.494 154.759 254.654C154.599 254.677 154.437 254.687 154.275 254.682" stroke="#E8612A" stroke-width="0.5" stroke-linecap="round" stroke-linejoin="round"/>
<path d="M200.188 160.347C204.123 166.262 206.988 172.821 208.653 179.727" stroke="#E8612A" stroke-width="0.5" stroke-linecap="round" stroke-linejoin="round"/>
<path d="M151.682 133.158C163.037 133.572 174.047 137.166 183.459 143.532" stroke="#E8612A" stroke-width="0.5" stroke-linecap="round" stroke-linejoin="round"/>
<path d="M109.929 147.693C116.848 141.757 125.024 137.47 133.841 135.153" stroke="#E8612A" stroke-width="0.5" stroke-linecap="round" stroke-linejoin="round"/>
<path d="M34.3618 95.4424L106.053 148.719" stroke="#E8612A" stroke-width="0.5" stroke-linecap="round" stroke-linejoin="round"/>
<path d="M231.738 242.712L268.389 270.158" stroke="#E8612A" stroke-width="0.5" stroke-linecap="round" stroke-linejoin="round"/>
<path d="M147.52 143.447L143.673 140.198C144.718 140.451 145.794 140.558 146.868 140.513" stroke="#E8612A" stroke-width="0.5" stroke-linecap="round" stroke-linejoin="round"/>
<path d="M150.257 129.14C154.475 138.602 150.231 140.37 146.868 140.513C147.048 142.018 147.464 143.486 148.101 144.863C148.569 146.052 149.41 147.057 150.497 147.728C151.585 148.398 152.86 148.698 154.133 148.583C160.418 148.02 212.9 138.209 212.9 138.209C216.059 144.413 217.598 150.786 216.467 157.416L164.4 166.76C164.4 166.76 164.565 173.97 164.942 185.798" stroke="#E8612A" stroke-width="0.5" stroke-linecap="round" stroke-linejoin="round"/>
<path d="M129.651 174.54L133.071 174.284L131.589 182.52" stroke="#E8612A" stroke-width="0.5" stroke-linecap="round" stroke-linejoin="round"/>
<path d="M96.2206 174.056L128.739 164.052C129.832 156.814 128.019 149.438 123.695 143.532L90.1216 153.678C83.2216 155.928 79.3036 160.203 79.8616 166.532C79.9958 168.091 80.4364 169.609 81.1584 170.999C81.8803 172.388 82.8694 173.621 84.0688 174.627C85.2682 175.633 86.6543 176.392 88.1479 176.862C89.6414 177.331 91.2128 177.501 92.7721 177.362L129.651 174.54L133.5 190.358" stroke="#E8612A" stroke-width="0.5" stroke-linecap="round" stroke-linejoin="round"/>
<path d="M196.227 212.844C195.087 213.329 193.634 213.894 191.81 214.611" stroke="#E8612A" stroke-width="0.5" stroke-linecap="round" stroke-linejoin="round"/>
<path d="M133.5 190.358C129.339 195.032 126.969 207.945 132.987 216.549C138.918 225.03 149.652 225.41 159.933 223.871C171.45 222.147 184.059 217.643 191.811 214.611C191.184 225.356 190.671 239.748 189.788 255.651C197.661 258.639 206.252 259.185 214.44 257.219C216.891 238.01 219.261 216.32 220.083 194.946C220.169 192.743 219.768 190.549 218.908 188.519C218.049 186.489 216.752 184.673 215.111 183.201C213.47 181.728 211.526 180.635 209.414 180C207.303 179.365 205.078 179.204 202.898 179.528C190.135 181.441 177.49 184.067 165.021 187.394L164.936 185.798L133.5 190.358Z" stroke="#E8612A" stroke-width="0.5" stroke-linecap="round" stroke-linejoin="round"/>
<path d="M165.019 187.394C163.024 187.935 161.058 188.477 159.091 189.044" stroke="#E8612A" stroke-width="0.5" stroke-linecap="round" stroke-linejoin="round"/>
<path d="M132.985 216.549L128.71 238.238L97.1038 227.408C89.8933 234.789 87.5038 242.655 86.9863 253.001L131.874 270.015C133.997 270.821 136.266 271.169 138.533 271.035C140.8 270.902 143.013 270.29 145.026 269.24C147.04 268.19 148.808 266.726 150.216 264.944C151.623 263.162 152.637 261.102 153.192 258.9L162.178 223.5" stroke="#E8612A" stroke-width="0.5" stroke-linecap="round" stroke-linejoin="round"/>
<path d="M144.528 223.902L161.058 227.921" stroke="#E8612A" stroke-width="0.5" stroke-linecap="round" stroke-linejoin="round"/>
<path d="M175.052 164.85L164.393 166.76L164.307 163.112L175.052 164.85Z" stroke="#E8612A" stroke-width="0.5" stroke-linecap="round" stroke-linejoin="round"/>
<path d="M142.761 152.168L238.634 141.914" stroke="#E8612A" stroke-width="0.5" stroke-linecap="round" stroke-linejoin="round"/>
<path d="M238.436 139.542L238.835 144.074L243.537 141.452L238.436 139.542Z" stroke="#E8612A" stroke-width="0.5" stroke-linecap="round" stroke-linejoin="round"/>
<path d="M137.205 130.223C134.147 128.325 132.42 133.353 138.03 135.495C138.297 135.68 138.506 135.936 138.63 136.236C139.713 139.599 139.998 141.786 139.428 143.874C138.978 139.374 134.046 136.29 130.365 130.824C126.24 124.694 136.515 113.909 141.936 113.553C147.357 113.198 147.608 120.336 150.258 129.143C149.911 128.357 149.531 127.587 149.118 126.834C143.075 115.434 138.645 124.608 139.068 129.627C139.163 130.752 138.989 131.33 137.205 130.223Z" stroke="#E8612A" stroke-width="0.5" stroke-linecap="round" stroke-linejoin="round"/>
<path d="M193.95 256.962C199.234 258.374 204.744 258.731 210.166 258.012C210.423 263.028 212.473 268.301 213.957 273.089C216.657 281.789 219.013 289.752 219.807 298.739C213.968 294.337 208.6 289.341 203.79 283.833C199.543 279.045 196.152 274.656 192.99 271.293C192.912 266.498 193.233 261.704 193.95 256.962Z" stroke="#E8612A" stroke-width="0.5" stroke-linecap="round" stroke-linejoin="round"/>
<path d="M193.149 264.315C196.149 267.593 199.359 271.728 203.349 276.2C207.961 281.465 213.078 286.266 218.625 290.535" stroke="#E8612A" stroke-width="0.5" stroke-linecap="round" stroke-linejoin="round"/>
<path d="M47.229 243.767C53.2339 239.595 59.6516 236.052 66.381 233.193C72.2565 230.643 77.4675 228.776 81.681 226.838C85.7646 228.077 89.7395 229.65 93.5655 231.54C90.3109 236.099 88.2455 241.397 87.5565 246.956C83.025 246.015 77.9565 246.27 73.4205 246.186C65.616 246.044 54.8625 245.552 47.229 243.767Z" stroke="#E8612A" stroke-width="0.5" stroke-linecap="round" stroke-linejoin="round"/>
<path d="M137.916 144.074L205.461 87.8433" stroke="#E8612A" stroke-width="0.5" stroke-linecap="round" stroke-linejoin="round"/>
<path d="M224.271 194.69L137.691 159.828" stroke="#E8612A" stroke-width="0.5" stroke-linecap="round" stroke-linejoin="round"/>
<path d="M39.648 80.2336L48.027 105.656L21.4365 104.915" stroke="#E8612A" stroke-width="0.5" stroke-linecap="round" stroke-linejoin="round"/>
<path d="M35.7148 115.46L62.3338 116.343L53.9548 91.0068" stroke="#E8612A" stroke-width="0.5" stroke-linecap="round" stroke-linejoin="round"/>
<path d="M175.365 299.313L176.762 315.758" stroke="#E8612A" stroke-width="0.5" stroke-linecap="round" stroke-linejoin="round"/>
<path d="M184.285 306.809L167.841 308.234" stroke="#E8612A" stroke-width="0.5" stroke-linecap="round" stroke-linejoin="round"/>
<path d="M29.2501 178.017C29.3234 178.852 29.1477 179.689 28.7452 180.423C28.3426 181.158 27.7313 181.756 26.9886 182.143C26.2458 182.53 25.405 182.688 24.5724 182.598C23.7398 182.507 22.9529 182.171 22.3111 181.633C21.6693 181.095 21.2016 180.378 20.9669 179.574C20.7323 178.77 20.7413 177.915 20.9929 177.116C21.2445 176.317 21.7274 175.611 22.3804 175.086C23.0334 174.562 23.8273 174.243 24.6616 174.17C25.2159 174.119 25.7748 174.178 26.3061 174.344C26.8374 174.511 27.3305 174.78 27.757 175.138C28.1836 175.496 28.5351 175.934 28.7914 176.428C29.0476 176.923 29.2035 177.463 29.2501 178.017Z" stroke="#E8612A" stroke-width="0.5" stroke-linecap="round" stroke-linejoin="round"/>
<path d="M111.012 65.1003L116.798 71.9118L121.899 60.8538" stroke="#E8612A" stroke-width="0.5" stroke-linecap="round" stroke-linejoin="round"/>
<path d="M280.331 174.597L280.815 180.354" stroke="#E8612A" stroke-width="0.5" stroke-linecap="round" stroke-linejoin="round"/>
<path d="M275.856 186.282L270.099 186.767" stroke="#E8612A" stroke-width="0.5" stroke-linecap="round" stroke-linejoin="round"/>
<path d="M292.5 184.829L286.743 185.313" stroke="#E8612A" stroke-width="0.5" stroke-linecap="round" stroke-linejoin="round"/>
<path d="M282.269 196.998L281.784 191.241" stroke="#E8612A" stroke-width="0.5" stroke-linecap="round" stroke-linejoin="round"/>
<path d="M286.743 185.313C285.3 185.437 283.868 184.985 282.757 184.056C281.646 183.128 280.948 181.797 280.815 180.356C280.938 181.798 280.485 183.231 279.556 184.341C278.627 185.451 277.297 186.15 275.856 186.284C277.299 186.16 278.732 186.612 279.842 187.541C280.953 188.47 281.651 189.801 281.784 191.243C281.661 189.8 282.113 188.367 283.042 187.257C283.971 186.146 285.301 185.447 286.743 185.313Z" stroke="#E8612A" stroke-width="0.5" stroke-linecap="round" stroke-linejoin="round"/>
<path d="M150.684 147.806C149.696 148.607 148.553 149.195 147.327 149.534C146.101 149.872 144.818 149.953 143.559 149.772" stroke="#E8612A" stroke-width="0.5" stroke-linecap="round" stroke-linejoin="round"/>
<path d="M113.947 146.496C118.707 151.826 120.502 158.646 119.334 166.959" stroke="#E8612A" stroke-width="0.5" stroke-linecap="round" stroke-linejoin="round"/>
<path d="M268.389 270.158L240.887 263.46L253.655 259.128V246.417L268.389 270.158Z" stroke="#E8612A" stroke-width="0.5" stroke-linecap="round" stroke-linejoin="round"/>
<path d="M129.024 160.49C133.356 160.205 141.45 159.521 141.624 159.492C143.819 159.321 143.648 155.759 140.969 155.759C140.969 155.759 141.71 155.706 142.052 155.673C144.302 155.451 144.048 151.782 141.282 151.826C141.132 151.826 140.712 151.797 140.712 151.797C141.162 151.769 141.567 151.74 141.995 151.683C144.176 151.383 143.972 147.962 141.588 147.728C141.315 147.705 141.041 147.713 140.769 147.75C140.997 147.722 141.254 147.669 141.482 147.636C143.655 147.315 143.249 143.586 140.627 143.817C139.658 143.903 138.917 143.967 137.927 144.074C137.67 141.851 136.958 141.756 134.193 141.794C130.743 141.84 130.374 141.851 129.377 143.703C128.697 145.264 127.542 146.571 126.077 147.437" stroke="#E8612A" stroke-width="0.5" stroke-linecap="round" stroke-linejoin="round"/>
<path d="M227.776 147.551C224.527 147.863 223.759 144 226.864 143.475C229.174 143.085 230.824 142.896 232.678 142.649C235.783 142.235 236.472 146.369 233.961 146.895C232.423 147.218 230.769 147.264 227.776 147.551Z" stroke="#E8612A" stroke-width="0.5" stroke-linecap="round" stroke-linejoin="round"/>
<path d="M227.833 134.099C228.945 133.871 229.771 133.728 230.854 133.529C233.79 132.987 234.616 137.063 232.251 137.718C231.027 138.027 229.782 138.245 228.526 138.369" stroke="#E8612A" stroke-width="0.5" stroke-linecap="round" stroke-linejoin="round"/>
<path d="M227.833 152.082C224.67 152.306 224.014 148.545 227.035 148.121C229.285 147.804 230.883 147.671 232.678 147.494C235.678 147.209 236.278 151.185 233.818 151.626C232.338 151.892 230.712 151.878 227.833 152.082Z" stroke="#E8612A" stroke-width="0.5" stroke-linecap="round" stroke-linejoin="round"/>
<path d="M228.542 138.485C229.728 138.315 230.748 138.23 231.909 138.035C235.044 137.55 235.844 141.719 233.306 142.338C231.768 142.713 230.085 142.788 227.064 143.165C226.62 143.254 226.158 143.198 225.749 143.004C225.339 142.809 225.003 142.488 224.792 142.087C224.58 141.686 224.504 141.227 224.574 140.779C224.645 140.332 224.859 139.919 225.183 139.602" stroke="#E8612A" stroke-width="0.5" stroke-linecap="round" stroke-linejoin="round"/>
<path d="M216.804 154.619C222.077 153.65 229.544 152.795 233.192 151.74" stroke="#E8612A" stroke-width="0.5" stroke-linecap="round" stroke-linejoin="round"/>
<path d="M143.217 188.933L144.442 201.359" stroke="#E8612A" stroke-width="0.5" stroke-linecap="round" stroke-linejoin="round" stroke-dasharray="1.02 1.69"/>
<path d="M144.45 201.356C144.54 202.275 144.821 203.166 145.275 203.97C145.729 204.775 146.346 205.476 147.086 206.029C147.827 206.581 148.674 206.973 149.575 207.179C150.475 207.386 151.409 207.402 152.316 207.227" stroke="#E8612A" stroke-width="0.5" stroke-linecap="round" stroke-linejoin="round" stroke-dasharray="1.02 1.69"/>
<path d="M152.309 207.23L197.168 198.594" stroke="#E8612A" stroke-width="0.5" stroke-linecap="round" stroke-linejoin="round" stroke-dasharray="1.02 1.69"/>
<path d="M199.932 198.594C200.912 198.814 201.829 199.253 202.614 199.878C203.4 200.503 204.033 201.298 204.467 202.203C204.9 203.109 205.122 204.102 205.116 205.106" stroke="#E8612A" stroke-width="0.5" stroke-linecap="round" stroke-linejoin="round" stroke-dasharray="1.02 1.69"/>
<path d="M205.062 205.434L202.525 258.302" stroke="#E8612A" stroke-width="0.5" stroke-linecap="round" stroke-linejoin="round" stroke-dasharray="1.02 1.69"/>
<path d="M146.979 224.33L141.82 247.101" stroke="#E8612A" stroke-width="0.5" stroke-linecap="round" stroke-linejoin="round" stroke-dasharray="1.02 1.69"/>
<path d="M141.821 247.106C141.567 248.233 141.082 249.296 140.397 250.227C139.711 251.157 138.839 251.935 137.837 252.51C136.835 253.086 135.724 253.448 134.575 253.572C133.426 253.697 132.264 253.581 131.162 253.233" stroke="#E8612A" stroke-width="0.5" stroke-linecap="round" stroke-linejoin="round" stroke-dasharray="1.02 1.69"/>
<path d="M131.19 253.229L89.1812 240.09" stroke="#E8612A" stroke-width="0.5" stroke-linecap="round" stroke-linejoin="round" stroke-dasharray="1.02 1.69"/>
<path d="M67.7775 101.324L25.8825 70.0022L34.3755 95.4242L7.5 94.5692L49.509 125.72L76.242 126.746L67.7775 101.324Z" stroke="#E8612A" stroke-width="0.5" stroke-linecap="round" stroke-linejoin="round"/>
<path d="M87.072 228.69C82.968 230.543 77.949 232.358 72.3375 234.789C65.8444 237.539 59.6451 240.936 53.8335 244.929" stroke="#E8612A" stroke-width="0.5" stroke-linecap="round" stroke-linejoin="round"/>
</svg>
