<svg width="300" height="847" viewBox="0 0 300 847" fill="none" xmlns="http://www.w3.org/2000/svg">
<rect y="0.305664" width="300" height="846" rx="16" fill="#FFFCEA"/>
<path d="M214.781 243.624C203.651 243.024 184.386 242.609 180.581 242.256C178.623 233.283 175.47 219.074 174.221 212.406C174.242 212.393 174.262 212.379 174.282 212.364C182.006 207.377 188.931 193.725 177.845 174.488C163.071 174.612 149.519 177.927 137.033 185.603C137.346 188.424 137.603 190.818 137.745 192.386C102.263 208.436 95.4226 213.162 94.1116 221.114C92.5891 230.4 100.682 243.659 124.35 282.731C133.35 284.831 147.059 279.686 150.228 271.502C146.607 264.186 134.043 238.871 130.079 231.801C140.763 227.901 153.179 223.064 163.421 218.135C159.233 222.164 150.909 230.642 147.891 234.224C152.28 247.619 157.41 263.174 162.968 265.745C169.458 268.745 172.449 269.621 214.752 269.621C219.608 265.266 218.52 249.932 214.781 243.624Z" fill="#F2A83B"/>
<path d="M81.1158 80.0342C80.008 82.0728 78.9437 84.1347 77.9238 86.2187C70.2573 102.036 68.7468 112.496 68.7738 120.305C68.8023 124.152 69.1728 127.344 69.3738 130.251V130.28C69.9153 130.593 70.4238 130.907 71.0553 131.277C72.1953 129.477 73.1358 129.824 75.9288 131.192C79.7763 133.073 80.1468 133.244 80.4288 135.951C80.4573 136.293 80.4858 136.607 80.5428 136.92C83.2218 135.41 86.2713 133.899 89.7483 131.67C96.3318 127.424 104.255 120.47 113.289 105.393C114.429 103.484 115.598 101.493 116.766 99.3227L81.1158 80.0342ZM92.6298 111.242L90.8058 119.906L86.8503 111.983L78.0723 112.98L84.3723 106.739L80.7243 98.6732L88.5903 102.723L95.1168 96.7952L93.6918 105.545L101.387 109.905L92.6298 111.242Z" fill="#F2A83B"/>
<path d="M228.461 68.2921C228.432 69.622 228.432 70.9523 228.461 72.2821C230.37 71.7121 231.254 71.0281 231.396 70.3441C231.657 69.1141 229.265 68.1316 228.461 68.2921Z" fill="#EF853B"/>
<path d="M218.685 245.961C217.783 245.938 216.88 245.986 215.985 246.104C218.493 252.317 218.636 261.95 216.585 266.966C219.885 271.383 229.635 278.052 237.219 280.076C236.669 268.163 223.929 250.806 218.685 245.961Z" fill="#EF853B"/>
<path d="M211.703 68.9192C211.215 68.9042 209.303 69.2852 209.303 70.5992C209.303 71.3132 210.186 72.1112 212.352 72.6527C212.586 71.3701 212.356 70.0476 211.703 68.9192Z" fill="#EF853B"/>
<path d="M179.184 148.406C179.583 154.305 180.21 161.345 180.21 166.218C182.376 158.609 185.027 149.403 186.566 144.302L179.184 148.406Z" fill="#EF853B"/>
<path d="M167.87 91.4057C167.87 89.4677 165.362 88.8122 164.022 90.9212C163.908 89.0972 160.944 88.6712 159.491 91.1492C159.177 89.1827 155.843 89.6102 154.674 91.8332C154.332 90.0947 151.482 91.0637 150.998 93.6572C150.485 96.3932 150.029 98.8727 149.715 101.096C153.398 100.013 157.22 99.4753 161.058 99.4997C160.26 102.521 160.608 106.596 161.913 103.832C163.196 101.067 166.473 103.148 164.163 106.767C163.792 107.517 163.64 108.356 163.726 109.189C163.811 110.021 164.131 110.812 164.648 111.47C164.99 105.513 169.607 97.7897 171.032 94.6547C172.971 90.4082 170.036 89.2682 167.87 91.4057Z" fill="#EF853B"/>
<path d="M145.184 226.04C146.039 228.576 146.951 231.341 147.884 234.219C151.247 230.229 160.965 220.796 164.471 217.632C158.351 220.625 151.65 223.503 145.184 226.04Z" fill="#EF853B"/>
<path d="M155.85 116.885C155.827 118.184 155.703 119.48 155.479 120.761C157.452 119.371 158.985 117.445 159.897 115.211C158.593 115.874 157.24 116.433 155.85 116.885Z" fill="#EF853B"/>
<path d="M148.888 274.034C150.246 275.087 151.488 276.281 152.593 277.596C145.981 293.271 131.817 306.467 126.231 309.972C126.789 300.768 128.69 291.694 131.874 283.04C138.286 282.185 145.5 278.936 148.888 274.034Z" fill="#EF853B"/>
<path d="M133.812 158.156C130.877 161.69 122.726 170.439 115.088 175.484C121.859 173.296 128.477 170.658 134.895 167.586C134.523 164.444 134.162 161.3 133.812 158.156Z" fill="#EF853B"/>
<path d="M84.4216 140.027C83.7946 139.656 82.7116 140.112 81.9136 141.281C82.5699 142.459 83.6308 143.36 84.9001 143.817C85.3621 141.594 85.0501 140.397 84.4216 140.027Z" fill="#EF853B"/>
<path d="M77.4962 158.238C76.1852 159.72 75.1862 160.151 74.5322 159.948C73.6187 159.666 73.5062 157.953 74.0477 156.158C75.2162 156.842 76.3847 157.526 77.4962 158.238Z" fill="#EF853B"/>
<path d="M55.9216 264.201C57.0578 264.216 58.1857 264.005 59.2397 263.581C60.2938 263.157 61.253 262.527 62.0618 261.729C62.8706 260.931 63.5128 259.98 63.9511 258.932C64.3894 257.883 64.6151 256.758 64.6151 255.622C64.6151 254.486 64.3894 253.361 63.9511 252.312C63.5128 251.264 62.8706 250.313 62.0618 249.515C61.253 248.717 60.2938 248.087 59.2397 247.663C58.1857 247.239 57.0578 247.028 55.9216 247.043C53.6659 247.073 51.5127 247.99 49.9281 249.595C48.3435 251.201 47.4551 253.366 47.4551 255.622C47.4551 257.878 48.3435 260.043 49.9281 261.649C51.5127 263.254 53.6659 264.171 55.9216 264.201Z" fill="#EF853B"/>
<path d="M69.3739 153.45C69.4309 150.855 70.6564 148.092 72.6739 144.33C72.2543 142.939 72.148 141.473 72.3624 140.036C72.5769 138.599 73.1069 137.228 73.9144 136.02C73.4031 136.811 72.8076 137.543 72.1384 138.206C72.9934 139.944 71.5969 142.595 69.1174 141.341L69.4594 141.881C72.4804 143.591 70.4854 147.468 67.2649 145.931L67.8649 146.474C70.8289 148.041 68.9764 151.832 65.7844 150.434C64.3879 149.808 63.2479 149.352 62.3074 148.953C59.8564 150.918 56.8069 151.376 51.7339 150.663L73.7359 162.576C70.5994 159.006 69.2884 156.329 69.3739 153.45Z" fill="#EF853B"/>
<path d="M50.9972 150.273L45.6392 157.286L71.5457 171.336L74.5097 163.013L50.9972 150.273Z" fill="#EF853B"/>
<path d="M77.4962 158.238C74.7962 156.471 71.6822 154.904 69.3452 153.393" stroke="#E8612A" stroke-width="0.5" stroke-linecap="round" stroke-linejoin="round"/>
<path d="M149.601 102.008L144.243 45.8057L102.804 149.717" stroke="#E8612A" stroke-width="0.5" stroke-linecap="round" stroke-linejoin="round"/>
<path d="M152.138 128.855L150.998 116.628" stroke="#E8612A" stroke-width="0.5" stroke-linecap="round" stroke-linejoin="round"/>
<path d="M212.073 243.482L251.032 145.784L182.604 157.868" stroke="#E8612A" stroke-width="0.5" stroke-linecap="round" stroke-linejoin="round"/>
<path d="M171.318 268.334L177.275 330.806L201.699 269.559" stroke="#E8612A" stroke-width="0.5" stroke-linecap="round" stroke-linejoin="round"/>
<path d="M94.14 171.434L70.4565 230.828L94.1685 226.638" stroke="#E8612A" stroke-width="0.5" stroke-linecap="round" stroke-linejoin="round"/>
<path d="M77.9524 86.2756L63.1324 78.2671C51.2824 100.155 62.1064 116.742 68.8039 120.362" stroke="#E8612A" stroke-width="0.5" stroke-linecap="round" stroke-linejoin="round"/>
<path d="M86.8727 112.011L78.0947 112.98L84.3647 106.767L80.7167 98.7017L88.5827 102.749L95.1092 96.7922L93.6842 105.513L101.379 109.902L92.6297 111.242L90.8627 119.906L86.8727 112.011Z" stroke="#E8612A" stroke-width="0.5" stroke-linecap="round" stroke-linejoin="round"/>
<path d="M113.391 105.431L128.112 113.436C116.25 135.324 96.4503 135.324 89.7798 131.705" stroke="#E8612A" stroke-width="0.5" stroke-linecap="round" stroke-linejoin="round"/>
<path d="M67.7012 288.26C76.9862 288.26 84.5147 280.733 84.5147 271.446C84.5147 262.16 76.9862 254.633 67.7012 254.633C58.4162 254.633 50.8877 262.16 50.8877 271.446C50.8877 280.733 58.4147 288.26 67.7012 288.26Z" stroke="#E8612A" stroke-width="0.5" stroke-linecap="round" stroke-linejoin="round"/>
<path d="M251.09 104.487C252.466 104.487 253.785 103.941 254.758 102.968C255.73 101.995 256.277 100.676 256.277 99.3003C256.277 97.9246 255.73 96.6053 254.758 95.6325C253.785 94.6598 252.466 94.1133 251.09 94.1133C249.714 94.1133 248.395 94.6598 247.422 95.6325C246.449 96.6053 245.903 97.9246 245.903 99.3003C245.903 100.676 246.449 101.995 247.422 102.968C248.395 103.941 249.714 104.487 251.09 104.487Z" stroke="#E8612A" stroke-width="0.5" stroke-linecap="round" stroke-linejoin="round"/>
<path d="M49.6515 190.871C50.3544 190.871 51.0286 190.591 51.5257 190.094C52.0227 189.597 52.302 188.923 52.302 188.22C52.302 187.517 52.0227 186.843 51.5257 186.346C51.0286 185.849 50.3544 185.57 49.6515 185.57C48.9485 185.57 48.2744 185.849 47.7773 186.346C47.2802 186.843 47.001 187.517 47.001 188.22C47.001 188.923 47.2802 189.597 47.7773 190.094C48.2744 190.591 48.9485 190.871 49.6515 190.871Z" stroke="#E8612A" stroke-width="0.5" stroke-linecap="round" stroke-linejoin="round"/>
<path d="M185.198 60.6826L182.547 71.2846L190.584 69.8596L187.934 80.4616" stroke="#E8612A" stroke-width="0.5" stroke-linecap="round" stroke-linejoin="round"/>
<path d="M67.236 145.898C70.461 147.428 72.4485 143.565 69.4305 141.848C67.1805 140.568 65.5545 139.766 63.7305 138.827C63.187 138.513 62.5435 138.421 61.9339 138.569C61.3243 138.718 60.7955 139.096 60.4577 139.625C60.1198 140.154 59.9989 140.793 60.1201 141.408C60.2414 142.024 60.5954 142.569 61.1085 142.931C62.5605 143.847 64.2765 144.494 67.236 145.898Z" stroke="#E8612A" stroke-width="0.5" stroke-linecap="round" stroke-linejoin="round"/>
<path d="M71.0836 131.306C69.9436 130.622 69.1201 130.16 68.0056 129.506C67.4803 129.139 66.8309 128.996 66.2002 129.108C65.5695 129.221 65.0092 129.579 64.6426 130.104C64.276 130.629 64.1331 131.279 64.2454 131.91C64.3576 132.54 64.7158 133.101 65.2411 133.467C66.46 134.281 67.7364 135.005 69.0601 135.633" stroke="#E8612A" stroke-width="0.5" stroke-linecap="round" stroke-linejoin="round"/>
<path d="M65.8112 150.429C68.9747 151.826 70.8257 148.04 67.8632 146.468C65.6672 145.302 64.0397 144.567 62.2772 143.732C61.7454 143.433 61.1184 143.352 60.5282 143.506C59.938 143.66 59.4307 144.038 59.113 144.558C58.7954 145.079 58.6922 145.703 58.8252 146.298C58.9583 146.894 59.3171 147.414 59.8262 147.75C61.2512 148.575 62.9042 149.147 65.8112 150.429Z" stroke="#E8612A" stroke-width="0.5" stroke-linecap="round" stroke-linejoin="round"/>
<path d="M69.0003 135.752C67.8318 135.125 66.7998 134.652 65.6658 134.042C65.1215 133.704 64.4673 133.591 63.8413 133.727C63.2153 133.863 62.6667 134.236 62.3114 134.769C61.9561 135.302 61.822 135.953 61.9374 136.583C62.0528 137.213 62.4086 137.773 62.9298 138.146C64.4103 139.118 66.0993 139.815 69.0798 141.309C71.5638 142.553 72.9558 139.913 72.1008 138.174" stroke="#E8612A" stroke-width="0.5" stroke-linecap="round" stroke-linejoin="round"/>
<path d="M81.8852 141.281C82.7117 140.112 83.7887 139.667 84.4217 140.027C85.5512 140.672 85.6457 143.96 82.1417 150.885C78.4067 158.267 75.7847 160.353 74.5037 159.948C73.6187 159.668 73.4777 157.925 74.0192 156.158" stroke="#E8612A" stroke-width="0.5" stroke-linecap="round" stroke-linejoin="round"/>
<path d="M84.9003 143.817C82.9623 143.019 81.0003 141.597 80.4543 135.951C80.1888 133.251 79.8003 133.071 75.9543 131.192C71.4543 128.994 71.7078 129.392 68.3163 137.376C67.4823 139.34 70.5393 141.366 74.0733 135.666C71.3088 140.027 71.8233 144.366 74.3583 147.123" stroke="#E8612A" stroke-width="0.5" stroke-linecap="round" stroke-linejoin="round"/>
<path d="M222.9 57.4052C222.618 60.9677 218.297 61.0817 218.312 57.6332C218.322 55.0682 218.432 53.2442 218.54 51.1922C218.72 47.7722 223.281 47.8007 223.385 50.6222C223.451 52.3322 223.163 54.1277 222.9 57.4052Z" stroke="#E8612A" stroke-width="0.5" stroke-linecap="round" stroke-linejoin="round"/>
<path d="M208.397 54.7863C208.368 53.5323 208.388 52.6173 208.368 51.4203C208.316 48.1713 212.945 48.0243 213.156 50.7363C213.254 52.1208 213.254 53.5113 213.156 54.8973" stroke="#E8612A" stroke-width="0.5" stroke-linecap="round" stroke-linejoin="round"/>
<path d="M227.805 58.2317C227.448 61.7102 223.259 61.7087 223.388 58.3457C223.484 55.8662 223.64 54.0992 223.787 52.1327C224.034 48.8327 228.461 48.9692 228.461 51.6827C228.461 53.3297 228.131 55.0697 227.805 58.2317Z" stroke="#E8612A" stroke-width="0.5" stroke-linecap="round" stroke-linejoin="round"/>
<path d="M213.27 54.8686C213.299 53.5291 213.411 52.3891 213.441 51.1066C213.522 47.6296 218.165 47.5726 218.343 50.4226C218.453 52.1626 218.201 53.9851 218.03 57.3226C218.04 57.8203 217.89 58.3082 217.602 58.7142C217.313 59.1202 216.902 59.4227 216.429 59.5771C215.956 59.7308 215.445 59.7278 214.974 59.5684C214.502 59.4089 214.095 59.1016 213.812 58.6921" stroke="#E8612A" stroke-width="0.5" stroke-linecap="round" stroke-linejoin="round"/>
<path d="M211.674 68.9191C210.249 69.1471 209.337 69.8311 209.337 70.5436C209.337 71.8261 212.101 73.3606 219.825 73.2226C228.033 73.0726 231.142 71.6266 231.424 70.3156C231.627 69.3751 230.427 68.5156 228.631 68.2351" stroke="#E8612A" stroke-width="0.5" stroke-linecap="round" stroke-linejoin="round"/>
<path d="M212.387 72.6243C212.643 70.5438 212.376 68.1933 207.798 65.2428C205.599 63.8253 205.631 63.3903 205.917 59.1438C206.256 54.1278 206.46 54.5508 215.037 54.9828C217.146 55.0893 217.374 58.7163 210.705 59.4003C215.835 58.8303 219.341 61.1673 220.455 64.6158" stroke="#E8612A" stroke-width="0.5" stroke-linecap="round" stroke-linejoin="round"/>
<path d="M228.489 72.2536C228.318 66.3826 228.939 56.9206 228.489 52.3606" stroke="#E8612A" stroke-width="0.5" stroke-linecap="round" stroke-linejoin="round"/>
<path d="M209.337 70.5723C209.394 77.6973 209.337 95.9373 208.853 104.459C206.603 105.941 188.847 114.809 181.236 118.338C174.347 121.535 168.522 120.873 165.809 116.529C162.059 110.529 168.462 100.439 171.059 94.6548C172.968 90.4083 170.061 89.2683 167.895 91.4058C167.895 89.4963 165.387 88.8123 164.048 90.9213C163.905 89.0973 160.941 88.6713 159.516 91.1493C159.174 89.2113 155.868 89.6388 154.7 91.8333C154.358 90.1233 151.527 91.0833 151.023 93.6573C146.498 116.699 149.223 120.507 159.944 115.203C159.031 117.437 157.498 119.363 155.526 120.753" stroke="#E8612A" stroke-width="0.5" stroke-linecap="round" stroke-linejoin="round"/>
<path d="M231.425 70.3442C231.425 110.501 231.861 112.472 229.743 116.429C226.934 121.679 221.393 124.95 179.184 148.406C179.612 154.305 180.21 161.345 180.21 166.218" stroke="#E8612A" stroke-width="0.5" stroke-linecap="round" stroke-linejoin="round"/>
<path d="M84.4219 140.027C93.8269 145.67 106.595 151.484 108.191 152.225C115.316 149.318 138.882 138.683 148.541 132.332C154.182 128.624 155.808 120.96 155.837 116.856" stroke="#E8612A" stroke-width="0.5" stroke-linecap="round" stroke-linejoin="round"/>
<path d="M148.547 132.356C152.28 136.289 166.73 133.556 170.463 120.015" stroke="#E8612A" stroke-width="0.5" stroke-linecap="round" stroke-linejoin="round"/>
<path d="M149.715 101.096C153.399 100.019 157.22 99.481 161.058 99.4997C160.26 102.549 160.608 106.653 161.913 103.832C163.218 101.01 166.487 103.185 164.163 106.767C163.785 107.515 163.63 108.356 163.716 109.19C163.802 110.023 164.125 110.815 164.648 111.47" stroke="#E8612A" stroke-width="0.5" stroke-linecap="round" stroke-linejoin="round"/>
<path d="M125.718 233.364C138.6 228.747 159.696 220.947 173.684 212.759C181.61 208.119 189.245 194.234 177.873 174.483C180.011 166.983 184.4 151.512 186.573 144.303" stroke="#E8612A" stroke-width="0.5" stroke-linecap="round" stroke-linejoin="round"/>
<path d="M151.739 186.083C103.973 207.344 95.604 212.19 94.1115 221.109C92.838 228.72 96.078 236.357 124.35 282.759C132.216 284.897 146.979 280.137 150.228 271.509C141.735 254.259 132.9 236.859 130.079 231.809" stroke="#E8612A" stroke-width="0.5" stroke-linecap="round" stroke-linejoin="round"/>
<path d="M145.212 226.04C150.114 240.347 156.242 262.605 162.996 265.74C169.751 268.875 172.373 269.502 214.746 269.616C218.993 266.367 219.135 250.607 214.746 243.596C203.496 242.969 184.622 242.598 180.603 242.228C178.637 233.108 175.503 218.828 174.303 212.331" stroke="#E8612A" stroke-width="0.5" stroke-linecap="round" stroke-linejoin="round"/>
<path d="M148.888 274.034C150.906 275.706 152.74 277.588 154.36 279.648C150.94 289.196 137.41 307.265 126.288 314.133C125.632 306.752 128.368 291.818 131.845 283.04" stroke="#E8612A" stroke-width="0.5" stroke-linecap="round" stroke-linejoin="round"/>
<path d="M205.917 243.225C209.679 247.443 211.532 261.836 205.347 269.588" stroke="#E8612A" stroke-width="0.5" stroke-linecap="round" stroke-linejoin="round"/>
<path d="M119.22 274.319C127.884 276.228 141.57 272.751 145.953 262.862" stroke="#E8612A" stroke-width="0.5" stroke-linecap="round" stroke-linejoin="round"/>
<path d="M126.174 309.972C131.703 306.495 145.953 293.271 152.565 277.572" stroke="#E8612A" stroke-width="0.5" stroke-linecap="round" stroke-linejoin="round"/>
<path d="M215.978 246.075C217.691 245.876 219.422 245.876 221.136 246.075C225.953 249.975 239.405 266.111 239.576 280.56C231.824 279.51 220.281 271.868 216.576 266.937" stroke="#E8612A" stroke-width="0.5" stroke-linecap="round" stroke-linejoin="round"/>
<path d="M218.685 245.961C223.935 250.806 236.64 268.161 237.21 280.076" stroke="#E8612A" stroke-width="0.5" stroke-linecap="round" stroke-linejoin="round"/>
<path d="M133.214 152.225C133.955 161.088 137.114 185.114 137.714 192.353" stroke="#E8612A" stroke-width="0.5" stroke-linecap="round" stroke-linejoin="round"/>
<path d="M177.873 174.483C161.742 174.597 148.461 178.587 137.033 185.598" stroke="#E8612A" stroke-width="0.5" stroke-linecap="round" stroke-linejoin="round"/>
<path d="M136.434 272.067C130.221 260.012 117.339 232.509 114.575 226.752C127.457 220.254 160.203 206.631 165.846 203.126C171.489 199.62 173.712 195.117 167.727 175.11" stroke="#E8612A" stroke-width="0.5" stroke-linecap="round" stroke-linejoin="round"/>
<path d="M74.5322 159.956C101.522 176.279 105.855 178.049 112.608 176.193C120.254 173.92 127.707 171.042 134.895 167.586" stroke="#E8612A" stroke-width="0.5" stroke-linecap="round" stroke-linejoin="round"/>
<path d="M115.088 175.481C122.7 170.436 130.877 161.658 133.812 158.156" stroke="#E8612A" stroke-width="0.5" stroke-linecap="round" stroke-linejoin="round"/>
<path d="M147.92 234.219C151.283 230.229 161.001 220.824 164.507 217.632" stroke="#E8612A" stroke-width="0.5" stroke-linecap="round" stroke-linejoin="round"/>
<path d="M39.5059 109.019L40.4944 114.606" stroke="#E8612A" stroke-width="0.5" stroke-linecap="round" stroke-linejoin="round"/>
<path d="M52.3009 117.969L46.7134 118.958" stroke="#E8612A" stroke-width="0.5" stroke-linecap="round" stroke-linejoin="round"/>
<path d="M43.3503 130.766L42.3618 125.177" stroke="#E8612A" stroke-width="0.5" stroke-linecap="round" stroke-linejoin="round"/>
<path d="M30.5552 121.814L36.1457 120.824" stroke="#E8612A" stroke-width="0.5" stroke-linecap="round" stroke-linejoin="round"/>
<path d="M46.7134 118.958C46.0196 119.081 45.3084 119.066 44.6204 118.914C43.9323 118.762 43.2811 118.475 42.704 118.071C42.1268 117.667 41.6351 117.153 41.257 116.558C40.8788 115.964 40.6217 115.3 40.5004 114.606C40.6241 115.3 40.6096 116.012 40.4578 116.7C40.306 117.389 40.0198 118.041 39.6158 118.618C39.2117 119.196 38.6976 119.688 38.1029 120.067C37.5083 120.446 36.8448 120.703 36.1504 120.825C36.8443 120.702 37.5557 120.716 38.2438 120.868C38.932 121.02 39.5835 121.306 40.1609 121.711C40.7383 122.115 41.2303 122.629 41.6088 123.223C41.9873 123.818 42.2447 124.481 42.3664 125.175C42.2431 124.481 42.2578 123.77 42.4096 123.082C42.5614 122.394 42.8473 121.743 43.251 121.165C43.6548 120.588 44.1684 120.096 44.7625 119.717C45.3566 119.338 46.0195 119.08 46.7134 118.958Z" stroke="#E8612A" stroke-width="0.5" stroke-linecap="round" stroke-linejoin="round"/>
<path d="M251.061 193.607L252.477 201.62" stroke="#E8612A" stroke-width="0.5" stroke-linecap="round" stroke-linejoin="round"/>
<path d="M269.408 206.442L261.395 207.858" stroke="#E8612A" stroke-width="0.5" stroke-linecap="round" stroke-linejoin="round"/>
<path d="M256.574 224.789L255.156 216.776" stroke="#E8612A" stroke-width="0.5" stroke-linecap="round" stroke-linejoin="round"/>
<path d="M238.226 211.953L246.243 210.537" stroke="#E8612A" stroke-width="0.5" stroke-linecap="round" stroke-linejoin="round"/>
<path d="M261.395 207.858C260.399 208.035 259.379 208.014 258.392 207.796C257.405 207.578 256.471 207.168 255.642 206.589C254.813 206.01 254.107 205.273 253.564 204.42C253.02 203.567 252.651 202.616 252.477 201.62C252.654 202.615 252.634 203.635 252.416 204.622C252.199 205.609 251.79 206.543 251.211 207.372C250.632 208.2 249.894 208.906 249.042 209.449C248.19 209.992 247.239 210.362 246.243 210.537C247.742 210.271 249.285 210.456 250.679 211.068C252.072 211.68 253.252 212.692 254.07 213.975C254.613 214.829 254.982 215.78 255.156 216.776C254.98 215.78 255.001 214.76 255.218 213.773C255.436 212.786 255.846 211.852 256.425 211.023C257.004 210.194 257.741 209.488 258.594 208.945C259.447 208.401 260.399 208.032 261.395 207.858Z" stroke="#E8612A" stroke-width="0.5" stroke-linecap="round" stroke-linejoin="round"/>
<path d="M81.1158 80.0342C80.008 82.0728 78.9437 84.1347 77.9238 86.2187C70.2573 102.036 68.7468 112.496 68.7738 120.305C68.8023 124.152 69.1728 127.344 69.3738 130.251V130.28C69.9153 130.593 70.4238 130.907 71.0553 131.277C72.1953 129.477 73.1358 129.824 75.9288 131.192C79.7763 133.073 80.1468 133.244 80.4288 135.951C80.4573 136.293 80.4858 136.607 80.5428 136.92C83.2218 135.41 86.2713 133.899 89.7483 131.67C96.3318 127.424 104.255 120.47 113.289 105.393C114.429 103.484 115.598 101.493 116.766 99.3227L81.1158 80.0342ZM92.6298 111.242L90.8058 119.906L86.8503 111.983L78.0723 112.98L84.3723 106.739L80.7243 98.6732L88.5903 102.723L95.1168 96.7952L93.6918 105.545L101.387 109.905L92.6298 111.242Z" stroke="#E8612A" stroke-width="0.5" stroke-linejoin="round"/>
<path d="M69.3739 153.45C69.4309 150.855 70.6564 148.092 72.6739 144.33C72.2543 142.939 72.148 141.473 72.3624 140.036C72.5769 138.599 73.1069 137.228 73.9144 136.02C73.4031 136.811 72.8076 137.544 72.1384 138.206C72.9934 139.944 71.5969 142.595 69.1174 141.341L69.4594 141.881C72.4804 143.591 70.4854 147.468 67.2649 145.931L67.8649 146.474C70.8289 148.041 68.9764 151.832 65.7844 150.434C64.3879 149.808 63.2479 149.352 62.3074 148.953C59.8564 150.918 56.8069 151.376 51.7339 150.663L73.7359 162.576C70.5994 159.006 69.2884 156.329 69.3739 153.45Z" stroke="#E8612A" stroke-width="0.5" stroke-linejoin="round"/>
<path d="M51.0196 150.273L45.6616 157.286L71.5681 171.336L74.5321 163.013L51.0196 150.273Z" stroke="#E8612A" stroke-width="0.5" stroke-linejoin="round"/>
</svg>
