<svg width="300" height="821" viewBox="0 0 300 821" fill="none" xmlns="http://www.w3.org/2000/svg">
<rect y="0.305664" width="300" height="820" rx="16" fill="#FFFCEA"/>
<path d="M254.375 146.226C254.375 146.226 235.398 160.217 227.277 173.297C223.024 168.721 219.48 163.534 216.762 157.91C207.786 139.587 196.418 139.31 191.402 137.82C188.183 141.87 182.114 145.685 176.729 148.02C173.038 162.14 170.672 176.573 169.661 191.132C169.47 193.768 170.055 196.403 171.342 198.711L195.848 241.911C201.789 240.261 207.353 237.474 212.232 233.705C206.202 216.726 201.183 201.021 191.873 190.026C193.73 186.419 196.304 181.695 199.353 175.319C203.37 182.069 210.123 188.769 218.501 195.038C221.168 197.026 224.486 197.939 227.795 197.596C231.105 197.253 234.164 195.678 236.367 193.185L267.396 158.138C263.818 153.406 259.405 149.369 254.375 146.226Z" fill="#F2A83B"/>
<path d="M71.2712 154.604C71.2716 158.019 69.9151 161.295 67.5001 163.711C65.0851 166.127 61.8094 167.484 58.3937 167.484C54.978 167.485 51.702 166.128 49.2864 163.713C46.8709 161.298 45.5136 158.022 45.5132 154.607C45.513 152.915 45.8459 151.241 46.493 149.678C47.14 148.115 48.0885 146.695 49.2843 145.499C51.6993 143.084 54.975 141.727 58.3907 141.726C61.8064 141.726 65.0824 143.082 67.498 145.497C69.9135 147.912 71.2708 151.188 71.2712 154.604Z" fill="#F2A83B"/>
<path d="M98.9673 100.977L112.416 96.1622L97.8273 67.7822L69.6468 77.8697L72.8793 92.9492L52.5783 85.8182L51.2388 88.9817L74.6028 100.982L76.3503 109.106L78.5733 108.309C77.8608 107.538 78.9708 106.998 82.2483 106.97L97.0083 101.697C96.4308 100.008 96.2883 98.7272 98.9673 100.977Z" fill="#F2A83B"/>
<path fill-rule="evenodd" clip-rule="evenodd" d="M91.677 192.492C96.132 188.967 99.5067 184.26 101.417 178.91C102.135 176.384 102.519 173.787 102.572 171.186C103.653 170.856 104.765 170.637 105.891 170.532C110.288 170.128 114.667 171.485 118.064 174.306C121.462 177.127 123.601 181.18 124.013 185.577C124.388 189.635 123.262 193.689 120.848 196.973C118.434 200.256 114.9 202.54 110.915 203.392C106.93 204.244 102.771 203.606 99.2255 201.597C95.6799 199.588 92.9942 196.348 91.677 192.492ZM91.59 192.233C91.3135 191.234 91.0883 190.222 90.915 189.201C91.0452 190.23 91.2712 191.245 91.59 192.233Z" fill="#F2A83B"/>
<path d="M75.75 285.336C73.4694 281.701 70.2237 278.771 66.375 276.873C65.9546 281.166 66.8916 285.482 69.0541 289.214C71.2167 292.945 74.4957 295.904 78.429 297.674C78.7092 293.391 77.7809 289.117 75.75 285.336Z" fill="#EF853B"/>
<path d="M101.417 178.91C99.5051 184.265 96.1265 188.974 91.6666 192.501C90.0979 187.037 90.0922 181.242 91.6501 175.775C93.56 170.419 96.9388 165.709 101.4 162.183C102.964 167.648 102.97 173.442 101.417 178.91Z" fill="#EF853B"/>
<path d="M51.6946 138.419C49.9262 136.586 48.703 134.297 48.1621 131.808C50.6684 132.257 52.9983 133.4 54.8866 135.108C56.6542 136.942 57.8773 139.23 58.4191 141.719C55.9128 141.27 53.5829 140.127 51.6946 138.419Z" fill="#EF853B"/>
<path d="M70.5301 227.756C66.349 224.52 62.4933 220.884 59.0176 216.9C57.9325 220.722 57.5368 224.707 57.8491 228.668C58.7205 235.656 61.534 242.261 65.9701 247.731C69.3027 241.62 70.8809 234.707 70.5301 227.756Z" fill="#EF853B"/>
<path d="M161.712 109.383C161.881 110.78 163.021 111.549 165.586 112.005C165.987 111.15 166.357 110.295 166.698 109.44C164.19 110.21 162.025 110.495 161.712 109.383Z" fill="#EF853B"/>
<path d="M183.709 109.497C183.709 109.497 188.125 101.805 181.23 97.6727C167.952 89.7227 165.045 99.2402 165.045 99.2402C165.78 99.1502 166.527 99.2102 167.239 99.4112C166.698 100.892 166.639 102.915 167.553 101.889C169.177 100.122 170.914 102.773 167.781 104.939C169.307 113.692 172.858 121.966 178.152 129.102C179.627 131.258 181.708 132.929 184.132 133.903C186.557 134.876 189.215 135.11 191.772 134.573C193.51 134.286 195.144 133.555 196.517 132.451C197.89 131.348 198.954 129.908 199.608 128.273C205.108 114.143 183.709 109.497 183.709 109.497Z" fill="#EF853B"/>
<path d="M160.572 132.777C159.758 133.437 158.909 134.054 158.031 134.627C158.031 134.627 160.998 137.477 165.045 140.642L160.572 132.777Z" fill="#EF853B"/>
<path d="M215.679 244.646C213.514 241.541 212.229 239.889 211.179 238.238C207.583 239.773 204.169 241.702 201 243.992L202.596 246.812C205.531 262.227 208.351 267.983 212.712 274.821C215.28 268.296 216.676 250.344 215.679 244.646Z" fill="#EF853B"/>
<path d="M262.98 139.901C260.757 142.95 259.56 144.687 258.365 146.201C260.968 149.11 263.882 151.726 267.054 154.001L269.277 151.58C282.9 143.805 287.457 139.274 292.5 132.956C285.491 132.635 268.05 137.109 262.98 139.901Z" fill="#EF853B"/>
<path d="M124.868 79.2076C141.004 80.3268 156.437 86.2517 169.176 96.2191" stroke="#E8612A" stroke-width="0.5" stroke-linecap="round" stroke-linejoin="round"/>
<path d="M182.171 217.776C168.861 232.57 150.642 242.04 130.886 244.432C111.131 246.825 91.1777 241.979 74.7211 230.79C63.8155 223.376 54.8518 213.449 48.5853 201.845C42.3188 190.242 38.9332 177.302 38.7136 164.117C38.5039 151.571 41.1657 139.144 46.4956 127.785C51.8255 116.426 59.6822 106.437 69.4652 98.5801" stroke="#E8612A" stroke-width="0.5" stroke-linecap="round" stroke-linejoin="round"/>
<path d="M201.688 178.796C200.509 184.746 198.675 190.546 196.218 196.092" stroke="#E8612A" stroke-width="0.5" stroke-linecap="round" stroke-linejoin="round"/>
<path d="M197.272 131.865C198.394 134.631 199.364 137.456 200.178 140.328" stroke="#E8612A" stroke-width="0.5" stroke-linecap="round" stroke-linejoin="round"/>
<path d="M133.388 130.64C152.765 115.34 161.711 113.658 166.388 116.621C170.423 119.18 173.127 124.515 175.884 125.702" stroke="#E8612A" stroke-width="0.5" stroke-linecap="round" stroke-linejoin="round"/>
<path d="M188.04 134.858C189.111 135.902 190.244 136.883 191.43 137.792" stroke="#E8612A" stroke-width="0.5" stroke-linecap="round" stroke-linejoin="round"/>
<path d="M165.045 99.2402C165.045 99.2402 167.952 89.7197 181.23 97.6727C188.13 101.802 183.709 109.497 183.709 109.497C183.709 109.497 205.087 114.134 199.609 128.276C198.956 129.912 197.892 131.351 196.519 132.455C195.146 133.559 193.511 134.289 191.773 134.576C189.217 135.114 186.558 134.881 184.133 133.907C181.709 132.934 179.628 131.262 178.153 129.105C172.862 121.968 169.31 113.694 167.782 104.942C170.916 102.776 169.162 100.112 167.554 101.892C166.633 102.911 166.699 100.896 167.241 99.4142C166.527 99.2124 165.781 99.1533 165.045 99.2402Z" stroke="#E8612A" stroke-width="0.5" stroke-linecap="round" stroke-linejoin="round"/>
<path d="M165.587 112.005C159.546 110.922 161.426 108.129 165.045 99.2402" stroke="#E8612A" stroke-width="0.5" stroke-linecap="round" stroke-linejoin="round"/>
<path d="M163.734 115.595C164.88 113.629 165.862 111.572 166.67 109.445C164.162 110.214 161.996 110.495 161.682 109.359" stroke="#E8612A" stroke-width="0.5" stroke-linecap="round" stroke-linejoin="round"/>
<path d="M152.4 118.046C143.25 113.202 118.719 95.3357 118.719 95.3357C120.287 89.5232 123.219 85.3051 127.638 82.8271C127.638 82.8271 149.351 98.6131 162.486 105.566" stroke="#E8612A" stroke-width="0.5" stroke-linecap="round" stroke-linejoin="round"/>
<path d="M199.38 175.29C203.398 182.04 210.15 188.742 218.529 195.009C221.196 196.997 224.514 197.91 227.823 197.567C231.132 197.223 234.191 195.649 236.394 193.157L267.396 158.138C263.796 153.418 259.387 149.375 254.374 146.198C254.374 146.198 229.156 164.777 224.4 179.138" stroke="#E8612A" stroke-width="0.5" stroke-linecap="round" stroke-linejoin="round"/>
<path d="M191.857 190.193C201.204 201.192 206.191 216.665 212.232 233.676C207.353 237.446 201.788 240.233 195.847 241.883L171.342 198.713C170.054 196.404 169.469 193.77 169.66 191.133C170.67 176.565 173.035 162.123 176.727 147.993C182.113 145.656 188.182 141.843 191.401 137.793C196.417 139.275 207.786 139.56 216.762 157.883C219.476 163.502 223.015 168.684 227.262 173.256" stroke="#E8612A" stroke-width="0.5" stroke-linecap="round" stroke-linejoin="round"/>
<path d="M189.864 194.24C191.43 190.592 195.201 183.986 198.414 177.371C209.127 155.301 202.914 150.558 201.114 148.278" stroke="#E8612A" stroke-width="0.5" stroke-linecap="round" stroke-linejoin="round"/>
<path d="M158.031 134.627C158.909 134.054 159.757 133.437 160.572 132.777L165.045 140.642" stroke="#E8612A" stroke-width="0.5" stroke-linecap="round" stroke-linejoin="round"/>
<path d="M176.756 147.993C170.798 145.514 162.72 139.125 158.031 134.627C153.067 138.02 147.912 141.126 142.592 143.927C135.896 147.117 132.083 144.977 125.067 139.965C116.952 134.172 105.35 125.775 105.35 125.775C105.742 122.809 106.829 119.977 108.524 117.511C110.218 115.045 112.471 113.015 115.1 111.585C122.753 116.711 130.387 121.866 138 127.05" stroke="#E8612A" stroke-width="0.5" stroke-linecap="round" stroke-linejoin="round"/>
<path d="M114.04 82.1432C115.84 83.9087 118.06 81.7697 116.433 79.9487C115.215 78.6044 113.971 77.2842 112.701 75.9887C112.413 75.6441 112.002 75.4254 111.555 75.379C111.109 75.3327 110.661 75.4624 110.309 75.7405C109.956 76.0187 109.726 76.4234 109.667 76.8686C109.608 77.3138 109.725 77.7644 109.993 78.1247C110.778 79.0772 112.387 80.5187 114.04 82.1432Z" stroke="#E8612A" stroke-width="0.5" stroke-linecap="round" stroke-linejoin="round"/>
<path d="M120 73.2811C119.4 72.5686 118.95 72.0496 118.375 71.3716C118.102 71.019 117.702 70.7869 117.26 70.7248C116.818 70.6627 116.369 70.7755 116.009 71.0391C115.649 71.3028 115.407 71.6965 115.332 72.1365C115.258 72.5765 115.359 73.0281 115.612 73.3951C116.239 74.2096 116.917 74.9851 117.643 75.7111" stroke="#E8612A" stroke-width="0.5" stroke-linecap="round" stroke-linejoin="round"/>
<path d="M117.573 75.7891C116.946 75.1051 115.463 73.5961 114.839 72.9106C114.552 72.5649 114.142 72.3434 113.696 72.2926C113.25 72.2418 112.801 72.3656 112.444 72.638C112.087 72.9105 111.849 73.3105 111.78 73.7544C111.711 74.1983 111.816 74.6517 112.074 75.0196C112.838 75.9931 114.705 77.8021 116.348 79.4926C117.725 80.9101 119.255 79.4356 119.112 78.0961" stroke="#E8612A" stroke-width="0.5" stroke-linecap="round" stroke-linejoin="round"/>
<path d="M109.481 82.4852C109.481 82.4852 108.914 86.9462 119.327 93.3437" stroke="#E8612A" stroke-width="0.5" stroke-linecap="round" stroke-linejoin="round"/>
<path d="M101.25 75.1622C104.07 70.0892 110.634 65.0792 116.464 68.2952C117.384 68.8161 118.173 69.5374 118.775 70.4055C119.377 71.2737 119.776 72.2663 119.941 73.3097" stroke="#E8612A" stroke-width="0.5" stroke-linecap="round" stroke-linejoin="round"/>
<path d="M74.5753 100.92L51.2383 88.9817L52.5778 85.8182L72.8653 92.9132" stroke="#E8612A" stroke-width="0.5" stroke-linecap="round" stroke-linejoin="round"/>
<path d="M82.2407 106.962L96.9752 101.699" stroke="#E8612A" stroke-width="0.5" stroke-linecap="round" stroke-linejoin="round"/>
<path d="M98.9672 100.977L112.416 96.1907L97.8272 67.7822L69.6182 77.8682L76.3427 109.07L78.5372 108.3" stroke="#E8612A" stroke-width="0.5" stroke-linecap="round" stroke-linejoin="round"/>
<path d="M7.5 132.692L12.4005 122.406L28.2435 117.134L33.516 100.151" stroke="#E8612A" stroke-width="0.5" stroke-linecap="round" stroke-linejoin="round"/>
<path d="M27.5879 103.628L33.5444 100.067L36.5354 106.307" stroke="#E8612A" stroke-width="0.5" stroke-linecap="round" stroke-linejoin="round"/>
<path d="M199.181 240.885L202.601 246.812C205.536 262.227 208.356 267.983 212.717 274.821C215.28 268.325 216.677 250.344 215.679 244.646C213.473 241.724 211.42 238.69 209.529 235.556" stroke="#E8612A" stroke-width="0.5" stroke-linecap="round" stroke-linejoin="round"/>
<path d="M211.171 238.238C207.571 239.776 204.154 241.712 200.983 244.008" stroke="#E8612A" stroke-width="0.5" stroke-linecap="round" stroke-linejoin="round"/>
<path d="M262.838 152.922L246.909 169.335" stroke="#E8612A" stroke-width="0.5" stroke-linecap="round" stroke-linejoin="round"/>
<path d="M258.308 146.198C260.931 149.108 263.864 151.723 267.054 153.998" stroke="#E8612A" stroke-width="0.5" stroke-linecap="round" stroke-linejoin="round"/>
<path d="M265.459 155.772L269.22 151.584C282.84 143.834 287.4 139.302 292.443 132.977C285.433 132.663 267.993 137.138 262.923 139.929C261.055 142.696 259.039 145.36 256.882 147.908" stroke="#E8612A" stroke-width="0.5" stroke-linecap="round" stroke-linejoin="round"/>
<path d="M204.213 238.685L191.004 213.416" stroke="#E8612A" stroke-width="0.5" stroke-linecap="round" stroke-linejoin="round"/>
<path d="M105.777 123.656C101.996 120.263 97.9142 117.221 93.582 114.567C90.1155 112.66 86.4447 111.151 82.6395 110.067C77.058 108.488 76.6275 106.88 82.953 106.962C89.673 107.502 96.288 108.959 102.614 111.293" stroke="#E8612A" stroke-width="0.5" stroke-linecap="round" stroke-linejoin="round"/>
<path d="M99.2803 110.096C102.556 110.238 97.9648 104.342 97.3138 102.63C96.4258 100.296 95.5559 97.6637 100.534 102.431C104.663 106.055 109.01 109.424 113.55 112.518" stroke="#E8612A" stroke-width="0.5" stroke-linecap="round" stroke-linejoin="round"/>
<path d="M87.7393 111.806C86.2858 111.777 83.2663 111.926 82.3828 111.977C78.3673 112.206 78.7048 113.294 79.3333 113.459C81.8068 114.108 85.9138 114.659 88.1953 115.31C91.8673 116.351 99.0523 118.131 101.616 120.269" stroke="#E8612A" stroke-width="0.5" stroke-linecap="round" stroke-linejoin="round"/>
<path d="M87.9224 115.235C87.2594 115.373 86.7359 115.484 86.4224 115.566C82.4909 116.421 83.0038 117.479 83.6593 117.533C86.2228 117.744 90.3553 117.642 92.7208 117.903C95.5753 118.286 98.3879 118.935 101.121 119.841" stroke="#E8612A" stroke-width="0.5" stroke-linecap="round" stroke-linejoin="round"/>
<path d="M71.2708 154.604C71.271 156.295 70.938 157.97 70.2909 159.533C69.6437 161.096 68.6951 162.516 67.4992 163.712C65.0839 166.128 61.8079 167.485 58.3918 167.486C56.7003 167.486 55.0253 167.153 53.4625 166.506C51.8997 165.859 50.4796 164.91 49.2834 163.714C46.8676 161.299 45.5102 158.023 45.5098 154.607C45.5094 151.191 46.866 147.914 49.2813 145.498C51.6966 143.083 54.9726 141.725 58.3888 141.725C61.8049 141.724 65.0812 143.081 67.4971 145.496C69.9129 147.912 71.2704 151.188 71.2708 154.604Z" stroke="#E8612A" stroke-width="0.5" stroke-linecap="round" stroke-linejoin="round"/>
<path d="M102.669 171.156C103.72 170.843 104.799 170.634 105.891 170.532C110.288 170.128 114.666 171.486 118.064 174.306C121.461 177.127 123.601 181.181 124.013 185.577C124.387 189.634 123.262 193.687 120.849 196.97C118.436 200.253 114.903 202.537 110.919 203.39C106.935 204.243 102.777 203.605 99.2315 201.598C95.6859 199.591 92.9993 196.354 91.6802 192.5" stroke="#E8612A" stroke-width="0.5" stroke-linecap="round" stroke-linejoin="round"/>
<path d="M49.7851 234.759C56.2692 237.513 61.848 242.036 65.8846 247.809C59.0123 249.348 51.8464 248.933 45.1981 246.609C38.7146 243.854 33.136 239.332 29.0986 233.559C35.9709 232.019 43.137 232.435 49.7851 234.759Z" stroke="#E8612A" stroke-width="0.5" stroke-linecap="round" stroke-linejoin="round"/>
<path d="M75.7502 285.336C77.7853 289.115 78.7139 293.391 78.4292 297.674C74.4963 295.904 71.2177 292.945 69.0552 289.213C66.8928 285.481 65.9554 281.166 66.3752 276.873C70.2264 278.768 73.473 281.698 75.7502 285.336Z" stroke="#E8612A" stroke-width="0.5" stroke-linecap="round" stroke-linejoin="round"/>
<path d="M125.295 194.981C121.378 199.092 116.381 202.016 110.877 203.415C111.482 197.742 113.855 192.402 117.658 188.15C121.462 183.897 126.506 180.947 132.076 179.715C131.28 185.335 128.932 190.622 125.295 194.981Z" stroke="#E8612A" stroke-width="0.5" stroke-linecap="round" stroke-linejoin="round"/>
<path d="M101.417 178.91C99.5051 184.265 96.1265 188.974 91.6666 192.501C90.0979 187.037 90.0922 181.242 91.6501 175.775C93.56 170.419 96.9388 165.709 101.4 162.183C102.965 167.648 102.97 173.442 101.417 178.91Z" stroke="#E8612A" stroke-width="0.5" stroke-linecap="round" stroke-linejoin="round"/>
<path d="M51.6946 138.419C49.9263 136.586 48.7031 134.297 48.1621 131.808C50.6684 132.257 52.9983 133.4 54.8866 135.108C56.6543 136.941 57.8773 139.23 58.4191 141.719C55.9128 141.27 53.5829 140.127 51.6946 138.419Z" stroke="#E8612A" stroke-width="0.5" stroke-linecap="round" stroke-linejoin="round"/>
<path d="M60.1592 167.363C61.1267 183.365 62.1602 193.995 79.1627 220.283C94.3382 243.758 77.7917 265.509 78.2042 292.652" stroke="#E8612A" stroke-width="0.5" stroke-linecap="round" stroke-linejoin="round"/>
<path d="M98.9668 201.506C98.9668 201.506 85.8343 214.638 85.4668 238.856" stroke="#E8612A" stroke-width="0.5" stroke-linecap="round" stroke-linejoin="round"/>
<path d="M65.9702 247.724C65.9702 247.724 80.6447 256.244 79.0487 280.292" stroke="#E8612A" stroke-width="0.5" stroke-linecap="round" stroke-linejoin="round"/>
<path d="M98.5111 296.534C98.2533 295.582 97.6283 294.771 96.7733 294.28C95.9183 293.789 94.9033 293.657 93.9511 293.913L63.5206 302.061C62.9295 302.22 62.3867 302.522 61.9404 302.94C61.4941 303.359 61.158 303.882 60.9622 304.461C60.7663 305.041 60.7166 305.66 60.8175 306.264C60.9184 306.868 61.1668 307.437 61.5406 307.922C61.8383 308.309 62.2097 308.634 62.6334 308.878C63.0572 309.121 63.5248 309.278 64.0096 309.341C64.4941 309.404 64.9846 309.371 65.4571 309.243L95.8891 301.094C96.8407 300.835 97.6512 300.21 98.1427 299.356C98.6342 298.501 98.7667 297.486 98.5111 296.534Z" stroke="#E8612A" stroke-width="0.5" stroke-linecap="round" stroke-linejoin="round"/>
<path d="M62.0998 149.156L56.3428 149.669C55.6991 149.764 55.116 150.101 54.713 150.612C54.31 151.123 54.1175 151.769 54.175 152.417C54.2325 153.065 54.5357 153.667 55.0223 154.098C55.509 154.53 56.1424 154.76 56.7928 154.74L60.0133 154.455C60.6659 154.432 61.3027 154.66 61.7922 155.092C62.2818 155.524 62.5868 156.128 62.6445 156.778C62.7022 157.429 62.5082 158.077 62.1024 158.588C61.6965 159.1 61.1099 159.436 60.4633 159.528L54.7078 160.07" stroke="#E8612A" stroke-width="0.5" stroke-linecap="round" stroke-linejoin="round"/>
<path d="M57.7637 147.623L59.0462 161.585" stroke="#E8612A" stroke-width="0.5" stroke-linecap="round" stroke-linejoin="round"/>
<path d="M114.952 184.209L108.825 180.705C108.103 180.293 107.247 180.185 106.446 180.404C105.645 180.623 104.963 181.152 104.551 181.874C104.14 182.595 104.031 183.451 104.25 184.252C104.47 185.054 104.998 185.735 105.72 186.147L109.138 188.114C109.496 188.317 109.81 188.589 110.062 188.914C110.315 189.239 110.501 189.611 110.609 190.008C110.718 190.405 110.747 190.819 110.695 191.228C110.643 191.636 110.511 192.03 110.307 192.387C110.103 192.745 109.831 193.058 109.506 193.31C109.181 193.563 108.809 193.748 108.412 193.857C108.015 193.965 107.601 193.995 107.193 193.943C106.785 193.891 106.391 193.76 106.033 193.556L99.8833 190.052" stroke="#E8612A" stroke-width="0.5" stroke-linecap="round" stroke-linejoin="round"/>
<path d="M111.675 179.651L103.184 194.582" stroke="#E8612A" stroke-width="0.5" stroke-linecap="round" stroke-linejoin="round"/>
<path d="M113.471 275.049C114.358 275.411 115.35 275.417 116.241 275.065C117.133 274.713 117.853 274.031 118.254 273.16C118.654 272.29 118.703 271.298 118.391 270.393C118.078 269.487 117.428 268.737 116.576 268.299L97.5991 259.665C96.706 259.266 95.6915 259.235 94.7759 259.58C93.8603 259.924 93.1174 260.616 92.7085 261.504C92.2995 262.393 92.2575 263.407 92.5915 264.326C92.9255 265.246 93.6086 265.996 94.4926 266.415L113.471 275.049Z" stroke="#E8612A" stroke-width="0.5" stroke-linecap="round" stroke-linejoin="round"/>
<path d="M155.841 252.453C155.895 253.555 155.621 254.648 155.053 255.594C154.486 256.54 153.65 257.296 152.652 257.766C151.655 258.237 150.54 258.401 149.449 258.239C148.358 258.077 147.34 257.595 146.523 256.854C145.706 256.113 145.126 255.147 144.859 254.076C144.591 253.006 144.647 251.88 145.02 250.842C145.33 249.979 145.848 249.206 146.528 248.591C147.208 247.975 148.029 247.537 148.919 247.315C149.809 247.093 150.739 247.093 151.629 247.316C152.518 247.539 153.339 247.978 154.019 248.594C154.562 249.085 155.002 249.679 155.315 250.341C155.628 251.004 155.807 251.721 155.841 252.453Z" stroke="#E8612A" stroke-width="0.5" stroke-linecap="round" stroke-linejoin="round"/>
<path d="M170.915 265.902C170.969 267.004 170.695 268.097 170.127 269.043C169.56 269.989 168.724 270.745 167.726 271.215C166.729 271.687 165.614 271.853 164.523 271.691C163.431 271.528 162.413 271.045 161.597 270.303C160.779 269.562 160.2 268.595 159.932 267.525C159.664 266.455 159.72 265.329 160.092 264.291C160.464 263.252 161.136 262.347 162.023 261.691C162.91 261.034 163.972 260.655 165.074 260.603C165.805 260.566 166.537 260.674 167.227 260.92C167.917 261.167 168.552 261.547 169.095 262.04C169.637 262.532 170.077 263.127 170.39 263.789C170.702 264.452 170.88 265.17 170.915 265.902Z" stroke="#E8612A" stroke-width="0.5" stroke-linecap="round" stroke-linejoin="round"/>
<path d="M145.669 272.712L169.917 245.957" stroke="#E8612A" stroke-width="0.5" stroke-linecap="round" stroke-linejoin="round"/>
<path d="M230.211 118.73L230.866 132.35" stroke="#E8612A" stroke-width="0.5" stroke-linecap="round" stroke-linejoin="round"/>
<path d="M237.363 125.198L223.714 125.882" stroke="#E8612A" stroke-width="0.5" stroke-linecap="round" stroke-linejoin="round"/>
<path d="M126.264 83.7107C124.241 81.0887 125.33 76.4402 123.473 74.2502C121.17 71.5382 120.839 72.1607 116.723 76.7297C115.724 77.8382 117.293 79.9202 120.969 76.9007C119.743 77.7248 118.835 78.9421 118.394 80.3519C117.952 81.7616 118.005 83.2797 118.542 84.6557" stroke="#E8612A" stroke-width="0.5" stroke-linecap="round" stroke-linejoin="round"/>
<path d="M108.285 88.4401L112.046 84.8506" stroke="#E8612A" stroke-width="0.5" stroke-linecap="round" stroke-linejoin="round"/>
<path d="M112.05 84.8506C113.841 86.5006 115.95 84.4006 114.33 82.6846C113.13 81.4081 112.221 80.5471 111.224 79.5496C110.936 79.2235 110.533 79.0224 110.099 78.9891C109.665 78.9559 109.236 79.0931 108.902 79.3715C108.568 79.65 108.356 80.0477 108.311 80.4802C108.266 80.9126 108.391 81.3456 108.66 81.6871C109.412 82.5556 110.388 83.3161 112.05 84.8506Z" stroke="#E8612A" stroke-width="0.5" stroke-linecap="round" stroke-linejoin="round"/>
<path d="M70.4221 226.706C69.4235 220.006 66.6466 213.696 62.3806 208.434C58.9973 214.614 57.4266 221.623 57.8491 228.656C58.7205 235.644 61.534 242.249 65.9701 247.719C69.5185 241.316 71.069 233.998 70.4221 226.706Z" stroke="#E8612A" stroke-width="0.5" stroke-linecap="round" stroke-linejoin="round"/>
<path d="M110.934 129.843C112.024 123.905 115.31 118.595 120.138 114.969" stroke="#E8612A" stroke-width="0.5" stroke-linecap="round" stroke-linejoin="round"/>
<path d="M123.672 98.9057C125.24 93.9001 128.289 89.4882 132.418 86.2532" stroke="#E8612A" stroke-width="0.5" stroke-linecap="round" stroke-linejoin="round"/>
</svg>
