<svg width="17" height="25" viewBox="0 0 17 25" fill="none" xmlns="http://www.w3.org/2000/svg">
<path fill-rule="evenodd" clip-rule="evenodd" d="M8.755 0.97876C7.12232 0.97876 5.5263 1.46291 4.16877 2.36998C2.81124 3.27705 1.75318 4.5663 1.12838 6.07471C0.503577 7.58311 0.3401 9.24292 0.658621 10.8442C0.977142 12.4455 1.76335 13.9164 2.91784 15.0709C4.07232 16.2254 5.54322 17.0116 7.14453 17.3301C8.74585 17.6487 10.4057 17.4852 11.9141 16.8604C13.4225 16.2356 14.7117 15.1775 15.6188 13.82C16.5259 12.4625 17.01 10.8664 17.01 9.23376C17.01 8.1497 16.7965 7.07625 16.3816 6.07471C15.9668 5.07317 15.3587 4.16314 14.5922 3.39659C13.8256 2.63005 12.9156 2.02199 11.9141 1.60713C10.9125 1.19228 9.83907 0.97876 8.755 0.97876ZM8.755 15.0115C7.61227 15.0115 6.49519 14.6727 5.54504 14.0378C4.59489 13.4029 3.85434 12.5006 3.41703 11.4448C2.97973 10.3891 2.86531 9.22735 3.08824 8.10657C3.31118 6.98579 3.86146 5.95629 4.6695 5.14825C5.47753 4.34022 6.50704 3.78994 7.62782 3.567C8.74859 3.34406 9.91031 3.45848 10.9661 3.89579C12.0218 4.3331 12.9242 5.07365 13.5591 6.0238C14.1939 6.97395 14.5328 8.09102 14.5328 9.23376C14.5328 10.7661 13.9241 12.2357 12.8405 13.3193C11.757 14.4028 10.2874 15.0115 8.755 15.0115Z" fill="#2D2C2B"/>
<path fill-rule="evenodd" clip-rule="evenodd" d="M12.8786 18.2327V24.0899L8.75475 22.436L4.63086 24.0899V18.2327C5.92434 18.8273 7.33113 19.1352 8.75475 19.1352C10.1784 19.1352 11.5852 18.8273 12.8786 18.2327Z" fill="#2D2C2B"/>
<path d="M8.75475 13.3579C11.0323 13.3579 12.8786 11.5116 12.8786 9.234C12.8786 6.95644 11.0323 5.11011 8.75475 5.11011C6.47719 5.11011 4.63086 6.95644 4.63086 9.234C4.63086 11.5116 6.47719 13.3579 8.75475 13.3579Z" fill="#2D2C2B"/>
</svg>
