<svg width="32" height="25" viewBox="0 0 32 25" fill="none" xmlns="http://www.w3.org/2000/svg">
<path d="M0 17.6302C0 21.4447 2.9404 24.3057 6.6755 24.3057C10.4106 24.3057 13.351 21.4447 13.351 17.6302C13.351 15.0077 11.9205 12.7825 9.77484 11.7494L14.2252 0.305664H7.94702L2.06623 11.7494C0.715232 14.3719 0 16.0408 0 17.6302ZM17.0066 17.6302C17.0066 21.4447 19.947 24.3057 23.6821 24.3057C27.4967 24.3057 30.3576 21.4447 30.3576 17.6302C30.3576 15.0077 28.9272 12.7825 26.7815 11.7494L31.2318 0.305664H24.9536L19.0729 11.7494C17.7219 14.3719 17.0066 16.0408 17.0066 17.6302Z" fill="#E8612A"/>
</svg>
