<svg width="36" height="37" viewBox="0 0 36 37" fill="none" xmlns="http://www.w3.org/2000/svg">
<path fill-rule="evenodd" clip-rule="evenodd" d="M18 0.458496C8.05887 0.458496 0 8.51737 0 18.4585C0 28.3996 8.05887 36.4585 18 36.4585C27.9411 36.4585 36 28.3996 36 18.4585C36 8.51737 27.9411 0.458496 18 0.458496ZM21.0271 11.1567V11.16C21.0271 11.1632 20.9567 11.1757 20.816 11.1973C20.6754 11.2189 20.5023 11.2648 20.2967 11.335C20.0911 11.4053 19.8665 11.5079 19.6231 11.643C19.3796 11.7781 19.1632 11.932 18.9739 12.1049C18.7845 12.2778 18.6303 12.4453 18.5113 12.6074C18.3923 12.7695 18.296 12.9137 18.2224 13.0402C18.1499 13.1677 18.0757 13.3368 18 13.5475C17.9243 13.7582 17.8675 13.9662 17.8296 14.1715C17.7917 14.3768 17.7728 14.601 17.7728 14.8442C17.7728 15.0873 17.7836 15.2764 17.8052 15.4114L17.8377 15.6141L17.8426 15.6384L17.8458 15.6627L17.7322 15.6594C17.6565 15.6562 17.5158 15.6438 17.3102 15.6222C17.1046 15.6005 16.7989 15.5519 16.3931 15.4763C15.9874 15.4006 15.7006 15.3385 15.5329 15.2899C15.3652 15.2413 15.073 15.1386 14.6564 14.9819C14.2399 14.8252 13.8503 14.6497 13.4878 14.4551C13.1253 14.2606 12.7953 14.0634 12.4977 13.8635C12.2002 13.6636 11.9594 13.488 11.7755 13.3368C11.5915 13.1855 11.4833 13.0899 11.4509 13.0499C11.4184 13.0088 11.3914 12.984 11.3697 12.9753C11.3481 12.9678 11.2372 12.864 11.037 12.6641C10.8368 12.4642 10.6637 12.2832 10.5176 12.1211L10.2985 11.878L10.2952 11.8731L10.2904 11.8699L10.2822 11.8537L10.2741 11.8375L10.2693 11.8342L10.266 11.8294L10.2628 11.8245L10.2579 11.8213L10.253 11.818L10.2498 11.8132L10.2465 11.8083L10.2417 11.8051L10.2368 11.8083L10.2335 11.8132L10.2303 11.818L10.2254 11.8213L10.2173 11.8456L10.2092 11.8699L10.0712 12.1779C9.97927 12.3832 9.90893 12.5777 9.86023 12.7614C9.81154 12.9451 9.77908 13.1099 9.76285 13.2557C9.74662 13.4016 9.74121 13.5772 9.74662 13.7825C9.75204 13.9878 9.77639 14.1958 9.81966 14.4065C9.86294 14.6172 9.92625 14.8263 10.0096 15.0338C10.094 15.2423 10.174 15.4142 10.2498 15.5492C10.325 15.6835 10.4119 15.811 10.5095 15.9301C10.6069 16.049 10.7042 16.1624 10.8016 16.2705C10.899 16.3786 10.9921 16.4666 11.0808 16.5347C11.1706 16.6017 11.2171 16.6362 11.2204 16.6384L11.2236 16.6433L11.2399 16.6514L11.2561 16.6595L11.2593 16.6644L11.2642 16.6676L11.2691 16.6708L11.2723 16.6757L11.2885 16.6838L11.3048 16.6919L11.308 16.6968L11.3129 16.7L11.3178 16.7033L11.321 16.7081L11.3243 16.713L11.3291 16.7162L11.334 16.7195L11.3372 16.7243H11.1912L11.1181 16.7162C11.0694 16.7108 10.9207 16.6811 10.6718 16.6271C10.4229 16.5731 10.2146 16.5082 10.0469 16.4326L9.79531 16.3191L9.77908 16.311L9.76285 16.3029L9.74662 16.2948L9.73039 16.2867L9.71416 16.2818L9.69793 16.2786L9.72716 16.619C9.74562 16.8463 9.78472 17.0714 9.844 17.2916C9.90352 17.5131 9.99279 17.7455 10.1118 17.9886C10.2308 18.2317 10.3661 18.4451 10.5176 18.6288C10.6691 18.8125 10.8081 18.9627 10.9347 19.0794C11.0618 19.1945 11.1962 19.3012 11.3372 19.3987C11.4779 19.496 11.6673 19.5959 11.9053 19.6986C12.1434 19.8012 12.2895 19.8607 12.3436 19.8769C12.3977 19.8931 12.4355 19.9039 12.4572 19.9093L12.4896 19.9174L12.5221 19.9255L12.5546 19.9336L12.587 19.9417L12.6195 19.9498L12.6162 19.9547L12.6114 19.9579L12.6065 19.9611L12.6032 19.966L12.5627 19.9741L12.5221 19.9822L12.4896 19.9903C12.468 19.9957 12.4085 20.0065 12.3111 20.0227C12.2137 20.0389 12.0379 20.0498 11.7836 20.0552C11.5293 20.0606 11.3427 20.0552 11.2236 20.0389L11.0451 20.0146L11.0207 20.0098L10.9964 20.0065L10.9996 20.0227L11.0045 20.0389L11.0126 20.0633L11.0207 20.0876L11.1555 20.3826C11.2442 20.5803 11.3372 20.7548 11.4346 20.9061C11.532 21.0574 11.6467 21.2049 11.7787 21.3486C11.9118 21.4912 12.02 21.6014 12.1033 21.6792C12.1877 21.7581 12.3246 21.857 12.514 21.9759C12.7033 22.0947 12.8981 22.1974 13.0983 22.2838C13.2985 22.3703 13.4851 22.4351 13.6583 22.4783C13.8314 22.5215 13.9585 22.5459 14.0397 22.5512C14.1208 22.5566 14.2047 22.5621 14.2913 22.5675L14.4211 22.5756L14.4179 22.5804L14.413 22.5837L14.4081 22.5999L14.4049 22.6161L14.3886 22.6193L14.3724 22.6242L14.3692 22.629L14.3643 22.6323L14.3594 22.6355L14.3562 22.6404L14.3529 22.6453L14.3481 22.6485L14.3432 22.6517L14.3399 22.6566L13.9666 22.9078C13.7178 23.0753 13.5327 23.1899 13.4116 23.2515C13.2893 23.3141 13.0837 23.4092 12.7948 23.5367C12.5048 23.6631 12.1867 23.7723 11.8404 23.8641C11.4941 23.956 11.1939 24.0208 10.9396 24.0586C10.6853 24.0964 10.4364 24.1208 10.193 24.1316C9.9495 24.1424 9.71958 24.1424 9.50316 24.1316C9.28675 24.1208 9.15419 24.1127 9.1055 24.1073L9.03246 24.0992L9.01623 24.0943L9 24.091V24.1235H9.00812L9.013 24.1267L9.01623 24.1316L9.01948 24.1364L9.02435 24.1397L9.02923 24.1429L9.03246 24.1478L9.04869 24.1559L9.06492 24.164L9.06817 24.1688L9.07304 24.1721L9.07792 24.1753L9.08115 24.1802L9.22723 24.2693C9.32462 24.3288 9.41226 24.3785 9.49017 24.4185C9.56917 24.4595 9.76394 24.5568 10.0745 24.7102C10.3861 24.8647 10.761 25.0176 11.1993 25.1689C11.6375 25.3202 11.9675 25.4228 12.1894 25.4769C12.4112 25.5309 12.7169 25.5849 13.1064 25.639C13.4959 25.693 13.7205 25.7227 13.78 25.7281C13.8395 25.7335 13.9152 25.7389 14.0072 25.7443L14.1452 25.7524V25.7605H15.2002V25.7524L15.7764 25.6957C16.1605 25.6579 16.5041 25.6119 16.807 25.5579C17.11 25.5039 17.4238 25.4282 17.7484 25.331C18.073 25.2337 18.3814 25.1284 18.6736 25.0149C18.9657 24.9015 19.2373 24.7783 19.4884 24.6454C19.7405 24.5135 19.9558 24.3963 20.1344 24.2937C20.3129 24.191 20.5088 24.063 20.7219 23.9095C20.9362 23.755 21.1364 23.6005 21.3225 23.446C21.5097 23.2925 21.6157 23.2039 21.6406 23.1801C21.6644 23.1553 21.8051 23.0148 22.0626 22.7587C22.319 22.5016 22.5311 22.2703 22.6988 22.065C22.8666 21.8597 23.0316 21.6409 23.1939 21.4086C23.3562 21.1762 23.5347 20.8926 23.7295 20.5576C23.9243 20.2226 24.1109 19.8444 24.2894 19.423C24.468 19.0016 24.6195 18.5694 24.7439 18.1264C24.8684 17.6833 24.9603 17.2862 25.0198 16.935C25.0794 16.5838 25.1199 16.257 25.1416 15.9544C25.1632 15.6519 25.1757 15.3806 25.1789 15.1408C25.1811 14.8998 25.2839 14.6967 25.4873 14.5313C25.6897 14.3671 25.8963 14.1796 26.1073 13.9689C26.3183 13.7582 26.433 13.6377 26.4514 13.6074C26.4709 13.5783 26.486 13.5621 26.4968 13.5588C26.5077 13.5567 26.5807 13.4648 26.716 13.2833C26.8512 13.1028 26.9199 13.011 26.9221 13.0077L26.927 13.0045L26.9351 12.9883L26.9432 12.9721L26.9481 12.9688L26.9513 12.964L26.9546 12.9591L26.9594 12.9559L26.9643 12.9526L26.9675 12.9478L26.9708 12.9429L26.9757 12.9397L26.9805 12.9364L26.9838 12.9316L26.9919 12.9267L27 12.9235V12.891L26.9675 12.8943L26.9351 12.8991L26.9188 12.9072L26.9026 12.9154L26.8864 12.9235L26.8702 12.9316L26.8458 12.9397L26.7971 12.9559L26.3589 13.1017C26.083 13.1936 25.7935 13.2719 25.4905 13.3368L25.0361 13.434H24.9549L24.9582 13.4292L24.963 13.4259L24.9679 13.4227L24.9711 13.4178L24.9744 13.4129L24.9793 13.4097L24.9841 13.4065L24.9874 13.4016L25.0036 13.3935L25.0198 13.3854L25.0231 13.3805L25.028 13.3773L25.0328 13.374L25.0361 13.3692L25.0523 13.3611L25.0685 13.353L25.1497 13.2995C25.2038 13.2649 25.2498 13.2271 25.2876 13.186C25.3255 13.146 25.4029 13.0758 25.5198 12.9753C25.6355 12.8759 25.7665 12.729 25.9125 12.5345C26.0586 12.34 26.1803 12.1482 26.2777 11.9591C26.3751 11.77 26.4265 11.6619 26.4319 11.6349C26.4373 11.6079 26.4427 11.5863 26.4482 11.5701L26.4563 11.5457L26.4644 11.5295L26.4725 11.5133L26.4806 11.489L26.4887 11.4647L26.4936 11.4404L26.4968 11.4161L26.4806 11.4193L26.4644 11.4242L26.4612 11.429L26.4563 11.4323L26.4514 11.4355L26.4482 11.4404L26.4319 11.4485L26.4157 11.4566L26.3995 11.4647L26.3832 11.4728L26.38 11.4777C26.3768 11.4798 26.3497 11.496 26.2988 11.5263C26.2469 11.5555 26.1019 11.6241 25.8638 11.7321C25.6258 11.8402 25.385 11.9374 25.1416 12.0239C24.8981 12.1103 24.6709 12.1779 24.4599 12.2265C24.2489 12.2751 24.0936 12.2492 23.9941 12.1487C23.8934 12.0493 23.7798 11.9553 23.6532 11.8667C23.5255 11.777 23.3832 11.6889 23.2263 11.6025C23.0694 11.516 22.9071 11.4404 22.7394 11.3756C22.5717 11.3107 22.385 11.2583 22.1794 11.2183L21.8711 11.1567H21.0271Z" fill="white"/>
</svg>
