<svg width="36" height="37" viewBox="0 0 36 37" fill="none" xmlns="http://www.w3.org/2000/svg">
<path fill-rule="evenodd" clip-rule="evenodd" d="M18 0.458496C8.05887 0.458496 0 8.51737 0 18.4585C0 28.3996 8.05887 36.4585 18 36.4585C27.9411 36.4585 36 28.3996 36 18.4585C36 8.51737 27.9411 0.458496 18 0.458496ZM9.60811 10.45C9.20271 10.8251 9 11.3013 9 11.8785C9 12.4557 9.19691 12.9348 9.59073 13.3158C9.98456 13.6967 10.5 13.8872 11.1371 13.8872H11.1544C11.8147 13.8872 12.3475 13.6967 12.7529 13.3158C13.1467 12.9464 13.3436 12.4846 13.3436 11.9305C13.3436 11.3187 13.1409 10.8223 12.7355 10.4413C12.3417 10.0719 11.8263 9.88721 11.1892 9.88721C10.5405 9.88721 10.0135 10.0748 9.60811 10.45ZM9.22587 15.463V27.0301H13.083V15.463H9.22587ZM19.0772 27.0301H15.2201C15.2432 23.5438 15.2548 20.8367 15.2548 18.9088C15.2548 16.981 15.2432 15.8324 15.2201 15.463H19.0772V17.108L19.0598 17.1426H19.0772V17.108C19.9112 15.8266 21.0753 15.1859 22.5695 15.1859C23.9016 15.1859 24.973 15.6275 25.7838 16.5106C26.5946 17.3937 27 18.6895 27 20.398V27.0301H23.1429V20.8482C23.1429 19.1051 22.4942 18.2335 21.1969 18.2335C20.6988 18.2335 20.2847 18.3692 19.9546 18.6404C19.6245 18.9117 19.3784 19.2436 19.2162 19.6361C19.1236 19.8554 19.0772 20.1671 19.0772 20.5712V27.0301Z" fill="white"/>
</svg>
