<svg width="36" height="37" viewBox="0 0 36 37" fill="none" xmlns="http://www.w3.org/2000/svg">
<path fill-rule="evenodd" clip-rule="evenodd" d="M18 0.458496C8.05887 0.458496 0 8.51737 0 18.4585C0 28.3996 8.05887 36.4585 18 36.4585C27.9411 36.4585 36 28.3996 36 18.4585C36 8.51737 27.9411 0.458496 18 0.458496ZM14.3761 25.3627L18.4383 25.4387C18.4447 25.4387 18.4577 25.4387 18.4576 25.4489C20.7197 25.4921 22.9237 25.3565 25.1795 25.188C26.9798 25.0592 27.4065 23.7246 27.6294 22.1332C27.9074 20.2112 27.9688 18.266 27.8233 16.3308C27.8164 16.239 27.8096 16.1465 27.8028 16.0533C27.6672 14.2016 27.5149 12.1206 25.3734 11.737C24.9177 11.6544 24.4524 11.5818 23.9903 11.5686C19.6147 11.4237 15.2001 11.3869 10.8148 11.6974C9.51571 11.7829 8.67567 12.5691 8.46222 13.8866C8.08411 16.2347 8.00654 18.6455 8.20691 21.0134C8.2094 21.0423 8.2119 21.0713 8.21441 21.1005C8.35763 22.7662 8.52499 24.7125 10.4528 25.115C11.4907 25.3356 12.5474 25.3445 13.6061 25.3533C13.8627 25.3554 14.1195 25.3576 14.3761 25.3627ZM18.1575 20.1723C17.458 20.5832 16.7568 20.995 16.0501 21.4097V15.4718C16.8297 15.9288 17.6039 16.3837 18.3789 16.8391C19.2839 17.3709 20.1902 17.9034 21.1076 18.4408C20.1202 19.0196 19.1405 19.595 18.1575 20.1723Z" fill="white"/>
</svg>
