<svg width="36" height="37" viewBox="0 0 36 37" fill="none" xmlns="http://www.w3.org/2000/svg">
<path fill-rule="evenodd" clip-rule="evenodd" d="M18 0.458496C8.05887 0.458496 0 8.51737 0 18.4585C0 28.3996 8.05887 36.4585 18 36.4585C27.9411 36.4585 36 28.3996 36 18.4585C36 8.51737 27.9411 0.458496 18 0.458496ZM19.4638 19.2479V27.4584H15.9929V19.2479H13.0908V16.048H15.9929V13.6882C15.9929 10.9497 17.7497 9.4585 20.3157 9.4585C21.5447 9.4585 22.6012 9.54564 22.909 9.58457V12.4465L21.1293 12.4473C19.7339 12.4473 19.4637 13.0786 19.4637 14.005V16.048H22.7919L22.3585 19.2479H19.4638Z" fill="white"/>
</svg>
