<svg width="36" height="37" viewBox="0 0 36 37" fill="none" xmlns="http://www.w3.org/2000/svg">
<path fill-rule="evenodd" clip-rule="evenodd" d="M18 0.458496C8.05887 0.458496 0 8.51737 0 18.4585C0 28.3996 8.05887 36.4585 18 36.4585C27.9411 36.4585 36 28.3996 36 18.4585C36 8.51737 27.9411 0.458496 18 0.458496ZM9.85669 11.771C9 13.0658 9 14.8634 9 18.4585C9 22.0536 9 23.8512 9.85669 25.1459C10.2392 25.7241 10.7344 26.2192 11.3126 26.6018C12.6073 27.4585 14.4049 27.4585 18 27.4585C21.5951 27.4585 23.3927 27.4585 24.6874 26.6018C25.2656 26.2192 25.7608 25.7241 26.1433 25.1459C27 23.8512 27 22.0536 27 18.4585C27 14.8634 27 13.0658 26.1433 11.771C25.7608 11.1929 25.2656 10.6977 24.6874 10.3152C23.3927 9.4585 21.5951 9.4585 18 9.4585C14.4049 9.4585 12.6073 9.4585 11.3126 10.3152C10.7344 10.6977 10.2392 11.1929 9.85669 11.771ZM18.0002 23.1179C20.5735 23.1179 22.6596 21.0319 22.6596 18.4585C22.6596 15.8852 20.5735 13.7991 18.0002 13.7991C15.4269 13.7991 13.3408 15.8852 13.3408 18.4585C13.3408 21.0319 15.4269 23.1179 18.0002 23.1179ZM23.9385 13.565C23.9385 14.1697 23.4483 14.6599 22.8436 14.6599C22.239 14.6599 21.7488 14.1697 21.7488 13.565C21.7488 12.9604 22.239 12.4702 22.8436 12.4702C23.4483 12.4702 23.9385 12.9604 23.9385 13.565ZM21.0832 18.4585C21.0832 20.1612 19.7029 21.5415 18.0002 21.5415C16.2975 21.5415 14.9172 20.1612 14.9172 18.4585C14.9172 16.7558 16.2975 15.3755 18.0002 15.3755C19.7029 15.3755 21.0832 16.7558 21.0832 18.4585Z" fill="white"/>
</svg>
