<svg width="107" height="20" viewBox="0 0 107 20" fill="none" xmlns="http://www.w3.org/2000/svg">
<g clip-path="url(#clip0_74_86)">
<path d="M20.7874 19.8057H0.89209V0.832691H20.7874V19.8057Z" fill="#00B67A"/>
<path d="M42.3411 19.8057H22.4458V0.832691H42.3411V19.8057Z" fill="#00B67A"/>
<path d="M63.8938 19.8057H43.9985V0.832691H63.8938V19.8057Z" fill="#00B67A"/>
<path d="M85.4475 19.8057H65.5522V0.832691H85.4475V19.8057Z" fill="#00B67A"/>
<path d="M107 19.8057H87.105V0.832691H107V19.8057Z" fill="#00B67A"/>
<path d="M10.8408 7.0187L13.8665 7.74995L15.1307 4.03441L10.8408 7.0187ZM17.8041 11.8212H12.478L10.8408 16.604L9.20357 11.8212H3.87744L8.18808 8.85671L6.55087 4.07394L10.8615 7.03846L13.5142 8.85671L17.8041 11.8212Z" fill="white"/>
<path d="M32.3935 7.0187L35.4193 7.74995L36.6834 4.03441L32.3935 7.0187ZM39.3569 11.8212H34.0307L32.3935 16.604L30.7563 11.8212H25.4302L29.7408 8.85671L28.1036 4.07394L32.4142 7.03846L35.0669 8.85671L39.3569 11.8212Z" fill="white"/>
<path d="M53.9472 7.0187L56.973 7.74995L58.2372 4.03441L53.9472 7.0187ZM60.9106 11.8212H55.5844L53.9472 16.604L52.31 11.8212H46.9839L51.2945 8.85671L49.6573 4.07394L53.968 7.03846L56.6207 8.85671L60.9106 11.8212Z" fill="white"/>
<path d="M75.5 7.0187L78.5257 7.74995L79.7899 4.03441L75.5 7.0187ZM82.4633 11.8212H77.1372L75.5 16.604L73.8628 11.8212H68.5366L72.8473 8.85671L71.21 4.07394L75.5207 7.03846L78.1734 8.85671L82.4633 11.8212Z" fill="white"/>
<path d="M97.0537 7.0187L100.079 7.74995L101.344 4.03441L97.0537 7.0187ZM104.017 11.8212H98.6909L97.0537 16.604L95.4165 11.8212H90.0903L94.401 8.85671L92.7638 4.07394L97.0744 7.03846L99.7271 8.85671L104.017 11.8212Z" fill="white"/>
</g>
<defs>
<clipPath id="clip0_74_86">
<rect width="106.108" height="18.973" fill="white" transform="matrix(1 0 0 -1 0.89209 19.8057)"/>
</clipPath>
</defs>
</svg>
