<svg width="107" height="26" viewBox="0 0 107 26" fill="none" xmlns="http://www.w3.org/2000/svg">
<g clip-path="url(#clip0_74_82)">
<path d="M28.7858 9.52148H39.516V11.4124H35.2849V22.0442H32.9638V11.4124H28.7593L28.7858 9.52148ZM39.0518 12.9778H41.028V14.7309H41.0678C41.1341 14.4805 41.2668 14.2425 41.4392 14.0171C41.6116 13.7792 41.8238 13.5663 42.0891 13.3785C42.3411 13.1781 42.6196 13.0278 42.938 12.9151C43.243 12.8024 43.5614 12.7273 43.8797 12.7273C44.1317 12.7273 44.3041 12.7398 44.397 12.7398C44.4898 12.7523 44.5959 12.7774 44.6755 12.7774V14.6934C44.5296 14.6558 44.3704 14.6433 44.2113 14.6307C44.0521 14.6182 43.9062 14.5932 43.747 14.5932C43.3889 14.5932 43.0573 14.6558 42.739 14.7935C42.4207 14.9313 42.1554 15.1317 41.9034 15.3821C41.6779 15.6451 41.479 15.9707 41.3331 16.3464C41.1872 16.722 41.1209 17.1854 41.1209 17.6863V21.9941H38.9987L39.0518 12.9778ZM54.4109 22.0442H52.3285V20.7794H52.2887C52.0235 21.2427 51.6388 21.5934 51.1216 21.8814C50.6043 22.1694 50.0737 22.2946 49.5432 22.2946C48.2832 22.2946 47.368 22.0066 46.7977 21.4055C46.2273 20.817 45.9488 19.9153 45.9488 18.7382V12.9778H48.071V18.5378C48.071 19.3393 48.2301 19.9028 48.5617 20.2284C48.88 20.5665 49.3442 20.7293 49.9278 20.7293C50.3655 20.7293 50.7369 20.6667 51.042 20.5289C51.347 20.3912 51.5858 20.2284 51.7715 20.0155C51.9704 19.8026 52.0898 19.5271 52.1826 19.2266C52.2755 18.926 52.302 18.5879 52.302 18.2373V12.9778H54.4242V22.0442H54.4109ZM58.0186 19.1389C58.0849 19.7275 58.3236 20.1282 58.7216 20.3787C59.1327 20.6166 59.6235 20.7293 60.1938 20.7293C60.3928 20.7293 60.6182 20.7168 60.8702 20.6792C61.1222 20.6416 61.361 20.5916 61.5732 20.5164C61.7987 20.4288 61.9844 20.3161 62.117 20.1533C62.2629 19.9905 62.3292 19.7901 62.316 19.5397C62.3027 19.2892 62.2099 19.0763 62.0109 18.901C61.812 18.7382 61.5865 18.613 61.3079 18.5003C61.0294 18.4001 60.6846 18.3124 60.3132 18.2498C59.9418 18.1872 59.5704 18.0995 59.1858 18.0119C58.8011 17.9242 58.4032 17.824 58.0318 17.7113C57.6605 17.5986 57.3421 17.4484 57.0371 17.223C56.7586 17.0226 56.5065 16.7721 56.3474 16.4591C56.175 16.146 56.0821 15.7703 56.0821 15.307C56.0821 14.8061 56.2015 14.4053 56.4668 14.0672C56.7188 13.7291 57.0503 13.4661 57.435 13.2658C57.8196 13.0654 58.2706 12.9151 58.7481 12.8275C59.2256 12.7398 59.6898 12.7148 60.1142 12.7148C60.605 12.7148 61.0825 12.7649 61.5334 12.865C61.9711 12.9652 62.3955 13.1155 62.7537 13.3534C63.125 13.5663 63.4301 13.8669 63.6556 14.2175C63.9076 14.5681 64.0402 15.0064 64.1198 15.5073H61.9048C61.7987 15.019 61.5732 14.7059 61.2151 14.5431C60.8437 14.3803 60.4325 14.2926 59.9551 14.2926C59.8092 14.2926 59.6235 14.3052 59.4245 14.3302C59.2123 14.3678 59.0399 14.3928 58.8409 14.468C58.6685 14.5306 58.5093 14.6307 58.3767 14.756C58.2441 14.8812 58.1777 15.044 58.1777 15.2444C58.1777 15.4948 58.2706 15.6827 58.443 15.8329C58.6154 15.9832 58.8542 16.0959 59.146 16.2211C59.4245 16.3213 59.7694 16.409 60.1408 16.4716C60.5121 16.5342 60.8968 16.6219 61.2947 16.7095C61.6926 16.7972 62.0507 16.8974 62.4221 17.0101C62.7934 17.1228 63.125 17.273 63.4168 17.4984C63.6954 17.6988 63.9474 17.9493 64.1198 18.2498C64.2922 18.5504 64.3851 18.9386 64.3851 19.3643C64.3851 19.9028 64.2657 20.3536 64.0004 20.7293C63.7352 21.0925 63.4036 21.4181 62.9924 21.6435C62.5812 21.8814 62.1037 22.0442 61.613 22.1569C61.0957 22.2571 60.605 22.3197 60.1142 22.3197C59.5174 22.3197 58.947 22.2571 58.4298 22.1193C57.9125 21.9816 57.4615 21.7812 57.0901 21.5308C56.7188 21.2678 56.4137 20.9422 56.2015 20.5415C55.9893 20.1533 55.8699 19.6899 55.8434 19.1389H57.9788V19.1514L58.0186 19.1389ZM64.9952 12.9778H66.6001V10.2353H68.7222V12.9527H70.6322V14.4429H68.7222V19.2892C68.7222 19.5021 68.7355 19.6774 68.762 19.8402C68.7753 19.9905 68.8283 20.1282 68.8814 20.2284C68.9477 20.3286 69.0538 20.4162 69.1865 20.4663C69.3324 20.5164 69.5048 20.554 69.7568 20.554C69.9027 20.554 70.0619 20.554 70.1945 20.5415C70.3271 20.5289 70.4995 20.5039 70.6322 20.4789V22.0317C70.4067 22.0692 70.168 22.0818 69.9425 22.0943C69.717 22.1319 69.5048 22.1319 69.2528 22.1319C68.6825 22.1319 68.2448 22.0818 67.9132 21.9816C67.5816 21.8814 67.3163 21.7311 67.1174 21.5433C66.9184 21.3429 66.799 21.105 66.7327 20.8295C66.6664 20.5415 66.6266 20.1908 66.6133 19.8277V14.4805H65.0085V12.9402L64.9952 12.9778ZM72.131 12.9778H74.1338V14.2175H74.1735C74.4786 13.679 74.8765 13.3159 75.4071 13.0779C75.9376 12.84 76.5079 12.7273 77.1446 12.7273C77.9006 12.7273 78.5638 12.84 79.1208 13.1155C79.6912 13.366 80.1421 13.7041 80.5135 14.1549C80.8849 14.5932 81.1634 15.1066 81.3491 15.6952C81.5215 16.2837 81.6276 16.9099 81.6276 17.5611C81.6276 18.1747 81.5348 18.7632 81.3756 19.3268C81.2032 19.8903 80.9512 20.4162 80.6196 20.842C80.288 21.2678 79.8636 21.6309 79.3331 21.8939C78.8025 22.1569 78.2057 22.2946 77.4894 22.2946C77.1844 22.2946 76.866 22.2571 76.5742 22.207C76.2692 22.1569 75.9774 22.0692 75.6856 21.9565C75.4071 21.8438 75.1418 21.6936 74.903 21.5057C74.651 21.3179 74.4653 21.105 74.3062 20.8671H74.2664V25.3878H72.1442V12.9778H72.131ZM79.532 17.5235C79.532 17.1228 79.4789 16.722 79.3596 16.3338C79.2535 15.9456 79.081 15.62 78.8423 15.3195C78.6036 15.019 78.325 14.781 78.0067 14.6057C77.6751 14.4179 77.2772 14.3427 76.8528 14.3427C75.9641 14.3427 75.3009 14.6307 74.8367 15.2068C74.399 15.7954 74.1603 16.5718 74.1603 17.5485C74.1603 18.0119 74.2133 18.4377 74.3327 18.8133C74.4521 19.2015 74.6112 19.5271 74.8633 19.8152C75.0887 20.1032 75.3805 20.3161 75.7121 20.4789C76.0437 20.6417 76.4151 20.7293 76.866 20.7293C77.3568 20.7293 77.7547 20.6291 78.0863 20.4413C78.4179 20.2534 78.6831 20.003 78.9219 19.7275C79.1341 19.4269 79.2933 19.0888 79.3861 18.7132C79.479 18.2999 79.532 17.9242 79.532 17.5235ZM83.2723 9.52148H85.3945V11.4124H83.2723V9.52148ZM83.2723 12.9778H85.3945V22.0442H83.2723V12.9778ZM87.2779 9.52148H89.4001V22.0442H87.2779V9.52148ZM95.8727 22.2946C95.1166 22.2946 94.4269 22.1819 93.8168 21.9315C93.2199 21.681 92.7159 21.368 92.2915 20.9422C91.8803 20.5289 91.562 20.003 91.3498 19.4269C91.1376 18.8384 91.0182 18.1872 91.0182 17.511C91.0182 16.8222 91.1243 16.1961 91.3498 15.6075C91.562 15.019 91.8803 14.518 92.2915 14.0923C92.7027 13.679 93.2067 13.3409 93.8168 13.103C94.4137 12.865 95.1034 12.7398 95.8727 12.7398C96.6419 12.7398 97.3184 12.8525 97.9285 13.103C98.5254 13.3409 99.0294 13.6665 99.4538 14.0923C99.865 14.5055 100.183 15.0315 100.396 15.6075C100.608 16.1961 100.727 16.8222 100.727 17.511C100.727 18.2122 100.621 18.8509 100.396 19.4269C100.17 20.003 99.865 20.5164 99.4538 20.9422C99.0426 21.3554 98.5386 21.6936 97.9285 21.9315C97.3316 22.1569 96.6552 22.2946 95.8727 22.2946ZM95.8727 20.7043C96.3369 20.7043 96.7613 20.6041 97.0929 20.4162C97.451 20.2284 97.7163 19.9779 97.9418 19.6774C98.1672 19.3769 98.3264 19.0262 98.4325 18.6631C98.5386 18.2749 98.5917 17.8992 98.5917 17.4984C98.5917 17.1102 98.5386 16.7346 98.4325 16.3464C98.3264 15.9582 98.1672 15.6326 97.9418 15.332C97.7163 15.0315 97.4245 14.7935 97.0929 14.6182C96.7348 14.4304 96.3369 14.3302 95.8727 14.3302C95.4084 14.3302 94.984 14.4304 94.6524 14.6182C94.2943 14.8061 94.029 15.0565 93.8035 15.332C93.5781 15.6326 93.4189 15.9707 93.3128 16.3464C93.2067 16.7346 93.1536 17.1102 93.1536 17.4984C93.1536 17.8992 93.2067 18.2874 93.3128 18.6631C93.4189 19.0387 93.5781 19.3769 93.8035 19.6774C94.029 19.9779 94.3208 20.2284 94.6524 20.4162C95.0105 20.6291 95.4217 20.7043 95.8727 20.7043ZM101.364 12.9778H102.969V10.2353H105.091V12.9527H107.001V14.4429H105.091V19.2892C105.091 19.5021 105.104 19.6774 105.131 19.8402C105.144 19.9905 105.197 20.1282 105.25 20.2284C105.316 20.3286 105.422 20.4162 105.555 20.4663C105.701 20.5164 105.873 20.554 106.125 20.554C106.271 20.554 106.43 20.554 106.563 20.5415C106.709 20.5289 106.868 20.5039 107.001 20.4789V22.0317C106.775 22.0692 106.537 22.0818 106.311 22.0943C106.086 22.1319 105.873 22.1319 105.621 22.1319C105.051 22.1319 104.613 22.0818 104.282 21.9816C103.95 21.8814 103.685 21.7311 103.486 21.5433C103.287 21.3429 103.168 21.105 103.101 20.8295C103.035 20.5415 102.995 20.1908 102.982 19.8277V14.4805H101.377V12.9402V12.9778H101.364Z" fill="#2D2C2B"/>
<path d="M26.305 9.52147H16.5961L13.6118 0.805664L10.601 9.52147L0.89209 9.50894L8.74409 14.9062L5.73327 23.622L13.5853 18.2247L21.4373 23.622L18.453 14.9062L26.305 9.52147Z" fill="#00B67A"/>
<path d="M19.1294 16.8723L18.453 14.9062L13.6118 18.2248L19.1294 16.8723Z" fill="#005128"/>
</g>
<defs>
<clipPath id="clip0_74_82">
<rect width="106.108" height="24.5946" fill="white" transform="translate(0.89209 0.805664)"/>
</clipPath>
</defs>
</svg>
