<svg width="12" height="13" viewBox="0 0 12 13" fill="none" xmlns="http://www.w3.org/2000/svg">
<path d="M11.9972 6.30566C11.9975 6.41793 11.9755 6.52915 11.9326 6.63288C11.8897 6.73661 11.8266 6.8308 11.747 6.90999L6.60111 12.0564C6.4405 12.2161 6.22324 12.3057 5.99679 12.3057C5.77033 12.3057 5.55307 12.2161 5.39246 12.0564L0.249267 6.90999C0.0896131 6.74938 0 6.53212 0 6.30566C0 6.0792 0.0896131 5.86195 0.249267 5.70134L5.39514 0.554931C5.55575 0.395277 5.773 0.305664 5.99946 0.305664C6.22592 0.305664 6.44318 0.395277 6.60379 0.554931L11.7497 5.70134C11.8288 5.78075 11.8914 5.87503 11.9338 5.97876C11.9763 6.08248 11.9978 6.19358 11.9972 6.30566Z" fill="white"/>
</svg>
