<svg width="153" height="144" viewBox="0 0 153 144" fill="none" xmlns="http://www.w3.org/2000/svg">
<path d="M151.6 142.516C151.876 142.501 152.112 142.712 152.127 142.988C152.142 143.264 151.93 143.499 151.655 143.514L151.6 142.516ZM108.411 77.1154L108.878 77.2935L108.411 77.1154ZM132.067 82.5541L132.505 82.7962L132.067 82.5541ZM68.6725 96.029L68.9132 95.5908L68.6725 96.029ZM3.47703 0.89631L6.66882 5.70732L0.906469 6.06598L3.47703 0.89631ZM105.773 101.79C105.809 102.064 105.616 102.315 105.342 102.351C105.069 102.387 104.817 102.195 104.781 101.921L105.773 101.79ZM105.259 104.814C105.205 104.543 105.382 104.28 105.652 104.227C105.923 104.173 106.186 104.349 106.24 104.62L105.259 104.814ZM106.884 107.419C106.954 107.686 106.794 107.959 106.527 108.029C106.26 108.099 105.987 107.939 105.917 107.672L106.884 107.419ZM106.74 110.483C106.655 110.22 106.799 109.938 107.062 109.853C107.324 109.768 107.606 109.912 107.691 110.174L106.74 110.483ZM108.654 112.882C108.754 113.14 108.626 113.429 108.368 113.529C108.111 113.629 107.821 113.501 107.721 113.243L108.654 112.882ZM108.853 115.945C108.739 115.693 108.851 115.397 109.103 115.283C109.355 115.169 109.651 115.281 109.764 115.533L108.853 115.945ZM111.018 118.118C111.145 118.363 111.049 118.665 110.804 118.792C110.559 118.92 110.257 118.824 110.13 118.579L111.018 118.118ZM111.55 121.142C111.41 120.904 111.489 120.597 111.726 120.457C111.964 120.316 112.271 120.395 112.411 120.633L111.55 121.142ZM113.94 123.064C114.094 123.294 114.032 123.604 113.802 123.758C113.573 123.911 113.262 123.85 113.109 123.62L113.94 123.064ZM114.806 126.008C114.64 125.788 114.683 125.474 114.904 125.308C115.124 125.141 115.438 125.185 115.604 125.406L114.806 126.008ZM117.401 127.646C117.58 127.856 117.555 128.172 117.345 128.351C117.134 128.53 116.819 128.505 116.64 128.295L117.401 127.646ZM118.607 130.467C118.415 130.268 118.421 129.952 118.62 129.76C118.819 129.569 119.135 129.575 119.327 129.773L118.607 130.467ZM121.381 131.777C121.584 131.964 121.598 132.28 121.412 132.484C121.225 132.687 120.909 132.701 120.706 132.515L121.381 131.777ZM122.933 134.425C122.717 134.252 122.683 133.937 122.856 133.722C123.028 133.506 123.343 133.472 123.559 133.645L122.933 134.425ZM125.853 135.362C126.08 135.519 126.135 135.831 125.977 136.058C125.82 136.284 125.508 136.34 125.281 136.182L125.853 135.362ZM127.747 137.776C127.51 137.634 127.432 137.327 127.574 137.09C127.716 136.853 128.023 136.776 128.26 136.917L127.747 137.776ZM130.771 138.3C131.017 138.425 131.116 138.725 130.992 138.972C130.867 139.218 130.566 139.317 130.32 139.193L130.771 138.3ZM132.985 140.42C132.73 140.314 132.61 140.021 132.716 139.766C132.823 139.512 133.116 139.391 133.37 139.498L132.985 140.42ZM136.051 140.504C136.313 140.591 136.454 140.874 136.366 141.136C136.279 141.398 135.996 141.54 135.734 141.452L136.051 140.504ZM138.552 142.282C138.284 142.213 138.123 141.941 138.191 141.674C138.259 141.406 138.532 141.245 138.799 141.313L138.552 142.282ZM141.602 141.923C141.874 141.972 142.054 142.232 142.005 142.503C141.956 142.775 141.696 142.956 141.424 142.907L141.602 141.923ZM144.326 143.326C144.051 143.296 143.853 143.049 143.883 142.774C143.913 142.5 144.16 142.302 144.435 142.332L144.326 143.326ZM147.291 142.546C147.566 142.558 147.781 142.79 147.769 143.066C147.758 143.342 147.525 143.557 147.249 143.545L147.291 142.546ZM150.18 143.572C149.904 143.578 149.675 143.359 149.669 143.083C149.662 142.807 149.881 142.578 150.157 142.572L150.18 143.572ZM104.494 98.9712C104.476 98.6956 104.685 98.4577 104.961 98.4397C105.236 98.4217 105.474 98.6305 105.492 98.9061L104.494 98.9712ZM105.391 95.971C105.392 96.2472 105.169 96.4719 104.893 96.4729C104.617 96.474 104.392 96.251 104.391 95.9748L105.391 95.971ZM104.47 92.9783C104.486 92.7026 104.722 92.4917 104.998 92.5073C105.273 92.5228 105.484 92.7589 105.469 93.0346L104.47 92.9783ZM105.721 90.1073C105.689 90.3816 105.441 90.5783 105.166 90.5466C104.892 90.5149 104.695 90.2668 104.727 89.9925L105.721 90.1073ZM105.157 87.0272C105.204 86.7551 105.463 86.573 105.735 86.6204C106.007 86.6678 106.189 86.9268 106.142 87.1988L105.157 87.0272ZM106.728 84.3183C106.665 84.5873 106.396 84.7546 106.128 84.692C105.859 84.6294 105.691 84.3606 105.754 84.0917L106.728 84.3183ZM106.513 81.1944C106.59 80.9293 106.868 80.777 107.133 80.8543C107.398 80.9316 107.55 81.2092 107.473 81.4743L106.513 81.1944ZM108.372 78.6745C108.281 78.9351 107.995 79.0721 107.735 78.9807C107.474 78.8892 107.337 78.6038 107.429 78.3433L108.372 78.6745ZM108.545 75.4461C108.653 75.1921 108.947 75.074 109.201 75.1824C109.455 75.2907 109.573 75.5844 109.465 75.8384L108.545 75.4461ZM110.791 73.0603C110.661 73.3039 110.358 73.396 110.115 73.2659C109.871 73.1359 109.779 72.833 109.909 72.5894L110.791 73.0603ZM111.557 69.8474C111.712 69.6188 112.023 69.5591 112.252 69.714C112.48 69.8689 112.54 70.1798 112.385 70.4084L111.557 69.8474ZM114.253 67.9853C114.071 68.1924 113.755 68.2123 113.548 68.0298C113.341 67.8472 113.321 67.5312 113.503 67.324L114.253 67.9853ZM115.809 65.0759C116.021 64.8997 116.337 64.9293 116.513 65.1419C116.689 65.3545 116.659 65.6697 116.447 65.8459L115.809 65.0759ZM118.954 64.1323C118.711 64.2649 118.407 64.176 118.275 63.9337C118.142 63.6915 118.231 63.3876 118.473 63.2551L118.954 64.1323ZM121.474 62.0275C121.741 61.9541 122.016 62.1104 122.089 62.3766C122.163 62.6428 122.007 62.9181 121.74 62.9915L121.474 62.0275ZM124.705 62.585C124.428 62.5841 124.205 62.3595 124.206 62.0834C124.207 61.8072 124.432 61.5841 124.708 61.585L124.705 62.585ZM127.947 62.0877C128.21 62.1717 128.355 62.453 128.271 62.716C128.187 62.9791 127.906 63.1243 127.643 63.0404L127.947 62.0877ZM130.285 64.3811C130.062 64.218 130.013 63.9051 130.176 63.6823C130.339 63.4595 130.652 63.411 130.875 63.5741L130.285 64.3811ZM133.181 65.9144C133.341 66.1393 133.289 66.4515 133.064 66.6118C132.839 66.772 132.527 66.7196 132.366 66.4947L133.181 65.9144ZM133.711 69.1486C133.623 68.8869 133.763 68.6033 134.025 68.5153C134.287 68.4272 134.57 68.5679 134.659 68.8297L133.711 69.1486ZM135.285 72.025C135.305 72.3005 135.097 72.5394 134.821 72.5587C134.546 72.578 134.307 72.3703 134.288 72.0948L135.285 72.025ZM134.17 75.1191C134.209 74.8457 134.461 74.6553 134.735 74.6939C135.008 74.7325 135.199 74.9854 135.16 75.2589L134.17 75.1191ZM134.434 78.3891C134.35 78.6521 134.068 78.7971 133.805 78.7129C133.542 78.6288 133.397 78.3474 133.481 78.0843L134.434 78.3891ZM132.342 80.9333C132.461 80.6842 132.759 80.579 133.008 80.6983C133.257 80.8175 133.363 81.1161 133.243 81.3652L132.342 80.9333ZM131.791 84.0159C131.646 84.2508 131.338 84.3236 131.103 84.1785C130.868 84.0333 130.795 83.7252 130.94 83.4903L131.791 84.0159ZM129.397 85.7422C129.564 85.5219 129.878 85.4784 130.098 85.6449C130.318 85.8115 130.362 86.1251 130.195 86.3453L129.397 85.7422ZM128.393 88.5167C128.207 88.7211 127.891 88.7362 127.686 88.5505C127.482 88.3648 127.467 88.0486 127.652 87.8442L128.393 88.5167ZM125.728 89.7869C125.931 89.5991 126.247 89.6109 126.435 89.8133C126.623 90.0158 126.611 90.3321 126.408 90.52L125.728 89.7869ZM124.268 92.3511C124.051 92.5221 123.736 92.485 123.565 92.2683C123.394 92.0515 123.431 91.7371 123.648 91.566L124.268 92.3511ZM121.434 93.1811C121.663 93.0267 121.974 93.0871 122.128 93.316C122.283 93.5449 122.222 93.8557 121.993 94.0101L121.434 93.1811ZM119.609 95.4996C119.369 95.6378 119.064 95.5559 118.925 95.3168C118.787 95.0777 118.869 94.7719 119.108 94.6337L119.609 95.4996ZM116.688 95.9283C116.935 95.806 117.235 95.9075 117.358 96.155C117.48 96.4026 117.378 96.7024 117.131 96.8248L116.688 95.9283ZM114.576 97.9916C114.322 98.0987 114.029 97.9792 113.922 97.7247C113.814 97.4702 113.934 97.177 114.188 97.0699L114.576 97.9916ZM111.625 98.0629C111.886 97.9704 112.172 98.1064 112.264 98.3666C112.356 98.6268 112.22 98.9127 111.96 99.0052L111.625 98.0629ZM109.293 99.8718C109.028 99.9501 108.75 99.7989 108.671 99.534C108.593 99.2692 108.744 98.9911 109.009 98.9128L109.293 99.8718ZM106.351 99.624C106.619 99.5595 106.889 99.7248 106.954 99.9933C107.018 100.262 106.853 100.532 106.584 100.596L106.351 99.624ZM4.06956 2.36761C4.08888 2.64307 3.88124 2.88204 3.60578 2.90136C3.33031 2.92069 3.09134 2.71305 3.07201 2.43758L4.06956 2.36761ZM3.33009 5.44202C3.30215 5.1673 3.50221 4.92194 3.77694 4.894C4.05166 4.86606 4.29702 5.06612 4.32496 5.34084L3.33009 5.44202ZM4.67449 8.31328C4.71104 8.58699 4.51878 8.83851 4.24507 8.87506C3.97135 8.91161 3.71984 8.71935 3.68329 8.44564L4.67449 8.31328ZM4.1301 11.4342C4.085 11.1618 4.26929 10.9044 4.54173 10.8593C4.81417 10.8142 5.07158 10.9985 5.11667 11.2709L4.1301 11.4342ZM5.65032 14.21C5.70387 14.4809 5.52767 14.7439 5.25677 14.7974C4.98587 14.851 4.72285 14.6748 4.6693 14.4039L5.65032 14.21ZM5.30053 17.3563C5.23864 17.0872 5.40662 16.8189 5.67574 16.757C5.94486 16.6951 6.21319 16.8631 6.27509 17.1322L5.30053 17.3563ZM6.99051 20.0377C7.06063 20.3047 6.90096 20.5781 6.63387 20.6482C6.36677 20.7184 6.09341 20.5587 6.02329 20.2916L6.99051 20.0377ZM6.83443 23.2006C6.75624 22.9358 6.90756 22.6577 7.1724 22.5795C7.43724 22.5013 7.71532 22.6526 7.79351 22.9175L6.83443 23.2006ZM8.68236 25.7701C8.76844 26.0325 8.62551 26.315 8.36313 26.401C8.10074 26.4871 7.81826 26.3442 7.73218 26.0818L8.68236 25.7701ZM8.716 28.9374C8.62222 28.6777 8.75674 28.3911 9.01647 28.2973C9.2762 28.2035 9.56278 28.338 9.65656 28.5978L8.716 28.9374ZM10.7136 31.3967C10.8149 31.6536 10.6888 31.944 10.4319 32.0453C10.175 32.1466 9.88462 32.0205 9.78332 31.7636L10.7136 31.3967ZM10.9309 34.556C10.8223 34.3021 10.9401 34.0082 11.194 33.8996C11.4479 33.791 11.7418 33.9088 11.8504 34.1627L10.9309 34.556ZM13.0646 36.8944C13.1802 37.1452 13.0707 37.4422 12.82 37.5579C12.5693 37.6736 12.2722 37.5641 12.1565 37.3133L13.0646 36.8944ZM13.4592 40.0373C13.3366 39.7898 13.4379 39.4899 13.6854 39.3673C13.9328 39.2448 14.2328 39.346 14.3553 39.5935L13.4592 40.0373ZM15.7197 42.2572C15.8489 42.5013 15.7557 42.8038 15.5117 42.933C15.2676 43.0622 14.965 42.9691 14.8358 42.725L15.7197 42.2572ZM16.2832 45.3737C16.1476 45.1331 16.2327 44.8282 16.4732 44.6926C16.7138 44.557 17.0187 44.642 17.1543 44.8826L16.2832 45.3737ZM18.6569 47.4687C18.7986 47.7057 18.7215 48.0127 18.4846 48.1545C18.2476 48.2963 17.9406 48.2191 17.7988 47.9822L18.6569 47.4687ZM19.3812 50.5516C19.2334 50.3183 19.3027 50.0094 19.536 49.8616C19.7693 49.7139 20.0782 49.7832 20.2259 50.0165L19.3812 50.5516ZM21.8597 52.5256C22.0132 52.7552 21.9516 53.0657 21.7221 53.2192C21.4926 53.3728 21.1821 53.3112 21.0285 53.0816L21.8597 52.5256ZM22.737 55.5692C22.5779 55.3435 22.6319 55.0316 22.8576 54.8725C23.0833 54.7134 23.3953 54.7674 23.5544 54.9931L22.737 55.5692ZM25.3075 57.4182C25.472 57.64 25.4254 57.9531 25.2036 58.1176C24.9818 58.282 24.6686 58.2355 24.5042 58.0136L25.3075 57.4182ZM26.3277 60.4143C26.1581 60.1963 26.1973 59.8822 26.4152 59.7126C26.6332 59.543 26.9473 59.5822 27.1169 59.8001L26.3277 60.4143ZM28.984 62.143C29.1585 62.357 29.1266 62.672 28.9126 62.8465C28.6987 63.0211 28.3837 62.9892 28.2091 62.7752L28.984 62.143ZM30.1432 65.0917C29.9639 64.8818 29.9887 64.5662 30.1986 64.3868C30.4086 64.2074 30.7242 64.2323 30.9036 64.4422L30.1432 65.0917ZM32.8736 66.697C33.0576 66.903 33.0398 67.219 32.8339 67.403C32.6279 67.587 32.3118 67.5692 32.1279 67.3633L32.8736 66.697ZM34.161 69.5893C33.9726 69.3875 33.9835 69.0711 34.1853 68.8826C34.3872 68.6942 34.7036 68.705 34.892 68.9069L34.161 69.5893ZM36.9573 71.0716C37.15 71.2694 37.146 71.5859 36.9482 71.7787C36.7505 71.9715 36.434 71.9674 36.2412 71.7697L36.9573 71.0716ZM38.3714 73.9086C38.1745 73.715 38.1717 73.3985 38.3653 73.2015C38.5589 73.0046 38.8754 73.0019 39.0724 73.1954L38.3714 73.9086ZM41.2315 75.2731C41.4325 75.4625 41.4419 75.7789 41.2526 75.9799C41.0632 76.1809 40.7468 76.1904 40.5458 76.001L41.2315 75.2731ZM42.7628 78.0462C42.5579 77.8611 42.5418 77.545 42.7269 77.34C42.912 77.1351 43.2282 77.1191 43.4331 77.3042L42.7628 78.0462ZM45.6759 79.2878C45.8846 79.4686 45.9073 79.7843 45.7265 79.9931C45.5457 80.2018 45.2299 80.2245 45.0212 80.0437L45.6759 79.2878ZM47.3197 81.9927C47.1072 81.8163 47.078 81.5011 47.2544 81.2886C47.4308 81.0762 47.746 81.0469 47.9584 81.2233L47.3197 81.9927ZM50.2798 83.1099C50.4959 83.2819 50.5318 83.5964 50.3598 83.8125C50.1879 84.0286 49.8734 84.0644 49.6573 83.8925L50.2798 83.1099ZM52.0393 85.7469C51.8196 85.5796 51.7772 85.2658 51.9445 85.0462C52.1118 84.8265 52.4256 84.784 52.6452 84.9514L52.0393 85.7469ZM55.0486 86.742C55.2718 86.9046 55.3209 87.2173 55.1583 87.4405C54.9957 87.6637 54.6829 87.7128 54.4597 87.5502L55.0486 86.742ZM56.9178 89.3009C56.6911 89.1432 56.6353 88.8315 56.793 88.6049C56.9508 88.3782 57.2624 88.3224 57.489 88.4802L56.9178 89.3009ZM59.9662 90.1642C60.1962 90.3169 60.259 90.6272 60.1063 90.8573C59.9535 91.0873 59.6432 91.1501 59.4132 90.9974L59.9662 90.1642ZM61.9458 92.6375C61.7123 92.49 61.6426 92.1812 61.79 91.9477C61.9375 91.7142 62.2463 91.6445 62.4797 91.7919L61.9458 92.6375ZM65.0297 93.3608C65.2666 93.5028 65.3436 93.8098 65.2017 94.0467C65.0598 94.2836 64.7528 94.3606 64.5159 94.2187L65.0297 93.3608ZM67.1237 95.7378C66.8834 95.6018 66.7988 95.2967 66.9348 95.0564C67.0709 94.8161 67.3759 94.7316 67.6163 94.8676L67.1237 95.7378ZM70.2768 96.3039C70.5241 96.4269 70.6248 96.727 70.5018 96.9743C70.3787 97.2215 70.0786 97.3222 69.8314 97.1992L70.2768 96.3039ZM72.7104 98.4962C72.4545 98.3922 72.3314 98.1005 72.4354 97.8447C72.5394 97.5889 72.831 97.4658 73.0868 97.5697L72.7104 98.4962ZM75.9845 98.6302C76.2469 98.7162 76.39 98.9986 76.304 99.2611C76.218 99.5235 75.9356 99.6665 75.6731 99.5805L75.9845 98.6302ZM78.698 100.464C78.4307 100.395 78.2698 100.122 78.3388 99.8551C78.4078 99.5877 78.6805 99.4268 78.9479 99.4958L78.698 100.464ZM81.9617 100.177C82.2327 100.23 82.4096 100.492 82.3568 100.763C82.304 101.034 82.0414 101.211 81.7704 101.158L81.9617 100.177ZM84.8771 101.672C84.6035 101.634 84.4119 101.382 84.4492 101.109C84.4865 100.835 84.7386 100.644 85.0122 100.681L84.8771 101.672ZM88.0866 101.014C88.3618 101.037 88.5668 101.278 88.5445 101.553C88.5222 101.828 88.281 102.033 88.0057 102.011L88.0866 101.014ZM91.1477 102.182C90.8717 102.174 90.6541 101.944 90.6618 101.668C90.6695 101.392 90.8994 101.174 91.1755 101.182L91.1477 102.182ZM94.2694 101.187C94.5455 101.18 94.7748 101.399 94.7815 101.675C94.7883 101.951 94.57 102.18 94.294 102.187L94.2694 101.187ZM97.436 102.028C97.1607 102.049 96.9203 101.843 96.8992 101.567C96.878 101.292 97.084 101.052 97.3594 101.031L97.436 102.028ZM100.437 100.713C100.71 100.677 100.961 100.87 100.997 101.144C101.033 101.418 100.839 101.669 100.566 101.704L100.437 100.713ZM103.674 101.215C103.403 101.265 103.142 101.086 103.092 100.814C103.041 100.543 103.221 100.282 103.492 100.231L103.674 101.215ZM105.611 100.37C105.656 100.84 105.71 101.314 105.773 101.79L104.781 101.921C104.717 101.433 104.662 100.948 104.615 100.466L105.611 100.37ZM106.24 104.62C106.424 105.547 106.638 106.481 106.884 107.419L105.917 107.672C105.666 106.715 105.447 105.761 105.259 104.814L106.24 104.62ZM107.691 110.174C107.984 111.077 108.305 111.981 108.654 112.882L107.721 113.243C107.366 112.324 107.039 111.403 106.74 110.483L107.691 110.174ZM109.764 115.533C110.156 116.401 110.574 117.263 111.018 118.118L110.13 118.579C109.678 117.707 109.252 116.828 108.853 115.945L109.764 115.533ZM112.411 120.633C112.896 121.454 113.406 122.265 113.94 123.064L113.109 123.62C112.564 122.805 112.044 121.978 111.55 121.142L112.411 120.633ZM115.604 125.406C116.179 126.168 116.778 126.915 117.401 127.646L116.64 128.295C116.004 127.549 115.393 126.786 114.806 126.008L115.604 125.406ZM119.327 129.773C119.989 130.461 120.673 131.13 121.381 131.777L120.706 132.515C119.982 131.853 119.283 131.169 118.607 130.467L119.327 129.773ZM123.559 133.645C124.301 134.24 125.066 134.813 125.853 135.362L125.281 136.182C124.476 135.621 123.693 135.034 122.933 134.425L123.559 133.645ZM128.26 136.917C129.076 137.405 129.913 137.867 130.771 138.3L130.32 139.193C129.441 138.749 128.583 138.276 127.747 137.776L128.26 136.917ZM133.37 139.498C134.244 139.862 135.138 140.198 136.051 140.504L135.734 141.452C134.797 141.139 133.881 140.794 132.985 140.42L133.37 139.498ZM138.799 141.313C139.715 141.547 140.65 141.751 141.602 141.923L141.424 142.907C140.449 142.731 139.491 142.522 138.552 142.282L138.799 141.313ZM144.435 142.332C145.37 142.434 146.322 142.506 147.291 142.546L147.249 143.545C146.259 143.504 145.284 143.431 144.326 143.326L144.435 142.332ZM150.157 142.572C150.635 142.561 151.116 142.542 151.6 142.516L151.655 143.514C151.16 143.541 150.668 143.56 150.18 143.572L150.157 142.572ZM104.615 100.466C104.567 99.9681 104.527 99.4699 104.494 98.9712L105.492 98.9061C105.524 99.3945 105.564 99.8824 105.611 100.37L104.615 100.466ZM104.391 95.9748C104.388 94.976 104.414 93.9768 104.47 92.9783L105.469 93.0346C105.414 94.0132 105.388 94.9925 105.391 95.971L104.391 95.9748ZM104.727 89.9925C104.842 89.0016 104.985 88.0127 105.157 87.0272L106.142 87.1988C105.973 88.1657 105.833 89.1356 105.721 90.1073L104.727 89.9925ZM105.754 84.0917C105.98 83.1211 106.233 82.1549 106.513 81.1944L107.473 81.4743C107.198 82.4173 106.95 83.3658 106.728 84.3183L105.754 84.0917ZM107.429 78.3433C107.594 77.8729 107.765 77.4042 107.943 76.9373L108.878 77.2935C108.703 77.7521 108.534 78.2125 108.372 78.6745L107.429 78.3433ZM107.943 76.9373C108.138 76.4262 108.339 75.9292 108.545 75.4461L109.465 75.8384C109.264 76.3093 109.068 76.7943 108.878 77.2935L107.943 76.9373ZM109.909 72.5894C110.435 71.604 110.986 70.6908 111.557 69.8474L112.385 70.4084C111.834 71.2214 111.301 72.1044 110.791 73.0603L109.909 72.5894ZM113.503 67.324C114.251 66.4757 115.022 65.7277 115.809 65.0759L116.447 65.8459C115.702 66.4628 114.968 67.1741 114.253 67.9853L113.503 67.324ZM118.473 63.2551C119.471 62.7095 120.476 62.3029 121.474 62.0275L121.74 62.9915C120.82 63.2455 119.886 63.6223 118.954 64.1323L118.473 63.2551ZM124.708 61.585C125.834 61.5888 126.923 61.7611 127.947 62.0877L127.643 63.0404C126.718 62.7453 125.731 62.5884 124.705 62.585L124.708 61.585ZM130.875 63.5741C131.753 64.2164 132.531 65.0023 133.181 65.9144L132.366 66.4947C131.778 65.6691 131.075 64.9598 130.285 64.3811L130.875 63.5741ZM134.659 68.8297C134.991 69.8177 135.206 70.8867 135.285 72.025L134.288 72.0948C134.214 71.038 134.015 70.0529 133.711 69.1486L134.659 68.8297ZM135.16 75.2589C135.018 76.2665 134.779 77.3119 134.434 78.3891L133.481 78.0843C133.81 77.058 134.036 76.0679 134.17 75.1191L135.16 75.2589ZM133.243 81.3652C133.017 81.8376 132.771 82.3147 132.505 82.7962L131.63 82.3121C131.887 81.8473 132.124 81.3876 132.342 80.9333L133.243 81.3652ZM132.505 82.7962C132.276 83.2094 132.038 83.616 131.791 84.0159L130.94 83.4903C131.179 83.1039 131.409 82.7112 131.63 82.3121L132.505 82.7962ZM130.195 86.3453C129.627 87.0961 129.026 87.8199 128.393 88.5167L127.652 87.8442C128.266 87.1691 128.848 86.4684 129.397 85.7422L130.195 86.3453ZM126.408 90.52C125.722 91.1567 125.008 91.767 124.268 92.3511L123.648 91.566C124.368 90.998 125.062 90.405 125.728 89.7869L126.408 90.52ZM121.993 94.0101C121.22 94.5318 120.424 95.0283 119.609 95.4996L119.108 94.6337C119.905 94.1736 120.681 93.6894 121.434 93.1811L121.993 94.0101ZM117.131 96.8248C116.296 97.2377 115.443 97.6266 114.576 97.9916L114.188 97.0699C115.037 96.7125 115.871 96.332 116.688 95.9283L117.131 96.8248ZM111.96 99.0052C111.083 99.3169 110.193 99.6058 109.293 99.8718L109.009 98.9128C109.892 98.6518 110.765 98.3685 111.625 98.0629L111.96 99.0052ZM106.584 100.596C106.131 100.705 105.675 100.809 105.218 100.907L105.008 99.9288C105.458 99.8326 105.905 99.731 106.351 99.624L106.584 100.596ZM4.32496 5.34084C4.42634 6.33771 4.54299 7.32855 4.67449 8.31328L3.68329 8.44564C3.55041 7.45058 3.43253 6.44935 3.33009 5.44202L4.32496 5.34084ZM5.11667 11.2709C5.27989 12.257 5.45793 13.2367 5.65032 14.21L4.6693 14.4039C4.47491 13.4205 4.29502 12.4306 4.1301 11.4342L5.11667 11.2709ZM6.27509 17.1322C6.49938 18.1074 6.73801 19.0759 6.99051 20.0377L6.02329 20.2916C5.76822 19.32 5.52714 18.3416 5.30053 17.3563L6.27509 17.1322ZM7.79351 22.9175C8.07629 23.8753 8.37274 24.8262 8.68236 25.7701L7.73218 26.0818C7.41948 25.1286 7.12006 24.1681 6.83443 23.2006L7.79351 22.9175ZM9.65656 28.5978C9.9961 29.5381 10.3486 30.4711 10.7136 31.3967L9.78332 31.7636C9.41481 30.829 9.05886 29.8869 8.716 28.9374L9.65656 28.5978ZM11.8504 34.1627C12.2431 35.0809 12.648 35.9915 13.0646 36.8944L12.1565 37.3133C11.7361 36.402 11.3274 35.4829 10.9309 34.556L11.8504 34.1627ZM14.3553 39.5935C14.7989 40.4893 15.2539 41.3773 15.7197 42.2572L14.8358 42.725C14.3659 41.8372 13.9068 40.9413 13.4592 40.0373L14.3553 39.5935ZM17.1543 44.8826C17.6449 45.7529 18.1459 46.6149 18.6569 47.4687L17.7988 47.9822C17.2835 47.1211 16.7781 46.2516 16.2832 45.3737L17.1543 44.8826ZM20.2259 50.0165C20.7612 50.8614 21.306 51.6979 21.8597 52.5256L21.0285 53.0816C20.4702 52.2471 19.9209 51.4037 19.3812 50.5516L20.2259 50.0165ZM23.5544 54.9931C24.1304 55.8104 24.715 56.6188 25.3075 57.4182L24.5042 58.0136C23.907 57.2079 23.3177 56.3931 22.737 55.5692L23.5544 54.9931ZM27.1169 59.8001C27.7319 60.5904 28.3545 61.3715 28.984 62.143L28.2091 62.7752C27.5748 61.9977 26.9475 61.2107 26.3277 60.4143L27.1169 59.8001ZM30.9036 64.4422C31.554 65.2036 32.2109 65.9552 32.8736 66.697L32.1279 67.3633C31.4602 66.616 30.7985 65.8588 30.1432 65.0917L30.9036 64.4422ZM34.892 68.9069C35.5753 69.6388 36.2639 70.3604 36.9573 71.0716L36.2412 71.7697C35.5429 71.0533 34.8493 70.3265 34.161 69.5893L34.892 68.9069ZM39.0724 73.1954C39.7881 73.8989 40.508 74.5915 41.2315 75.2731L40.5458 76.001C39.8172 75.3146 39.0922 74.6171 38.3714 73.9086L39.0724 73.1954ZM43.4331 77.3042C44.178 77.977 44.9258 78.6382 45.6759 79.2878L45.0212 80.0437C44.2659 79.3896 43.5129 78.7238 42.7628 78.0462L43.4331 77.3042ZM47.9584 81.2233C48.7309 81.8646 49.505 82.4936 50.2798 83.1099L49.6573 83.8925C48.877 83.2718 48.0976 82.6385 47.3197 81.9927L47.9584 81.2233ZM52.6452 84.9514C53.4467 85.5618 54.2481 86.1587 55.0486 86.742L54.4597 87.5502C53.6535 86.9628 52.8464 86.3616 52.0393 85.7469L52.6452 84.9514ZM57.489 88.4802C58.317 89.0564 59.143 89.6178 59.9662 90.1642L59.4132 90.9974C58.5839 90.4469 57.7518 89.8814 56.9178 89.3009L57.489 88.4802ZM62.4797 91.7919C63.3344 92.3317 64.1848 92.8547 65.0297 93.3608L64.5159 94.2187C63.6641 93.7085 62.807 93.1813 61.9458 92.6375L62.4797 91.7919ZM67.6163 94.8676C68.0504 95.1133 68.4828 95.3544 68.9132 95.5908L68.4318 96.4673C67.9976 96.2288 67.5615 95.9857 67.1237 95.7378L67.6163 94.8676ZM68.9132 95.5908C69.3604 95.8365 69.8151 96.0742 70.2768 96.3039L69.8314 97.1992C69.3578 96.9636 68.8911 96.7196 68.4318 96.4673L68.9132 95.5908ZM73.0868 97.5697C74.031 97.9534 74.9979 98.3069 75.9845 98.6302L75.6731 99.5805C74.6653 99.2502 73.6766 98.8888 72.7104 98.4962L73.0868 97.5697ZM78.9479 99.4958C79.9382 99.7514 80.9437 99.9783 81.9617 100.177L81.7704 101.158C80.7333 100.956 79.7081 100.725 78.698 100.464L78.9479 99.4958ZM85.0122 100.681C86.029 100.82 87.0547 100.931 88.0866 101.014L88.0057 102.011C86.956 101.926 85.9121 101.813 84.8771 101.672L85.0122 100.681ZM91.1755 101.182C92.2045 101.211 93.2367 101.212 94.2694 101.187L94.294 102.187C93.2439 102.213 92.1942 102.211 91.1477 102.182L91.1755 101.182ZM97.3594 101.031C98.3883 100.952 99.4149 100.846 100.437 100.713L100.566 101.704C99.5264 101.839 98.4823 101.947 97.436 102.028L97.3594 101.031ZM103.492 100.231C104 100.137 104.505 100.036 105.008 99.9288L105.218 100.907C104.705 101.016 104.191 101.119 103.674 101.215L103.492 100.231Z" fill="#2D2C2B"/>
</svg>
