<svg width="26" height="24" viewBox="0 0 26 24" fill="none" xmlns="http://www.w3.org/2000/svg">
<path d="M25.8269 9.0305C25.6632 8.55028 25.2142 8.20921 24.683 8.16379L17.4673 7.54226L14.6141 1.20698C14.4037 0.742682 13.9245 0.442139 13.3922 0.442139C12.8598 0.442139 12.3807 0.742682 12.1703 1.20806L9.31704 7.54226L2.10023 8.16379C1.56997 8.2103 1.12212 8.55028 0.95751 9.0305C0.792902 9.51072 0.944921 10.0374 1.34605 10.3695L6.80024 14.9071L5.19192 21.6278C5.07424 22.1219 5.27642 22.6327 5.70864 22.9291C5.94096 23.0884 6.21276 23.1694 6.48685 23.1694C6.72318 23.1694 6.9576 23.109 7.16798 22.9896L13.3922 19.4607L19.6141 22.9896C20.0694 23.2494 20.6433 23.2257 21.0746 22.9291C21.507 22.6318 21.709 22.1209 21.5913 21.6278L19.983 14.9071L25.4372 10.3704C25.8383 10.0374 25.9915 9.51162 25.8269 9.0305Z" fill="white"/>
</svg>
