<svg width="12" height="13" viewBox="0 0 12 13" fill="none" xmlns="http://www.w3.org/2000/svg">
<path d="M11.9972 6.80566C11.9975 6.91793 11.9755 7.02915 11.9326 7.13288C11.8897 7.23661 11.8266 7.3308 11.747 7.40999L6.60111 12.5564C6.4405 12.7161 6.22324 12.8057 5.99679 12.8057C5.77033 12.8057 5.55307 12.7161 5.39246 12.5564L0.249267 7.40999C0.0896131 7.24938 0 7.03212 0 6.80566C0 6.5792 0.0896131 6.36195 0.249267 6.20134L5.39514 1.05493C5.55575 0.895277 5.773 0.805664 5.99946 0.805664C6.22592 0.805664 6.44318 0.895277 6.60379 1.05493L11.7497 6.20134C11.8288 6.28075 11.8914 6.37503 11.9338 6.47876C11.9763 6.58248 11.9978 6.69358 11.9972 6.80566Z" fill="#2D2C2B"/>
</svg>
